<?xml version="1.0" encoding="UTF-8" standalone="no"?>
<svg width="159px" height="161px" viewBox="0 0 159 161" version="1.1" xmlns="http://www.w3.org/2000/svg" xmlns:xlink="http://www.w3.org/1999/xlink" xmlns:sketch="http://www.bohemiancoding.com/sketch/ns">
    <!-- Generator: Sketch 3.1.1 (8761) - http://www.bohemiancoding.com/sketch -->
    <title>AG</title>
    <desc>Created with Sketch.</desc>
    <defs></defs>
    <g id="Source" stroke="none" stroke-width="1" fill="none" fill-rule="evenodd" sketch:type="MSPage">
        <g id="Artboard-1" sketch:type="MSArtboardGroup" transform="translate(-394.000000, -63.000000)" stroke="#000000" stroke-width="0.5" fill="#71C837">
            <path d="M545.773,78.896 L544.468,80.953 L545.114,81.697 L544.855,85.574 L542.528,91.52 L538.392,95.656 L535.032,98.5 L535.032,102.636 L533.222,105.997 L531.154,112.459 L532.964,117.888 L534.515,119.18 L534.903,120.861 L535.421,123.704 L536.325,128.745 L536.584,129.65 L538.781,130.684 L542.4,132.752 L543.046,135.854 L542.271,137.664 L536.196,144.902 L536.584,147.099 L543.435,150.718 L542.861,153.303 L543.334,161.072 L545.044,163.151 L546.414,164.272 L549.136,164.772 L551.112,161.975 L552.068,162.421 L550.307,165.439 L548.545,168.625 L546.169,171.275 L543.793,172.372 L540.507,173.03 C540.913,173.736 541.779,174.738 542.128,175.454 C542.562,176.342 542.949,177.61 543.254,178.55 C543.444,179.135 543.628,179.936 543.817,180.52 C544.122,181.46 544.727,182.652 544.943,183.617 C545.146,184.527 545.417,185.801 545.224,186.713 C545.044,187.564 544.19,188.461 543.817,189.246 C543.426,190.067 542.668,191.152 542.691,192.061 C542.722,193.269 543.914,194.604 544.379,195.72 C544.657,196.386 545.067,197.267 545.224,197.972 C545.462,199.047 545.463,200.531 545.505,201.631 C545.551,202.812 545.334,204.402 545.505,205.571 C545.633,206.444 546.137,207.53 546.35,208.386 C546.558,209.221 546.633,210.386 546.913,211.201 C547.159,211.915 548.022,212.698 548.039,213.453 C548.059,214.285 547.14,215.186 546.913,215.986 C546.566,217.216 546.737,218.99 546.338,220.179 L541.408,221.639 L536.01,222.961 L533.697,223.292 L532.155,220.758 L530.061,216.571 L528.079,212.385 L525.875,206.546 L525.104,202.029 L523.341,196.741 L521.247,189.91 L520.256,185.283 L520.036,181.978 L519.375,179.885 L518.714,179.444 L514.417,178.232 L513.426,176.47 L510.011,175.699 L507.808,175.809 L503.29,181.648 L500.757,183.08 L499.765,185.724 L498.994,189.69 L498.663,192.114 L497.561,194.317 L495.688,195.859 L493.706,196.19 L491.393,195.529 L489.63,193.987 L489.409,192.665 L489.409,191.123 L491.943,189.911 L491.612,188.479 L489.85,188.92 L484.782,189.471 L479.494,189.911 L476.85,189.36 L476.74,186.496 L475.859,184.293 L475.528,183.742 L473.876,183.411 L471.342,182.86 L468.809,183.631 L467.597,184.512 L467.046,186.715 L466.275,189.028 L463.631,189.799 L461.097,190.019 L458.233,189.799 L456.36,189.799 L456.581,188.587 L456.801,184.841 L456.801,182.087 L456.141,180.104 L454.598,177.24 L452.835,177.901 L449.86,178.782 L448.428,178.782 L446.555,178.782 L445.233,177.57 L443.912,177.35 L443.802,179.443 L443.802,188.146 L443.251,189.248 L442.369,190.239 L441.048,191.01 L437.081,190.79 L435.209,189.909 L431.903,189.469 L427.607,190.02 L425.624,190.571 L423.642,191.893 L419.45,192.233 L419.014,188.753 L418.959,183.3 L419.73,179.995 L420.209,178.893 C421.037,178.599 421.784,177.515 422.346,176.795 C423.189,175.716 424.035,174.082 424.695,172.881 C425.074,172.191 425.409,171.172 425.869,170.532 C426.403,169.791 427.505,169.133 428.021,168.38 C428.349,167.903 428.456,167.08 428.804,166.619 C429.357,165.888 430.572,165.372 431.153,164.662 C431.701,163.991 432.403,162.976 432.522,162.118 C432.67,161.046 431.607,159.67 431.74,158.596 C431.82,157.945 432.433,157.231 432.628,156.584 L434.492,157.906 L436.421,159.448 L438.789,160.385 L441.818,161.046 L447.657,161.542 L451.458,161.817 L453.11,161.542 L454.378,161.046 L455.59,159.283 L456.581,155.813 L458.509,150.359 L460.382,146.559 L462.31,142.042 L461.87,139.894 L459.115,137.25 L456.747,136.864 L454.93,136.038 L452.892,134.826 L449.642,133.063 L447.769,131.245 L450.193,129.813 L450.083,127.224 L449.367,124.195 L447.769,123.754 L447.053,121.385 L446.997,119.622 L444.85,119.402 L443.776,119.209 L441.049,117.419 L440.498,113.894 L440.718,111.581 L437.854,111.25 L435.43,111.14 L433.557,110.038 L431.134,106.843 L430.032,102.767 L426.947,97.259 L424.413,93.844 L422.32,91.2 L421.329,89.988 L419.676,88.886 L418.134,88.776 L416.702,89.657 L415.931,91.089 L415.38,93.512 L414.829,95.495 L414.058,97.918 L411.855,100.011 L409.542,101.663 L406.127,101.884 L405.906,99.57 L406.237,98.028 L405.576,96.816 L404.033,96.045 L400.783,93.181 L397.919,91.694 L395,90.647 L394.707,89.014 C395.473,88.836 396.607,88.652 397.45,88.471 C398.551,88.234 400.034,87.964 401.109,87.627 C401.976,87.355 403.063,86.795 403.923,86.501 C405.086,86.103 406.718,85.821 407.863,85.375 C408.743,85.033 409.928,84.542 410.678,83.968 C411.485,83.349 412.408,82.308 412.93,81.434 C413.436,80.585 413.692,79.257 414.056,78.338 C414.292,77.74 414.539,76.9 414.9,76.368 C415.101,76.071 415.414,75.66 415.745,75.524 C416.135,75.362 416.741,75.427 417.152,75.524 C417.887,75.697 418.683,76.424 419.404,76.649 C419.974,76.827 420.777,76.938 421.375,76.931 C421.889,76.925 422.569,76.788 423.063,76.649 C423.501,76.526 424.063,76.288 424.47,76.086 C424.911,75.867 425.411,75.399 425.878,75.242 C426.602,74.997 427.647,74.94 428.411,74.96 C428.924,74.974 429.616,75.069 430.099,75.242 C430.741,75.471 431.588,75.887 432.07,76.368 C432.552,76.849 432.892,77.729 433.196,78.338 C433.482,78.914 433.794,79.714 434.04,80.309 C434.215,80.729 434.486,81.277 434.603,81.716 C434.757,82.293 434.76,83.102 434.884,83.686 C435.012,84.287 435.165,85.11 435.447,85.656 C435.695,86.136 436.138,86.741 436.573,87.064 C437.303,87.606 438.666,87.637 439.387,88.19 C439.722,88.447 439.835,89.169 440.232,89.316 C440.961,89.586 442.123,89.193 442.765,88.753 C443.267,88.409 443.545,87.565 443.891,87.064 C444.303,86.466 444.652,85.426 445.298,85.094 C445.974,84.746 447.071,85.062 447.831,85.094 C448.847,85.136 450.195,85.291 451.209,85.375 C452.223,85.459 453.607,85.382 454.587,85.656 C455.132,85.809 455.733,86.337 456.275,86.501 C456.926,86.698 457.847,86.74 458.527,86.782 C459.623,86.85 461.096,86.916 462.186,86.782 C462.877,86.697 463.814,86.528 464.438,86.219 C464.922,85.979 465.423,85.43 465.845,85.093 C466.268,84.755 466.87,84.349 467.252,83.967 C467.635,83.585 467.923,82.851 468.378,82.559 C468.671,82.371 469.16,82.226 469.504,82.278 C469.991,82.35 470.503,82.848 470.911,83.122 C471.262,83.358 471.637,83.833 472.037,83.967 C472.839,84.234 474.008,83.967 474.852,83.967 C475.19,83.967 475.684,84.133 475.978,83.967 C476.407,83.724 476.585,82.991 476.822,82.559 C477.095,82.062 477.537,81.422 477.667,80.87 C477.803,80.295 477.667,79.491 477.667,78.9 C477.667,78.731 477.609,78.496 477.667,78.337 C477.892,77.717 478.478,76.928 479.074,76.648 C479.457,76.469 480.062,76.7 480.481,76.648 C481.172,76.563 482.081,76.327 482.733,76.085 C482.911,76.02 483.14,75.91 483.296,75.804 C484.138,75.234 485.052,74.208 485.829,73.552 C486.242,73.203 486.726,72.605 487.236,72.426 C487.954,72.175 489.015,72.519 489.769,72.426 C490.115,72.384 490.569,72.265 490.895,72.145 C491.604,71.883 492.471,71.357 493.147,71.019 C493.654,70.766 494.482,70.616 494.836,70.174 C495.054,69.903 494.939,69.347 495.117,69.048 C495.762,67.971 497.223,67.006 498.213,66.234 C498.693,65.859 499.453,65.52 499.902,65.108 C500.3,64.743 500.523,63.894 501.028,63.701 C501.507,63.517 502.303,63.677 502.716,63.982 C503.02,64.207 503.033,64.821 503.279,65.108 C503.751,65.66 504.59,66.211 505.249,66.515 C505.565,66.661 506.029,66.754 506.375,66.797 C506.711,66.838 507.165,66.827 507.501,66.797 C508.441,66.712 509.657,66.319 510.598,66.234 C511.187,66.181 511.985,66.139 512.569,66.234 C513.095,66.319 513.73,66.712 514.257,66.797 C515.007,66.919 516.036,66.704 516.79,66.797 C517.481,66.882 518.482,66.945 519.042,67.36 C519.438,67.653 519.731,68.3 519.887,68.767 C520.154,69.573 519.805,70.815 520.168,71.582 C520.628,72.553 521.941,73.355 522.701,74.115 C523.63,75.044 524.108,76.93 525.798,77.211 C527.486,77.493 527.158,78.224 527.768,78.619 C528.753,79.256 530.02,80.589 531.146,80.589 C532.272,80.589 533.698,81.068 534.805,81.152 C535.816,81.229 537.17,81.152 538.183,81.152 C539.112,81.152 540.547,81.724 541.28,81.152 C541.554,80.938 541.389,80.329 541.561,80.026 C541.915,79.402 542.588,78.611 543.249,78.337 C543.562,78.208 544.044,78.273 544.375,78.337 C544.826,78.43 545.359,78.71 545.773,78.896 L545.773,78.896 Z" id="AG" sketch:type="MSShapeGroup"></path>
        </g>
    </g>
</svg>