<?xml version="1.0" encoding="UTF-8" standalone="no"?>
<svg width="68px" height="70px" viewBox="0 0 68 70" version="1.1" xmlns="http://www.w3.org/2000/svg" xmlns:xlink="http://www.w3.org/1999/xlink" xmlns:sketch="http://www.bohemiancoding.com/sketch/ns">
    <!-- Generator: Sketch 3.1.1 (8761) - http://www.bohemiancoding.com/sketch -->
    <title>AI</title>
    <desc>Created with Sketch.</desc>
    <defs></defs>
    <g id="Source" stroke="none" stroke-width="1" fill="none" fill-rule="evenodd" sketch:type="MSPage">
        <g id="Artboard-1" sketch:type="MSArtboardGroup" transform="translate(-740.000000, -121.000000)" stroke="#000000" stroke-width="0.5" fill="#71C837">
            <path d="M747.84,184.82 L746.996,180.039 L745.121,175.414 L742.746,173.414 L740.621,169.164 L741.746,162.789 L742.496,156.914 L745.621,153.414 L749.746,149.789 L751.496,147.039 L750.371,145.539 L748.871,141.914 L751.371,141.164 L754.871,140.414 L758.746,142.039 L764.996,144.539 L770.121,146.789 L772.121,150.789 L774.871,152.039 L778.246,151.914 L781.65,151.125 L782.545,155.412 L782.457,160.273 L781.131,167.609 L779.01,173.266 L775.386,178.127 L769.111,184.226 L766.282,186.347 L761.863,188.91 L760.36,189.794 L756.913,189.706 L753.997,188.557 L747.84,184.82 L747.84,184.82 Z M807.262,128.165 L804.278,125.634 L800.872,122.978 L798.028,121.884 L794.215,122.978 L794.496,126.166 L797.246,128.104 L799.465,129.635 L801.858,131.014 L805.438,129.693 L807.262,128.165 L807.262,128.165 Z M791.929,136.735 L791.715,133.945 L796.496,131.414 L794.433,129.633 L792.277,126.289 L791.183,124.289 L789.558,124.945 L786.745,125.82 L785.464,126.789 L784.276,128.352 L787.026,130.29 L785.932,131.728 L783.557,132.947 L781.994,134.916 L782.792,136.793 L783.869,136.057 L786.609,136.145 L789.172,136.41 L791.929,136.735 L791.929,136.735 Z" id="AI" sketch:type="MSShapeGroup"></path>
        </g>
    </g>
</svg>