<?xml version="1.0" encoding="UTF-8" standalone="no"?>
<svg width="98px" height="75px" viewBox="0 0 98 75" version="1.1" xmlns="http://www.w3.org/2000/svg" xmlns:xlink="http://www.w3.org/1999/xlink" xmlns:sketch="http://www.bohemiancoding.com/sketch/ns">
    <!-- Generator: Sketch 3.1.1 (8761) - http://www.bohemiancoding.com/sketch -->
    <title>AR</title>
    <desc>Created with Sketch.</desc>
    <defs></defs>
    <g id="Source" stroke="none" stroke-width="1" fill="none" fill-rule="evenodd" sketch:type="MSPage">
        <g id="Artboard-1" sketch:type="MSArtboardGroup" transform="translate(-714.000000, -113.000000)" stroke="#000000" stroke-width="0.5" fill="#71C837">
            <path d="M807.254,128.168 L804.277,125.633 L800.871,122.977 L798.027,121.883 L794.214,122.977 L794.495,126.165 L797.245,128.103 L799.464,129.634 L801.86,131.007 L799.245,133.04 L795.245,133.915 L793.495,135.79 L791.917,136.743 L791.714,133.946 L796.495,131.415 L794.432,129.634 L792.276,126.29 L791.182,124.29 L789.557,124.946 L786.744,125.821 L785.463,126.79 L784.275,128.353 L787.025,130.291 L785.931,131.729 L783.556,132.948 L781.993,134.917 L782.788,136.78 L781.618,139.917 L779.993,144.042 L779.993,146.292 L781.243,148.792 L781.648,151.134 L778.243,151.917 L774.868,152.042 L772.118,150.792 L770.118,146.792 L764.993,144.542 L758.743,142.042 L754.868,140.417 L751.368,141.167 L748.868,141.917 L750.368,145.542 L751.493,147.042 L749.743,149.792 L745.618,153.417 L742.493,156.917 L741.743,162.792 L740.618,169.167 L742.743,173.417 L745.118,175.417 L746.993,180.042 L747.848,184.812 L745.118,186.917 L740.993,184.792 L735.993,181.542 L733.493,179.542 L731.118,181.042 L728.118,181.542 L724.743,181.042 L721.743,179.542 L718.618,177.667 L721.368,171.792 L719.493,170.917 L718.368,165.542 L718.743,162.917 L721.993,160.292 L723.493,158.792 L720.493,156.292 L718.118,158.042 L717.368,157.417 L717.368,154.917 L715.118,152.542 L714.993,150.917 L717.618,149.542 L720.243,146.792 L720.868,143.792 L721.118,141.917 L724.118,139.917 L726.868,137.167 L731.118,136.417 L736.493,136.042 L741.868,134.667 L745.368,132.167 L749.868,131.417 L754.368,131.542 L755.993,131.542 L760.993,130.667 L764.743,128.917 L767.118,128.917 L768.493,124.292 L772.868,123.417 L777.618,122.042 L782.618,119.792 L785.868,116.167 L788.618,113.542 L792.118,113.667 L795.368,116.042 L799.493,118.292 L803.993,119.792 L808.993,122.542 L811.118,123.792 L807.254,128.168 L807.254,128.168 Z" id="AR" sketch:type="MSShapeGroup"></path>
        </g>
    </g>
</svg>