<?xml version="1.0" encoding="UTF-8" standalone="no"?>
<svg width="350px" height="326px" viewBox="0 0 350 326" version="1.1" xmlns="http://www.w3.org/2000/svg" xmlns:xlink="http://www.w3.org/1999/xlink" xmlns:sketch="http://www.bohemiancoding.com/sketch/ns">
    <!-- Generator: Sketch 3.1.1 (8761) - http://www.bohemiancoding.com/sketch -->
    <title>BE</title>
    <desc>Created with Sketch.</desc>
    <defs></defs>
    <g id="Source" stroke="none" stroke-width="1" fill="none" fill-rule="evenodd" sketch:type="MSPage">
        <g id="Artboard-1" sketch:type="MSArtboardGroup" transform="translate(-205.000000, -160.000000)" stroke="#000000" stroke-width="0.5" fill="#71C837">
            <path d="M284.586,412.283 L287.394,408.645 L292.166,404.932 L295.702,402.988 L301.005,403.518 L304.541,401.397 L301.182,396.093 L301.536,389.199 L301.89,383.895 L302.42,381.244 L305.425,379.3 L309.137,380.891 L310.729,380.537 L313.734,380.714 L314.264,375.764 L314.087,367.809 L311.436,365.158 L307.193,361.446 L304.365,359.677 L299.391,357.834 C298.798,357.215 297.322,357.176 296.889,356.438 C296.467,355.723 296.639,354.462 296.889,353.67 C297.194,352.704 298.406,351.825 298.826,350.903 C299.11,350.28 299.521,349.359 299.38,348.689 C299.185,347.763 297.914,347.019 297.442,346.199 C296.775,345.035 295.963,343.377 295.782,342.047 C295.68,341.303 295.676,340.203 296.058,339.557 C296.576,338.686 298.309,338.492 298.826,337.619 C299.21,336.973 299.027,335.877 299.103,335.129 C299.195,334.217 299.095,332.957 299.379,332.085 C299.68,331.164 300.649,330.203 301.039,329.317 C301.39,328.524 301.55,327.355 301.869,326.549 C302.28,325.514 302.936,324.171 303.53,323.228 C304.035,322.427 304.752,321.357 305.467,320.737 L304.718,320.254 L302.42,318.84 C302.42,318.84 299.768,316.719 299.944,316.011 C300.121,315.304 300.828,313.713 300.828,313.713 L302.773,311.061 L303.48,312.652 L305.955,314.596 L306.851,316.032 C307.486,314.578 309.775,313.704 310.726,312.434 C310.949,312.137 311.338,311.694 311.279,311.327 C311.185,310.748 310.15,310.473 309.895,309.943 C309.57,309.266 309.661,308.203 309.619,307.453 C309.578,306.707 309.905,305.652 309.619,304.962 C309.26,304.094 308.212,303.23 307.405,302.748 C306.661,302.304 305.504,301.959 304.637,301.918 C303.791,301.878 302.562,301.984 301.869,302.472 C301.473,302.751 301.501,303.71 301.039,303.856 C300.26,304.102 299.288,303.098 298.549,302.749 C298.045,302.512 297.442,301.987 296.889,301.919 C296.129,301.826 295.102,302.172 294.398,302.473 C294.123,302.59 293.861,302.966 293.568,303.026 C292.659,303.214 291.379,302.834 290.524,302.473 C289.208,301.916 288.041,300.028 286.649,299.705 C286.157,299.591 285.484,300.076 284.988,299.982 C284.512,299.892 283.96,299.48 283.604,299.152 C283.08,298.667 282.22,297.214 282.251,297.225 L278.023,296.919 L279.084,288.787 L278.73,282.954 L277.139,277.121 L278.907,274.823 L282.973,272.172 L282.266,268.636 L278.73,264.747 L276.432,266.161 L267.416,270.404 L257.693,271.995 L253.274,272.172 L246.42,274.198 L245.673,273.763 L241.784,272.526 L236.558,269.875 L231.354,265.02 C231.354,265.043 232.229,263.112 232.623,262.293 C232.992,261.526 233.523,260.522 233.892,259.755 C234.286,258.936 234.642,257.751 235.161,257.005 C235.623,256.343 236.44,255.614 237.064,255.102 C237.772,254.522 238.826,253.894 239.602,253.41 C240.35,252.943 241.342,252.304 242.14,251.93 C242.812,251.615 243.742,251.246 244.467,251.084 C245.151,250.931 246.099,250.967 246.793,250.872 C247.496,250.777 249.1,250.441 249.1,250.441 L252.004,249.067 L252.939,244.237 L253.251,240.498 L252.316,237.226 L245.773,232.864 L238.762,229.125 L237.048,228.034 L231.128,228.19 L222.715,229.281 L217.573,231.774 L213.211,233.955 L209.784,235.513 L206.201,237.071 L205.578,233.332 L207.759,230.528 L208.849,226.321 L208.382,220.401 L206.629,216.623 L212.433,215.961 L215.704,213.857 L220.456,209.65 L223.183,207.002 L229.103,207.625 L232.219,207.313 L233.777,204.82 L234.089,202.327 L240.009,201.392 L243.748,196.407 L246.864,189.552 L247.487,186.125 L254.965,187.683 L268.052,186.748 L266.805,180.205 L270.544,178.024 L270.232,173.661 L271.79,170.234 L275.529,169.611 L279.58,169.611 L282.696,173.038 L288.616,174.285 L295.783,173.973 L302.015,172.726 L307.312,169.922 L312.609,165.56 L316.348,160.574 L317.907,161.197 L318.842,166.183 L323.204,165.871 L332.24,166.806 L337.537,167.43 L343.769,169.611 L347.197,167.118 L350.312,163.379 L356.856,163.379 L358.652,163.582 L356.388,167.04 L354.363,168.832 L352.884,171.013 L350.547,172.571 L344.471,174.285 L341.588,175.375 L339.096,177.479 L338.395,180.361 L337.772,181.451 L336.37,181.919 L332.085,182.854 L328.424,183.321 L328.347,186.437 L324.841,189.397 L320.868,191.812 L314.87,194.539 L309.495,196.72 L310.351,203.575 L311.987,205.523 L315.337,206.536 L316.661,207.159 L317.83,211.911 L318.736,213.631 C319.167,213.273 319.958,213.137 320.41,212.812 C320.791,212.537 321.13,211.971 321.517,211.705 C322.191,211.242 323.352,211.086 324.007,210.598 C324.621,210.14 325.317,209.341 325.667,208.66 C325.981,208.052 325.884,207.042 326.221,206.446 C326.452,206.037 326.885,205.495 327.328,205.339 C328.037,205.09 329.072,205.709 329.818,205.616 C330.522,205.528 331.419,205.142 332.032,204.786 C332.593,204.46 333.158,203.769 333.692,203.402 C334.397,202.919 335.386,202.327 336.183,202.018 C336.859,201.756 337.959,201.906 338.486,201.427 L338.784,205.601 L339.096,209.652 L342.134,214.326 L340.264,217.988 L338.628,218.455 L335.746,218.299 L331.695,218.065 L329.67,220.714 L328.19,222.895 L328.19,225.777 L327.489,227.881 L322.893,228.193 L320.633,228.427 L319.232,227.259 L316.349,226.791 L315.258,227.57 L315.103,229.829 L316.116,232.244 L317.44,235.126 L319.699,238.943 L320.245,239.644 L321.101,239.021 L324.139,236.84 L326.554,235.516 L328.969,234.815 L328.891,237.152 L328.658,238.944 L329.982,240.736 L332.786,240.58 L335.669,239.489 L337.383,238.165 L337.773,236.061 L336.682,234.503 L335.669,232.633 L336.136,231.542 L339.875,229.75 L342.991,227.958 L346.029,225.933 L348.133,221.96 L349.224,217.598 L349.769,214.248 L352.807,213.313 L354.911,212.534 L357.481,213.079 L360.052,214.715 L362.233,216.818 L367.608,217.831 L372.983,218.143 L376.021,217.208 L379.682,214.092 L382.019,210.976 L382.097,208.717 L381.707,205.835 L379.37,203.576 L376.878,202.329 L375.008,200.382 L373.372,197.967 L370.802,192.904 L370.957,191.658 L370.412,189.633 L368.308,188.465 L366.906,187.374 L365.037,187.452 L363.167,187.062 L363.167,184.335 L362.311,181.687 L362.701,179.35 L362.623,177.714 L362.39,175.845 L364.804,176.078 L372.361,176.857 L374.386,176.545 L377.424,175.298 L380.462,174.285 L382.487,173.117 L385.915,173.507 L387.006,174.831 L389.81,178.726 L391.602,183.166 L395.03,183.633 L398.535,183.244 L402.119,181.53 L403.443,180.673 L405.275,183.489 C405.861,182.992 406.552,182.175 407.171,181.678 C407.647,181.295 408.391,180.926 408.844,180.516 C409.245,180.153 409.569,179.448 410.018,179.146 C410.327,178.939 410.824,178.795 411.193,178.755 C412.307,178.633 413.79,179.128 414.911,179.146 C415.734,179.16 416.827,178.98 417.65,178.95 C418.413,178.923 419.489,179.242 420.186,178.95 L419.73,179.997 L418.959,183.302 L419.014,188.755 L419.455,192.225 L419.455,193.327 L419.234,195.751 L420.336,199.938 L422.981,205.446 L424.963,208.09 L426.615,210.513 L426.946,212.276 L426.285,217.344 L426.285,220.649 L428.488,223.954 L429.48,226.488 L428.488,229.022 L426.615,231.115 L425.734,233.649 L426.505,237.395 L426.725,239.488 L426.835,242.352 L426.284,244.775 L425.844,249.292 L424.742,252.046 L426.945,254.139 L429.258,256.893 L430.139,258.876 L430.47,261.851 L431.241,265.046 L434.436,264.605 L437.961,264.825 L440.385,265.596 L441.046,268.57 L442.367,272.316 L442.588,274.629 L441.046,277.824 L438.952,281.239 L438.181,284.654 L437.078,286.747 L434.765,289.17 L431.02,288.73 L429.037,290.603 L426.393,292.035 L423.529,294.348 L425.292,295.67 L426.283,297.763 L426.173,302.83 L424.961,305.364 L421.436,305.254 L421.877,312.415 L423.198,316.051 L424.19,318.144 L430.029,322.33 L435.537,325.525 L441.816,330.814 L445.782,335.55 L449.364,341.221 L452.285,339.859 L458.906,337.911 L463.427,337.256 L465.45,337.561 L473.24,338.652 L476.044,339.43 L483.056,345.039 L489.287,347.221 L494.74,344.883 L497.7,343.948 L503.309,343.793 L506.736,343.17 L511.411,345.039 L516.24,348.154 L522.628,343.48 L526.056,340.365 L529.678,338.845 L533.652,337.132 L534.355,335.999 L540.079,339.624 L541.446,340.992 L542.922,342.895 L547.012,339.663 L552.701,342.382 L550.595,346.362 L550.362,348.309 L550.83,353.606 L552.621,356.957 L553.79,360.773 L553.945,363.811 L553.945,366.849 L553.089,368.485 L551.219,369.654 L548.649,369.342 L546.079,368.407 L542.963,367.861 L540.859,367.628 L541.092,369.575 L541.716,373.081 L542.651,375.496 L544.603,378.699 L540.704,383.052 L538.211,386.48 L535.874,390.531 L534.628,396.139 L534.628,401.437 L533.849,404.552 L530.266,407.824 L527.15,410.005 L523.566,411.875 L522.165,414.212 L514.686,418.886 L509.856,420.6 L499.574,423.248 L494.276,424.183 L490.693,420.755 L484.305,419.509 L478.384,415.614 L473.866,413.9 L469.97,414.212 L464.985,411.875 L461.246,409.85 L458.131,410.005 L455.326,411.875 L451.43,413.9 L447.068,415.614 L446.29,425.585 L439.279,429.013 L437.097,431.973 L431.8,436.335 L426.035,437.27 L416.531,437.738 L403.599,448.956 L388.798,461.108 L384.28,454.253 L376.49,448.645 L370.881,447.554 L368.233,450.202 L366.052,454.253 L363.091,457.992 L358.106,457.836 L353.588,457.836 L351.251,459.083 L349.381,460.952 L353.9,463.912 L352.809,465.626 L350.161,468.431 L345.954,470.456 L341.592,471.858 L333.49,469.21 L328.661,468.119 C328.661,468.119 320.715,470.144 320.092,470.456 C319.469,470.768 313.393,475.441 313.393,475.441 L308.874,478.557 L304.356,481.362 L301.551,480.271 L300.149,478.089 L300.149,471.701 L296.098,470.922 L292.203,473.415 L289.554,475.44 L288.775,479.802 L287.528,483.698 L284.568,485.723 L278.708,485.598 L279.792,482.71 L278.378,476.346 L278.555,473.518 L275.196,470.513 L275.196,463.088 L276.964,459.905 L276.787,456.547 L274.665,453.542 L274.488,450.006 L275.725,448.415 C275.725,448.415 278.73,448.415 279.437,447.885 C280.144,447.355 281.912,445.41 281.912,445.41 C281.912,445.41 281.735,442.051 281.912,440.99 C282.089,439.929 281.382,435.687 281.382,435.687 L284.564,431.621 L286.862,428.263 L286.508,422.606 L285.801,416.419 L284.586,412.283 L284.586,412.283 Z M382.137,216.507 L383.461,215.378 L385.058,214.443 L386.344,214.638 L387.863,216.157 L387.785,217.248 L386.889,219.118 C386.889,219.118 385.604,220.442 385.448,220.481 C385.293,220.52 383.267,221.377 383.267,221.377 L381.904,221.26 L381.203,220.286 L381.203,218.182 L382.137,216.507 L382.137,216.507 Z" id="BE" sketch:type="MSShapeGroup"></path>
        </g>
    </g>
</svg>