<?xml version="1.0" encoding="UTF-8" standalone="no"?>
<svg width="138px" height="75px" viewBox="0 0 138 75" version="1.1" xmlns="http://www.w3.org/2000/svg" xmlns:xlink="http://www.w3.org/1999/xlink" xmlns:sketch="http://www.bohemiancoding.com/sketch/ns">
    <!-- Generator: Sketch 3.1.1 (8761) - http://www.bohemiancoding.com/sketch -->
    <title>BL</title>
    <desc>Created with Sketch.</desc>
    <defs></defs>
    <g id="Source" stroke="none" stroke-width="1" fill="none" fill-rule="evenodd" sketch:type="MSPage">
        <g id="Artboard-1" sketch:type="MSArtboardGroup" transform="translate(-307.000000, -83.000000)" stroke="#000000" stroke-width="0.5" fill="#71C837">
            <path d="M317.963,131.671 L318.376,133.7 L319.467,135.647 L324.686,140.321 L326.284,142.736 L329.205,143.281 L331.079,142.985 L331.308,141.333 L332.164,139.308 L333.723,138.295 L336.916,138.139 L340.5,138.217 L340.967,140.398 L344.317,142.657 L347.122,140.398 L350.705,139.307 L351.251,137.515 L352.497,134.087 L360.131,132.997 L361.222,129.102 L368.467,128.557 L368.7,125.597 L370.414,122.715 L371.66,118.976 L371.037,116.328 L369.012,113.679 L369.167,110.096 L373.997,109.94 L376.645,109.784 L378.827,107.291 L380.073,107.759 L382.098,110.719 L386.382,111.42 L389.654,111.108 L392.536,112.432 L392.069,113.678 L389.887,117.963 L388.095,120.3 L385.603,122.793 L385.057,125.909 L384.824,129.96 L383.811,132.453 L381.552,133.621 L379.605,134.478 L374.542,134.79 L374.775,139.853 L375.398,143.514 L376.333,147.643 L380.072,147.643 L385.603,147.331 L391.679,146.474 L393.938,147.876 L395.029,150.135 L396.82,152.55 L399.002,154.575 L400.794,156.055 L403.286,157.145 L405.857,157.535 L408.194,157.302 L408.194,155.043 L408.584,152.628 L411.699,150.291 L416.451,148.499 L419.957,147.019 L422.995,144.994 L426.656,141.332 L429.304,138.138 L432.109,137.515 L436.627,138.06 L440.055,136.424 L444.184,133.386 L444.496,130.737 C444.106,130.737 443.172,128.634 443.172,128.634 L441.692,126.764 L442.004,123.726 L443.017,121.467 L443.733,119.134 L441.048,117.422 L440.497,113.897 L440.717,111.584 L437.853,111.253 L435.429,111.143 L433.556,110.041 L431.133,106.846 L430.031,102.77 L426.946,97.262 L424.412,93.847 L422.319,91.203 L421.328,89.991 L419.675,88.889 L418.133,88.779 L416.701,89.66 L415.93,91.092 L415.379,93.515 L414.828,95.498 L414.057,97.921 L411.854,100.014 L409.541,101.666 L406.126,101.887 L405.905,99.573 L406.236,98.031 L405.575,96.819 L404.032,96.048 L400.782,93.184 L397.918,91.697 L394.999,90.65 L394.632,89.037 C393.697,89.258 392.414,89.483 391.538,89.882 C390.983,90.134 390.398,90.747 389.849,91.008 C388.812,91.5 387.288,91.8 386.19,92.133 C385.346,92.389 384.256,92.991 383.376,92.978 C382.574,92.966 381.582,92.44 380.843,92.133 C379.97,91.772 378.772,91.307 378.028,90.726 C377.415,90.247 376.832,89.359 376.34,88.756 C375.731,88.01 374.883,87.037 374.369,86.223 C373.866,85.424 373.706,84.089 373.153,83.468 L370.573,85.478 L371.196,90.308 L369.483,92.022 L366.211,92.645 L364.342,90.308 L362,90.622 L361.532,86.26 L358.602,84.95 L355.811,86.367 L352.973,86.712 L349.789,87.448 L346.193,88.662 L343.444,92.257 L344.079,96.698 L345.982,99.025 L345.982,102.832 L343.62,106.217 C344.804,106.298 344.887,106.306 345.561,106.358 L347.665,107.682 L347.821,109.318 L347.976,110.72 L346.497,113.057 L345.718,114.693 L344.55,116.017 L343.381,115.862 L341.199,115.784 L339.33,115.55 L336.37,116.797 L334.266,117.109 L332.241,116.408 L330.839,115.863 L330.028,114.393 L328.428,115.734 L326.948,117.214 L325.044,121.235 L326.165,121.939 L327.879,121.238 L328.97,122.406 L331.774,124.509 L334.423,127.157 L335.591,129.494 L335.436,131.909 L334.657,133.779 L333.722,134.714 L331.385,134.947 L328.58,133.545 L324.763,132.61 L317.963,131.671 L317.963,131.671 Z M317.302,126.509 L317.967,131.675 L312.378,131.13 L308.249,127.313 L308.374,124.466 C309.432,124.595 310.727,125.257 311.766,125.457 C313.002,125.696 314.725,125.543 315.946,125.855 C316.386,125.967 316.954,126.273 317.302,126.509 L317.302,126.509 Z" id="BL" sketch:type="MSShapeGroup"></path>
        </g>
    </g>
</svg>