<?xml version="1.0" encoding="UTF-8" standalone="no"?>
<svg width="23px" height="25px" viewBox="0 0 23 25" version="1.1" xmlns="http://www.w3.org/2000/svg" xmlns:xlink="http://www.w3.org/1999/xlink" xmlns:sketch="http://www.bohemiancoding.com/sketch/ns">
    <!-- Generator: Sketch 3.1.1 (8761) - http://www.bohemiancoding.com/sketch -->
    <title>BS</title>
    <desc>Created with Sketch.</desc>
    <defs></defs>
    <g id="Source" stroke="none" stroke-width="1" fill="none" fill-rule="evenodd" sketch:type="MSPage">
        <g id="Artboard-1" sketch:type="MSArtboardGroup" transform="translate(-358.000000, -68.000000)" stroke="#000000" stroke-width="0.5" fill="#71C837">
            <path d="M358.603,84.95 L361.533,86.26 L362.001,90.622 L364.338,90.31 L366.207,92.647 L369.479,92.024 L371.192,90.31 L370.569,85.48 L373.184,83.443 L374.747,81.682 L375.593,79.567 L376.228,78.298 L378.342,78.509 L380.245,77.029 L380.245,75.972 L379.822,75.126 L378.131,74.492 L377.919,72.165 L379.822,70.262 L380.034,68.993 L378.554,68.782 L376.228,70.474 L374.113,71.532 L371.298,72.657 L368.193,73.002 L365.7,74.193 L362.27,77.877 L361.524,82.028 L358.603,84.95 L358.603,84.95 Z" id="BS" sketch:type="MSShapeGroup"></path>
        </g>
    </g>
</svg>