<?xml version="1.0" encoding="UTF-8" standalone="no"?>
<svg width="138px" height="186px" viewBox="0 0 138 186" version="1.1" xmlns="http://www.w3.org/2000/svg" xmlns:xlink="http://www.w3.org/1999/xlink" xmlns:sketch="http://www.bohemiancoding.com/sketch/ns">
    <!-- Generator: Sketch 3.1.1 (8761) - http://www.bohemiancoding.com/sketch -->
    <title>FR</title>
    <desc>Created with Sketch.</desc>
    <defs></defs>
    <g id="Source" stroke="none" stroke-width="1" fill="none" fill-rule="evenodd" sketch:type="MSPage">
        <g id="Artboard-1" sketch:type="MSArtboardGroup" transform="translate(-177.000000, -264.000000)" stroke="#000000" stroke-width="0.5" fill="#71C837">
            <path d="M218.798,284.131 L224.815,289.144 L224.992,289.321 L228.174,290.912 L229.411,295.685 L231.002,299.928 L235.068,303.287 L237.366,305.762 L239.841,307.53 L240.018,312.48 L238.427,316.545 L240.372,317.783 L242.14,315.661 L245.145,312.833 L246.736,309.474 L247.266,304.171 L250.978,301.342 L253.983,298.691 L251.154,292.857 L246.735,285.079 L245.498,283.488 L245.498,278.008 L246.413,274.199 L253.276,272.175 L257.695,271.998 L267.418,270.407 L276.434,266.164 L278.732,264.75 L282.268,268.639 L282.975,272.175 L278.909,274.826 L277.141,277.124 L278.732,282.957 L279.086,288.79 L278.025,296.922 L282.253,297.228 C282.222,297.217 283.081,298.67 283.606,299.155 C283.962,299.483 284.514,299.895 284.99,299.985 C285.486,300.079 286.158,299.594 286.651,299.708 C288.043,300.03 289.21,301.919 290.526,302.476 C291.38,302.837 292.661,303.218 293.57,303.029 C293.863,302.968 294.125,302.593 294.4,302.476 C295.104,302.175 296.131,301.829 296.891,301.922 C297.444,301.99 298.047,302.515 298.551,302.752 C299.29,303.101 300.262,304.106 301.041,303.859 C301.503,303.713 301.476,302.754 301.871,302.475 C302.563,301.987 303.793,301.882 304.639,301.921 C305.505,301.962 306.662,302.307 307.407,302.751 C308.214,303.233 309.261,304.097 309.621,304.965 C309.907,305.655 309.58,306.71 309.621,307.456 C309.663,308.206 309.572,309.269 309.897,309.946 C310.152,310.475 311.187,310.751 311.281,311.33 C311.341,311.697 310.951,312.14 310.728,312.437 C309.777,313.707 307.488,314.581 306.853,316.035 L305.957,314.599 L303.482,312.655 L302.775,311.064 L300.83,313.716 C300.83,313.716 300.123,315.307 299.946,316.014 C299.769,316.722 302.422,318.843 302.422,318.843 L304.72,320.257 L305.469,320.74 C304.754,321.36 304.037,322.43 303.532,323.231 C302.938,324.173 302.282,325.517 301.871,326.552 C301.552,327.358 301.392,328.527 301.041,329.32 C300.65,330.206 299.682,331.167 299.381,332.088 C299.097,332.96 299.196,334.22 299.105,335.132 C299.029,335.88 299.211,336.976 298.828,337.622 C298.311,338.494 296.578,338.688 296.06,339.56 C295.677,340.206 295.682,341.306 295.784,342.05 C295.965,343.38 296.777,345.038 297.444,346.202 C297.916,347.022 299.186,347.766 299.382,348.692 C299.524,349.362 299.112,350.283 298.828,350.906 C298.408,351.828 297.196,352.707 296.891,353.673 C296.641,354.465 296.469,355.726 296.891,356.441 C297.324,357.178 298.8,357.217 299.393,357.837 L304.367,359.68 L307.195,361.449 L311.438,365.161 L314.089,367.812 L314.266,375.767 L313.736,380.717 L310.731,380.54 L309.139,380.894 L305.427,379.303 L302.422,381.247 L301.892,383.898 L301.538,389.202 L301.184,396.096 L304.543,401.4 L301.007,403.521 L295.704,402.991 L292.168,404.935 L287.396,408.648 L284.626,412.26 L278.027,415.719 L274.315,413.774 L270.956,416.603 L268.128,418.194 L264.769,419.962 L262.117,424.204 L258.052,428.624 L254.34,430.922 L248.152,431.629 L244.44,432.513 L241.081,435.696 C241.081,435.696 237.722,439.231 237.899,440.115 C238.076,440.999 234.894,444.712 234.894,444.712 L231.712,447.363 L227.469,448.777 L228.176,446.656 L226.939,441.529 L225.348,434.635 L224.994,430.922 L220.398,429.685 L216.332,427.741 L211.913,423.851 L209.438,421.376 L208.024,420.846 L204.135,424.204 L202.19,427.21 L198.301,429.331 L194.766,428.801 L193.175,425.443 L192.291,423.498 L189.286,421.554 L189.817,418.549 L190.701,416.251 L194.59,416.428 L197.772,419.433 L201.308,420.494 L201.131,417.843 L202.015,416.075 L203.606,415.898 L204.843,414.306 L206.611,411.831 L209.616,409.18 L210.548,407.637 L209.086,406.529 L206.081,405.821 L202.899,404.407 L199.717,401.579 L196.888,402.109 L193.529,403.877 L192.115,401.402 L190.347,402.109 L187.165,403.523 L186.458,401.402 L186.458,392.563 L185.574,386.906 L185.574,380.719 L187.165,380.189 L190.701,376.83 L193.352,374.886 L195.474,375.063 L197.065,376.477 L200.424,376.3 L201.838,373.649 L202.192,369.052 L208.38,362.335 L216.688,352.081 L217.219,348.369 L214.567,346.071 L215.451,343.419 L219.87,338.47 L222.345,335.642 L223.936,329.985 L224.82,325.742 L228.886,322.737 L229.063,316.549 L227.472,313.014 L227.472,307.711 L225.35,306.827 L221.285,303.469 L216.512,298.165 L211.153,290.695 L218.798,284.131 L218.798,284.131 Z M203.517,296.968 L208.728,301.695 L210.849,301.518 L213.324,304.17 L208.198,306.998 L208.375,308.059 L211.733,306.644 L215.092,311.77 L212.441,314.068 L210.143,319.548 L209.966,321.492 L208.198,326.265 L210.673,326.442 L211.203,324.674 L212.971,324.497 L214.208,325.204 L213.324,327.502 L213.324,331.392 L212.263,335.281 L210.141,337.402 L207.136,337.402 L203.247,335.811 L200.418,334.042 L198.12,336.518 L195.822,337.755 L193.7,337.401 L188.75,335.28 L184.154,331.921 L185.745,330.86 L181.679,327.855 L179.729,326.296 L179.209,315.124 L203.517,296.968 L203.517,296.968 Z M179.736,347.657 L177.792,350.84 L178.322,353.668 L180.62,355.436 L182.388,353.845 L183.272,350.309 L183.095,347.304 L179.736,347.657 L179.736,347.657 Z M188.575,350.309 L191.227,350.663 L193.525,352.255 L191.581,355.083 L189.283,356.144 L188.222,354.553 L188.575,350.309 L188.575,350.309 Z M191.757,349.426 L195.646,344.476 L197.767,340.764 L197.06,339.172 L198.651,338.288 L200.949,341.293 L204.131,344.476 L205.192,346.067 L202.363,351.37 L200.419,354.376 L198.297,354.022 L196,351.723 L191.757,349.426 L191.757,349.426 Z" id="FR" sketch:type="MSShapeGroup"></path>
        </g>
    </g>
</svg>