<?xml version="1.0" encoding="UTF-8" standalone="no"?>
<svg width="74px" height="76px" viewBox="0 0 74 76" version="1.1" xmlns="http://www.w3.org/2000/svg" xmlns:xlink="http://www.w3.org/1999/xlink" xmlns:sketch="http://www.bohemiancoding.com/sketch/ns">
    <!-- Generator: Sketch 3.1.1 (8761) - http://www.bohemiancoding.com/sketch -->
    <title>GE</title>
    <desc>Created with Sketch.</desc>
    <defs></defs>
    <g id="Source" stroke="none" stroke-width="1" fill="none" fill-rule="evenodd" sketch:type="MSPage">
        <g id="Artboard-1" sketch:type="MSArtboardGroup" transform="translate(0.000000, -469.000000)" stroke="#000000" stroke-width="0.5" fill="#71C837">
            <path d="M55.459,473.868 L62.596,476.962 L58.877,483.981 L52.991,480.594 L50.335,479.533 L50.689,476.35 L46.8,474.582 L44.325,473.521 L45.386,469.455 L50.159,470.87 L55.459,473.868 L55.459,473.868 Z M38.201,487.362 L36.998,487.318 L34.46,489.644 L33.826,494.931 L32.557,496.411 L31.077,499.372 L31.077,502.756 L32.769,504.871 L32.98,508.466 L31.923,510.581 L29.596,511.639 L26,512.908 C26,512.908 23.462,513.12 22.193,513.543 C20.924,513.966 20.29,514.178 20.29,514.178 L18.386,515.869 L16.271,516.081 L13.099,515.869 L11.619,515.658 L9.716,516.292 L8.236,517.984 L6.967,519.887 L5.91,521.367 L3.16,522.002 L1.045,525.386 L0.41,527.289 L2.314,528.347 L4.217,528.981 L4.851,530.461 L4.64,534.057 L3.371,537.229 L1.891,540.613 L1.468,542.939 L5.698,542.728 L9.927,543.574 L14.157,544.632 L16.06,541.46 L17.752,539.98 L19.232,539.768 L21.982,540.614 L26.634,540.826 L30.441,541.672 L33.825,542.095 L36.151,541.037 L38.054,539.346 L41.015,537.654 L43.765,536.385 L46.515,534.482 L49.475,531.098 L52.013,528.137 L54.974,524.753 L57.089,522.638 L60.473,521.792 L63.434,520.312 L67.029,518.832 L69.99,517.352 L71.682,514.814 L73.162,513.123 L72.951,510.585 L72.74,508.682 L70.836,507.624 L69.567,507.624 L69.144,508.894 L67.241,509.528 L64.28,509.528 L62.377,507.625 L59.205,505.299 L57.283,501.328 L52.649,496.205 L51.961,495.858 L47.508,493.148 L42.381,490.143 L38.201,487.362 L38.201,487.362 Z" id="GE" sketch:type="MSShapeGroup"></path>
        </g>
    </g>
</svg>