<?xml version="1.0" encoding="UTF-8" standalone="no"?>
<svg width="87px" height="125px" viewBox="0 0 87 125" version="1.1" xmlns="http://www.w3.org/2000/svg" xmlns:xlink="http://www.w3.org/1999/xlink" xmlns:sketch="http://www.bohemiancoding.com/sketch/ns">
    <!-- Generator: Sketch 3.1.1 (8761) - http://www.bohemiancoding.com/sketch -->
    <title>GL</title>
    <desc>Created with Sketch.</desc>
    <defs></defs>
    <g id="Source" stroke="none" stroke-width="1" fill="none" fill-rule="evenodd" sketch:type="MSPage">
        <g id="Artboard-1" sketch:type="MSArtboardGroup" transform="translate(-645.000000, -208.000000)" stroke="#000000" stroke-width="0.5" fill="#71C837">
            <path d="M673.333,208.381 C673.896,210.335 676.291,212.094 677.802,213.455 C680.814,216.169 685.511,218.938 688.78,221.336 C689.461,221.836 690.313,222.581 691.032,223.025 C691.996,223.621 693.299,224.493 694.41,224.714 C695.572,224.945 697.049,223.9 698.192,223.587 C699.102,223.337 701.429,222.708 701.429,222.708 L714.151,226.578 L714.151,229.619 L714.354,233.065 L714.759,240.769 L714.962,243.506 L711.819,247.561 L709.285,248.473 L705.737,249.588 L704.723,250.196 L704.419,252.122 L705.128,254.149 L706.446,255.873 L709.081,256.684 L714.352,256.988 L716.581,255.974 L718.71,254.859 L721.042,254.149 L723.068,254.859 L725.805,256.785 L726.819,261.752 L728.136,268.949 L728.542,279.288 L726.312,281.923 L725.501,282.835 L727.629,284.66 L729.454,286.789 L731.076,290.438 L730.384,293.742 L727.321,294.43 L724.592,297.252 L721.864,300.356 L720.264,302.425 L719.041,305.812 L716.689,305.153 L711.704,305.341 L709.07,306.094 L707.188,307.881 L704.554,310.797 L701.826,313.055 L700.133,314.372 L698.346,313.337 L697.029,311.079 L694.96,307.787 L692.044,306.376 L689.128,306.658 L686.306,308.351 C686.306,308.351 685.553,311.079 685.459,311.455 C685.365,311.831 683.483,315.406 683.483,315.406 L682.167,320.298 L681.508,323.402 L678.874,326.224 L675.018,327.635 L667.962,329.046 L664.858,329.987 L660.718,331.774 L656.955,331.774 L655.732,328.952 L651.969,328.105 L648.603,327.748 L647.758,324.076 L646.261,319.952 L645.862,318.455 L645.895,317.124 L649.621,316.06 L653.944,314.663 L659,312.535 L662.924,309.874 L665.186,307.081 L665.319,304.221 L664.654,300.629 L661.994,296.239 L659.931,293.566 L663.217,291.972 L664.013,290.646 L666.488,289.585 L665.781,288.877 L665.162,287.286 L664.897,285.96 L665.074,284.369 L666.222,282.513 L668.167,280.922 L666.43,279.787 L663.305,277.037 L660.867,273.849 L659.929,272.349 L661.179,270.724 L659.866,269.474 L657.678,266.911 L657.24,265.598 L656.302,265.911 L655.677,264.723 L654.239,262.16 L652.801,260.785 L651.551,259.097 L652.989,257.972 L652.676,253.097 L654.551,252.909 L656.489,253.284 L659.114,253.472 L663.427,249.534 L666.219,244.414 L668.429,238.403 L666.927,237.961 L665.071,237.607 L663.657,236.37 L664.011,234.868 L666.132,233.012 L667.723,232.217 L668.342,230.626 L667.546,227.709 L665.425,225.5 L672.496,210.12 L673.333,208.381 L673.333,208.381 Z" id="GL" sketch:type="MSShapeGroup"></path>
        </g>
    </g>
</svg>