<?xml version="1.0" encoding="UTF-8" standalone="no"?>
<svg width="410px" height="289px" viewBox="0 0 410 289" version="1.1" xmlns="http://www.w3.org/2000/svg" xmlns:xlink="http://www.w3.org/1999/xlink" xmlns:sketch="http://www.bohemiancoding.com/sketch/ns">
    <!-- Generator: Sketch 3.1.1 (8761) - http://www.bohemiancoding.com/sketch -->
    <title>GR</title>
    <desc>Created with Sketch.</desc>
    <defs></defs>
    <g id="Source" stroke="none" stroke-width="1" fill="none" fill-rule="evenodd" sketch:type="MSPage">
        <g id="Artboard-1" sketch:type="MSArtboardGroup" transform="translate(-599.000000, -247.000000)" stroke="#000000" stroke-width="0.5" fill="#71C837">
            <path d="M648.588,327.73 L651.975,328.106 L655.738,328.953 L656.961,331.775 L660.724,331.775 L664.864,329.988 L667.968,329.047 L675.024,327.636 L678.88,326.225 L681.514,323.403 L682.173,320.299 L683.489,315.407 C683.489,315.407 685.371,311.832 685.465,311.456 C685.559,311.08 686.312,308.352 686.312,308.352 L689.134,306.659 L692.05,306.377 L694.966,307.788 L697.035,311.08 L698.352,313.338 L700.139,314.373 L701.832,313.056 L704.56,310.798 L707.194,307.882 L709.076,306.095 L711.71,305.342 L716.695,305.154 L719.047,305.813 L720.27,302.426 L721.87,300.357 L724.598,297.253 L727.327,294.431 L730.378,293.73 L734.225,297.839 L735.34,297.231 L737.165,295.914 L739.191,295.61 L741.726,295.711 L744.564,296.725 L748.314,297.638 L753.991,298.347 L760.478,298.752 L764.736,299.766 L767.879,300.982 L772.744,303.618 L776.19,305.341 L776.9,304.733 L777.812,303.212 L778.014,301.286 L777.305,298.853 L780.853,298.751 L780.751,296.521 L779.737,294.494 L780.041,291.453 L781.765,287.196 L785.515,283.04 L789.469,276.147 L790.685,273.41 L792.814,272.396 L796.224,270.552 C795.617,269.638 794.472,268.669 793.837,267.769 C793.282,266.982 792.654,265.854 792.245,264.982 C791.378,263.135 790.743,260.451 789.856,258.613 C788.948,256.732 787.105,254.558 786.273,252.642 C785.927,251.845 785.959,250.579 785.533,249.888 L788.243,251.183 L791.832,251.033 L793.028,249.687 L794.224,247.743 L797.963,247.893 L800.654,249.837 L801.551,251.631 L804.392,251.93 L808.131,250.734 L809.477,249.538 L811.122,248.79 L814.861,249.687 L818.599,250.136 L822.038,248.79 L830.113,250.584 L835.796,253.874 L842.975,255.07 L848.359,255.669 L853.743,258.36 L857.332,261.949 L861.22,263.743 L864.81,264.64 L871.09,261.649 L871.689,264.939 L873.184,267.631 L874.081,270.921 L872.286,273.314 L870.492,279.595 L871.388,281.988 L871.688,286.474 L871.388,288.568 L872.884,290.063 L877.072,292.157 L883.053,296.045 L886.642,298.139 L894.12,297.242 L898.308,301.728 L902.196,302.326 L908.178,305.915 L911.168,311.897 L913.561,314.588 L918.047,314.289 L920.44,318.476 L931.806,319.075 L936.89,316.981 L941.078,313.093 L944.967,310.999 L952.145,311.298 L952.444,300.83 L953.94,297.839 L954.538,293.951 L956.632,291.858 L959.025,293.353 L962.315,293.951 L967.4,293.951 L970.39,291.858 L970.69,288.269 L970.091,285.577 L972.185,285.278 L974.578,281.689 L976.373,276.904 L977.27,272.118 L981.457,270.324 L985.943,269.128 L988.037,269.726 L993.72,276.007 L993.824,280.172 C994.304,280.448 995.251,280.203 995.881,280.448 C997.162,280.946 997.994,283.004 999.259,283.544 C1000.426,284.044 1002.273,283.435 1003.481,283.825 C1004.239,284.07 1005.141,284.699 1005.733,285.233 C1006.448,285.878 1007.294,286.895 1007.704,287.766 C1008.035,288.471 1008.105,289.537 1008.267,290.299 C1008.445,291.142 1008.83,293.114 1008.83,293.114 L1009.006,293.352 C1009.006,293.352 1008.618,294.359 1008.267,294.803 C1007.858,295.32 1006.988,295.693 1006.579,296.21 C1005.993,296.95 1005.558,298.164 1005.172,299.025 C1004.799,299.855 1004.325,300.974 1004.046,301.84 C1003.724,302.834 1003.393,304.191 1003.201,305.217 C1003.076,305.886 1003.175,306.838 1002.92,307.469 L1004.041,309.953 L1003.592,313.243 L1004.191,315.187 L1003.892,317.58 L1002.995,321.468 L1001.2,324.608 L1000.153,327.599 L1000.302,330.141 L998.657,332.383 L996.414,333.879 L994.619,335.524 L994.171,337.768 L994.769,341.207 L996.415,343.6 L998.359,346.741 L998.209,348.236 L995.219,349.882 L991.33,352.275 L988.788,354.518 L988.189,356.163 L989.086,358.406 L990.881,359.752 L991.628,361.995 L985.048,368.276 L983.702,369.921 L984.151,376.202 L985.347,377.848 L986.842,383.531 L987.739,386.671 L989.534,387.868 L992.375,387.419 L997.16,386.223 L1001.797,388.018 L1003.74,390.411 L1007.03,394 L1007.179,400.879 L1006.283,406.113 L1004.637,409.552 L1003.59,413.29 L1000.899,417.029 L998.207,416.729 L996.264,415.533 L992.674,414.637 L987.441,415.085 L984.599,414.188 L978.468,413.889 L975.626,414.936 L968.148,415.085 L967.55,413.141 L966.354,410.898 L965.008,407.908 L962.166,406.262 L957.978,405.963 L956.333,405.364 L954.538,403.719 L954.837,401.027 L957.231,399.084 L957.081,395.645 L956.633,393.999 L954.539,391.308 L953.492,388.466 L953.044,387.12 L950.352,386.971 L949.456,388.914 L949.456,389.961 L948.559,391.607 L947.063,391.607 L944.521,390.56 L942.278,390.411 L938.988,391.308 L938.091,393.402 L935.549,394.149 L933.904,395.795 L930.015,396.991 L928.968,397.589 L926.277,396.991 L922.987,397.589 L921.491,400.879 L922.239,405.665 L919.248,407.011 L917.005,408.954 L916.109,412.095 L911.472,416.881 L910.874,419.572 L910.874,424.208 L910.575,427.947 L909.678,429.592 L907.883,433.031 L908.631,438.863 L909.379,441.256 L908.631,443.65 L908.332,447.987 L910.575,451.276 L912.369,454.716 L914.313,455.164 L917.155,456.51 L919.398,456.211 L923.435,455.763 C923.435,455.763 925.23,455.463 926.277,455.015 C927.324,454.566 929.716,453.669 929.716,453.669 L930.463,455.612 L931.51,457.855 L934.202,460.846 L934.95,463.089 L934.351,464.435 L930.462,467.426 L927.621,468.622 L925.826,470.268 L925.677,470.866 L924.833,474.42 L923.775,478.438 L922.506,482.457 L923.141,485.841 L925.255,490.282 L928.216,494.301 L930.754,496.415 L933.715,500.222 L935.618,503.607 L937.733,507.414 L934.137,511.221 L929.696,516.931 L927.793,517.354 L924.409,517.143 L920.602,516.085 L917.218,516.296 L915.526,518.623 L914.469,519.892 L913.199,518.412 L911.085,516.932 L911.296,513.125 L911.931,507.838 L910.873,504.031 L906.221,500.858 L900.722,498.532 L899.03,497.474 L899.453,493.245 L899.453,490.072 L897.973,488.169 L897.762,483.94 L899.242,483.305 L898.819,478.653 L895.012,475.057 L893.109,472.308 L891.205,469.559 L889.091,467.655 L886.553,468.925 L883.804,470.405 L880.208,469.559 L876.824,470.405 L873.863,471.885 L871.96,472.943 L869.422,474 L863.077,474 L859.059,475.27 L857.367,478.442 L854.829,480.134 L852.503,481.614 L850.177,482.037 L845.524,479.711 L842.14,477.596 L838.756,479.711 L837.276,482.037 L836.853,487.959 L837.065,491.131 L836.007,494.092 L834.104,495.572 L832.624,494.937 L828.605,494.091 L824.165,495.783 L819.512,497.052 L816.34,497.475 L813.802,496.629 L808.938,496.417 L805.554,494.514 L799.42,491.553 L796.248,488.381 L793.499,484.574 L792.652,481.824 L790.961,476.96 L788.212,475.057 L784.616,472.731 L781.232,470.828 L782.078,467.867 L782.501,463.003 L779.752,457.293 L778.694,453.697 L778.694,449.045 L779.117,445.661 L780.809,441.22 L781.867,435.51 L781.655,431.914 L779.752,429.376 L774.888,428.953 L773.196,430.433 L770.447,433.606 L770.024,436.778 L768.332,439.316 L767.909,440.374 L765.16,439.739 L763.468,437.836 L759.661,434.663 L759.661,431.914 L759.45,428.953 L755.854,427.684 L749.721,428.53 L744.645,429.376 L739.993,431.279 L736.82,434.663 L737.032,438.259 L737.667,443.546 L736.609,445.872 L733.225,447.987 L730.898,450.102 L731.11,454.966 L738.512,461.522 L738.512,470.616 L739.146,476.538 L741.05,479.922 L741.473,486.479 L738.935,491.554 L734.916,499.802 L730.897,504.666 L730.474,511.857 L730.263,514.183 L728.148,515.241 L724.976,517.778 L724.553,520.105 L722.649,523.065 L721.169,524.335 L718.843,528.354 L718.209,531.738 L717.997,534.487 L712.958,535.379 L709.079,531.676 L704.939,525.844 L701.365,522.457 L696.473,518.883 L695.72,515.12 L696.473,510.04 L694.592,504.96 L691.581,499.881 L690.265,496.307 L691.957,493.296 L693.65,488.404 L693.462,483.136 L694.591,480.126 L696.848,478.244 L698.917,474.857 L697.789,469.025 L697.977,464.698 L699.482,460.748 L700.046,457.737 L697.225,454.35 L696.472,450.964 L698.354,447.201 L698.824,441.933 L695.532,438.264 L692.052,437.135 L689.888,436.947 L686.596,433.655 L684.15,429.986 L681.422,423.778 L681.046,418.792 L681.893,411.549 L684.056,409.95 L687.067,406.752 L686.503,404.683 L685.468,404.119 L681.612,403.178 L678.508,399.133 L676.626,397.252 L672.111,398.569 L668.348,398.192 L667.784,395.84 L667.408,392.642 L666.937,387.939 L666.373,384.741 L665.715,385.493 L664.022,386.717 L658.095,387.187 L654.803,389.821 L653.674,392.267 L655.65,396.312 L656.497,398.005 L656.402,400.639 L653.863,403.084 L651.134,404.966 L648.406,406.189 L644.549,406.847 L640.693,407.882 L638.717,407.882 L637.212,407.035 L633.449,409.857 L630.062,409.293 L626.77,407.411 L624.512,406.188 L619.903,405.341 L616.329,406.094 L612.715,405.93 L608.591,404.067 L604.667,403.185 L605.981,396.969 L602.594,391.889 L599.773,388.126 L599.773,381.918 L602.218,378.531 L604.1,377.402 L602.03,372.887 L601.654,370.629 L603.347,367.055 L606.169,365.362 L611.248,365.174 L614.635,361.6 L618.774,359.342 L620.279,354.262 L620.843,351.628 L624.23,351.252 L626.112,354.45 L629.686,354.638 L632.508,352.004 L633.448,347.676 L636.646,344.479 L638.151,340.151 L636.835,335.26 L638.904,333.567 L641.726,332.25 L644.547,331.874 L648.64,327.711" id="GR" sketch:type="MSShapeGroup"></path>
        </g>
    </g>
</svg>