<?xml version="1.0" encoding="UTF-8" standalone="no"?>
<svg width="164px" height="115px" viewBox="0 0 164 115" version="1.1" xmlns="http://www.w3.org/2000/svg" xmlns:xlink="http://www.w3.org/1999/xlink" xmlns:sketch="http://www.bohemiancoding.com/sketch/ns">
    <!-- Generator: Sketch 3.1.1 (8761) - http://www.bohemiancoding.com/sketch -->
    <title>JU</title>
    <desc>Created with Sketch.</desc>
    <defs></defs>
    <g id="Source" stroke="none" stroke-width="1" fill="none" fill-rule="evenodd" sketch:type="MSPage">
        <g id="Artboard-1" sketch:type="MSArtboardGroup" transform="translate(-196.000000, -102.000000)" stroke="#000000" stroke-width="0.5" fill="#71C837">
            <path d="M308.345,124.471 C306.567,124.245 304.199,124.532 302.41,124.661 C301.332,124.739 299.889,124.856 298.828,125.059 C298.159,125.186 297.297,125.484 296.639,125.656 C295.924,125.843 294.954,126.031 294.25,126.253 C293.457,126.503 292.41,126.883 291.662,127.248 C291.036,127.553 290.204,127.993 289.672,128.442 C289.252,128.797 288.804,129.391 288.387,129.921 L285.074,127.998 L283.382,125.672 L279.153,126.095 L274.923,124.192 L270.905,122.923 L269.636,121.865 L269.636,117.636 L271.116,114.252 L273.231,111.08 L273.231,107.696 L270.059,108.965 L266.675,107.907 L264.983,105.792 L261.811,103.465 L258.85,103.465 L255.255,104.945 L251.237,106.848 L245.315,105.579 L240.028,104.31 L236.433,102.618 L231.145,103.041 L229.03,104.31 L227.973,106.213 L227.338,108.963 L229.876,112.981 L231.356,116.788 L230.298,118.903 L227.337,119.749 L223.742,122.287 L221.839,123.979 L219.301,124.613 L218.032,126.517 L216.975,131.169 L215.283,132.015 L212.745,134.13 L212.111,138.149 L209.361,140.687 L208.092,143.859 L208.938,147.878 L218.244,148.301 L222.262,148.512 L226.069,147.032 L229.241,145.552 L233.894,144.283 L238.547,144.706 L240.45,146.398 L242.777,148.724 L245.315,153.377 L243.835,155.069 L243.624,157.184 L242.355,159.299 L237.914,160.357 L235.587,162.472 L234.318,165.433 L233.819,168.114 C233.432,168.314 231.796,169.323 231.302,169.64 C230.705,170.024 229.786,170.344 229.088,170.471 C228.353,170.604 227.306,170.235 226.597,170.471 C225.809,170.733 225.089,171.695 224.383,172.131 C223.909,172.424 223.258,172.807 222.722,172.962 C221.921,173.194 220.606,172.718 219.954,173.238 C219.749,173.402 219.72,173.809 219.678,174.069 C219.625,174.397 219.551,174.869 219.678,175.176 C219.903,175.718 220.837,176.017 221.061,176.56 C221.538,177.71 221.113,179.467 221.061,180.711 C221.019,181.71 220.764,183.032 220.785,184.032 C220.799,184.701 221.075,185.577 221.061,186.246 C221.051,186.751 221.052,187.478 220.785,187.907 C220.407,188.513 219.374,188.808 218.847,189.291 C218.283,189.808 217.735,190.694 217.187,191.228 C215.961,192.422 214.137,193.81 212.759,194.826 C211.554,195.714 209.711,196.582 208.608,197.594 C207.433,198.672 206.175,200.421 205.287,201.745 C204.811,202.455 204.363,203.515 203.903,204.236 C203.296,205.188 202.55,206.55 201.689,207.28 C201.122,207.76 200.198,208.217 199.475,208.387 C198.99,208.501 198.275,208.196 197.814,208.387 C197.272,208.612 196.43,209.183 196.43,209.77 C196.43,210.357 197.239,211.036 197.814,211.154 C198.252,211.244 198.808,210.382 199.198,210.601 C199.638,210.849 199.433,211.758 199.475,212.261 C199.516,212.758 199.671,213.464 199.469,213.979 L204.097,213.9 L206.629,216.636 L212.433,215.964 L215.704,213.86 L220.456,209.653 L223.183,207.005 L229.103,207.628 L232.219,207.316 L233.777,204.823 L234.089,202.33 L240.009,201.395 L243.748,196.41 L246.864,189.555 L247.487,186.128 L254.965,187.686 L268.052,186.751 L266.805,180.208 L270.544,178.027 L270.232,173.664 L271.79,170.237 L275.529,169.614 L279.58,169.614 L282.696,173.041 L288.616,174.288 L295.783,173.976 L302.015,172.729 L307.312,169.925 L312.609,165.563 L316.348,160.577 L317.907,161.2 L318.842,166.186 L323.204,165.874 L332.24,166.809 L337.537,167.433 L343.769,169.614 L347.197,167.121 L350.312,163.382 L356.856,163.382 L359.019,163.648 L359.349,160.811 L352.572,160.889 L351.871,159.331 L350.391,155.748 L350.001,152.71 L350.001,148.27 L345.639,147.803 L340.186,149.205 L333.955,147.803 L331.034,142.992 L329.203,143.284 L326.282,142.739 L324.684,140.324 L319.465,135.65 L318.374,133.703 L317.996,131.638 L312.376,131.133 L308.247,127.316 L308.345,124.471 L308.345,124.471 Z" id="JU" sketch:type="MSShapeGroup"></path>
        </g>
    </g>
</svg>