<?xml version="1.0" encoding="UTF-8" standalone="no"?>
<svg width="16px" height="19px" viewBox="0 0 16 19" version="1.1" xmlns="http://www.w3.org/2000/svg" xmlns:xlink="http://www.w3.org/1999/xlink" xmlns:sketch="http://www.bohemiancoding.com/sketch/ns">
    <!-- Generator: Sketch 3.1.1 (8761) - http://www.bohemiancoding.com/sketch -->
    <title>lake_sempach</title>
    <desc>Created with Sketch.</desc>
    <defs></defs>
    <g id="Source" stroke="none" stroke-width="1" fill="none" fill-rule="evenodd" sketch:type="MSPage">
        <g id="Artboard-1" sketch:type="MSArtboardGroup" transform="translate(-482.000000, -209.000000)" stroke="#000000" stroke-width="0.2" fill="#D3EBFA" opacity="0.87">
            <path d="M495.586,227.702 C496.038,227.642 496.46,227.065 496.723,226.692 C496.957,226.359 497.132,225.826 497.228,225.429 C497.326,225.022 497.35,224.459 497.354,224.04 C497.36,223.508 497.369,222.785 497.228,222.272 C497.071,221.7 496.709,220.972 496.344,220.504 C495.914,219.954 495.143,219.397 494.576,218.989 C494.038,218.601 493.214,218.247 492.681,217.852 C491.82,217.213 490.837,216.159 490.03,215.453 C489.321,214.834 488.17,214.204 487.631,213.433 C487.377,213.069 487.32,212.442 487.126,212.044 C486.97,211.723 486.717,211.314 486.494,211.034 C486.261,210.741 485.918,210.366 485.61,210.15 C485.028,209.741 484.161,208.994 483.464,209.14 C483.07,209.223 482.722,209.773 482.58,210.15 C482.287,210.93 482.568,212.094 482.58,212.928 C482.6,214.217 482.196,216.038 482.707,217.221 C482.94,217.762 483.732,218.145 484.096,218.61 C484.503,219.132 484.782,220.018 485.233,220.504 C485.769,221.082 486.732,221.569 487.379,222.019 C488.095,222.517 489.055,223.172 489.777,223.661 C490.23,223.967 490.848,224.353 491.293,224.671 C491.798,225.033 492.447,225.547 492.935,225.934 C493.357,226.268 493.872,226.778 494.324,227.07 C494.679,227.301 495.166,227.757 495.586,227.702 L495.586,227.702 Z" id="lake_sempach" sketch:type="MSShapeGroup"></path>
        </g>
    </g>
</svg>