<?xml version="1.0" encoding="UTF-8" standalone="no"?>
<svg width="17px" height="39px" viewBox="0 0 17 39" version="1.1" xmlns="http://www.w3.org/2000/svg" xmlns:xlink="http://www.w3.org/1999/xlink" xmlns:sketch="http://www.bohemiancoding.com/sketch/ns">
    <!-- Generator: Sketch 3.1.1 (8761) - http://www.bohemiancoding.com/sketch -->
    <title>lake_zug</title>
    <desc>Created with Sketch.</desc>
    <defs></defs>
    <g id="Source" stroke="none" stroke-width="1" fill="none" fill-rule="evenodd" sketch:type="MSPage">
        <g id="Artboard-1" sketch:type="MSArtboardGroup" transform="translate(-556.000000, -207.000000)" stroke="#000000" stroke-width="0.2" fill="#D3EBFA" opacity="0.87">
            <path d="M570.59,245.253 C571.074,245.24 571.629,244.673 571.853,244.243 C572.133,243.704 571.999,242.829 571.979,242.222 C571.94,241.038 571.676,239.474 571.474,238.308 C571.323,237.429 571.297,236.17 570.843,235.404 C570.459,234.757 569.478,234.297 568.948,233.762 C568.249,233.055 567.409,232.024 566.802,231.237 C566.52,230.871 566.114,230.393 565.918,229.974 C565.67,229.441 565.444,228.667 565.413,228.08 C565.386,227.582 565.53,226.918 565.665,226.438 C565.799,225.964 566.074,225.362 566.297,224.923 C566.496,224.528 566.874,224.064 567.055,223.66 C567.264,223.189 567.409,222.511 567.56,222.018 C567.711,221.526 567.947,220.878 568.065,220.376 C568.224,219.703 568.319,218.783 568.444,218.104 C568.548,217.534 568.673,216.77 568.823,216.21 C568.915,215.862 569.058,215.403 569.202,215.073 C569.391,214.638 569.842,214.144 569.959,213.684 C570.016,213.464 569.959,213.153 569.959,212.926 C569.959,212.661 570.07,212.283 569.959,212.042 C569.813,211.725 569.371,211.471 569.075,211.284 C568.76,211.085 568.293,210.897 567.939,210.779 C567.127,210.509 565.981,210.386 565.161,210.148 C564.62,209.991 563.915,209.728 563.393,209.517 C562.968,209.345 562.387,209.135 562.004,208.886 C561.621,208.637 561.32,207.928 560.867,207.876 C560.395,207.822 559.877,208.377 559.478,208.634 C559.159,208.839 558.768,209.161 558.467,209.391 C558.124,209.653 557.63,209.963 557.331,210.275 C557.104,210.51 556.811,210.853 556.699,211.159 C556.542,211.587 556.522,212.221 556.573,212.674 C556.657,213.424 557.242,214.323 557.331,215.073 C557.393,215.601 557.254,216.312 557.204,216.841 C557.143,217.487 556.946,218.339 556.952,218.987 C556.956,219.56 556.871,220.414 557.204,220.881 C557.401,221.157 557.998,221.125 558.215,221.386 C558.391,221.598 558.482,221.994 558.467,222.27 C558.446,222.678 558.103,223.15 557.962,223.533 C557.838,223.87 557.609,224.311 557.583,224.67 C557.535,225.322 557.719,226.21 557.962,226.816 C558.114,227.196 558.46,227.635 558.72,227.952 C558.957,228.242 559.276,228.654 559.604,228.836 C560.046,229.081 560.75,229.117 561.246,229.215 C561.698,229.305 562.335,229.293 562.761,229.468 C562.922,229.533 563.165,229.64 563.235,229.799 C563.317,229.987 563.238,230.297 563.14,230.478 C562.925,230.88 562.351,231.192 562.004,231.488 C561.594,231.838 561.014,232.263 560.614,232.624 C560.337,232.876 559.985,233.233 559.73,233.508 C559.493,233.764 559.117,234.073 558.972,234.392 C558.862,234.636 558.808,235.011 558.846,235.276 C558.911,235.729 559.191,236.308 559.478,236.665 C559.833,237.108 560.515,237.494 560.993,237.801 C561.392,238.058 562.012,238.262 562.383,238.559 C562.696,238.81 562.761,239.316 563.267,239.569 C563.772,239.821 564.431,240.545 564.782,241.084 C565.07,241.526 565.126,242.283 565.414,242.725 C565.53,242.905 565.74,243.112 565.919,243.23 C566.26,243.455 566.796,243.601 567.182,243.735 C567.555,243.865 568.072,243.984 568.445,244.114 C568.83,244.248 569.349,244.424 569.708,244.619 C569.992,244.778 570.264,245.262 570.59,245.253 L570.59,245.253 Z" id="lake_zug" sketch:type="MSShapeGroup"></path>
        </g>
    </g>
</svg>