<?xml version="1.0" encoding="UTF-8" standalone="no"?>
<svg width="76px" height="63px" viewBox="0 0 76 63" version="1.1" xmlns="http://www.w3.org/2000/svg" xmlns:xlink="http://www.w3.org/1999/xlink" xmlns:sketch="http://www.bohemiancoding.com/sketch/ns">
    <!-- Generator: Sketch 3.1.1 (8761) - http://www.bohemiancoding.com/sketch -->
    <title>lake_lucerne</title>
    <desc>Created with Sketch.</desc>
    <defs></defs>
    <g id="Source" stroke="none" stroke-width="1" fill="none" fill-rule="evenodd" sketch:type="MSPage">
        <g id="Artboard-1" sketch:type="MSArtboardGroup" transform="translate(-517.000000, -241.000000)" stroke="#000000" stroke-width="0.2" fill="#D3EBFA" opacity="0.87">
            <path d="M517.728,281.504 C517.628,281.232 518.067,280.912 518.264,280.7 C518.472,280.476 518.82,280.254 519.068,280.075 C519.381,279.849 519.846,279.613 520.139,279.361 C520.441,279.101 520.767,278.676 521.032,278.379 C521.221,278.166 521.408,277.802 521.657,277.665 C521.966,277.495 522.471,277.551 522.818,277.486 C523.303,277.395 523.964,277.308 524.424,277.129 C524.973,276.915 525.6,276.42 526.121,276.147 C526.566,275.914 527.272,275.778 527.639,275.433 C527.883,275.203 528.112,274.781 528.174,274.451 C528.215,274.239 528.242,273.885 528.085,273.737 C527.792,273.461 527.146,273.698 526.746,273.648 C526.313,273.593 525.687,273.61 525.317,273.38 C525.089,273.238 524.872,272.918 524.781,272.666 C524.599,272.162 524.671,271.416 524.692,270.88 C524.716,270.259 524.894,269.444 524.96,268.826 C524.994,268.505 525.117,268.07 525.049,267.755 C524.991,267.485 524.69,267.213 524.603,266.951 C524.476,266.566 524.358,266.012 524.424,265.612 C524.484,265.258 524.712,264.8 524.96,264.541 C525.15,264.342 525.491,264.139 525.764,264.094 C526.059,264.046 526.485,264.126 526.746,264.273 C527.027,264.431 527.273,264.814 527.46,265.077 C527.619,265.302 527.683,265.72 527.906,265.881 C528.149,266.055 528.589,266.059 528.888,266.059 C529.35,266.06 529.99,265.993 530.406,265.791 C530.697,265.65 531.101,265.38 531.21,265.077 C531.438,264.438 530.931,263.518 530.853,262.845 C530.767,262.098 530.911,261.059 530.674,260.345 C530.565,260.013 530.222,259.667 530.049,259.363 C529.961,259.207 529.737,259.002 529.781,258.827 C529.861,258.51 530.523,258.492 530.674,258.202 C530.872,257.822 530.784,257.187 530.674,256.773 C530.564,256.356 530.19,255.889 529.96,255.523 C529.684,255.083 529.284,254.515 528.978,254.094 C528.72,253.739 528.398,253.242 528.085,252.933 C527.704,252.557 527.033,252.243 526.656,251.862 C526.305,251.508 525.795,251.006 525.674,250.523 C525.628,250.339 525.692,250.073 525.764,249.898 C525.867,249.65 526.056,249.296 526.299,249.184 C526.69,249.004 527.309,249.179 527.728,249.273 C528.291,249.4 529.024,249.683 529.514,249.987 C530.094,250.347 530.741,251.009 531.21,251.505 C531.682,252.003 532.303,252.693 532.639,253.291 C532.792,253.564 532.837,254.003 532.996,254.273 C533.266,254.731 533.7,255.34 534.156,255.612 C534.581,255.865 535.279,256.064 535.763,255.969 C536.179,255.888 536.588,255.425 536.923,255.166 C537.51,254.713 538.265,254.073 538.798,253.559 C539.481,252.901 540.294,251.931 540.942,251.238 C541.394,250.753 541.959,250.065 542.46,249.631 C542.881,249.266 543.558,248.925 543.978,248.559 C544.421,248.174 544.887,247.531 545.318,247.131 C545.848,246.638 546.625,246.061 547.193,245.613 C547.538,245.341 548.104,245.082 548.353,244.72 C548.512,244.49 548.471,244.064 548.622,243.827 C548.814,243.522 549.245,243.263 549.515,243.023 C549.728,242.834 550.003,242.571 550.229,242.398 C550.459,242.222 550.752,241.788 551.033,241.862 C551.207,241.908 551.25,242.226 551.301,242.398 C551.433,242.837 551.53,243.461 551.48,243.916 C551.426,244.396 551.109,244.98 550.945,245.434 C550.604,246.374 550.16,247.633 549.784,248.559 C549.41,249.481 548.917,250.718 548.445,251.595 C548.234,251.988 547.907,252.488 547.641,252.845 C547.346,253.241 546.932,253.76 546.57,254.095 C546.302,254.343 545.874,254.585 545.588,254.809 C545.23,255.091 544.763,255.482 544.427,255.791 C544.204,255.996 543.841,256.23 543.713,256.505 C543.577,256.797 543.52,257.271 543.624,257.576 C543.765,257.989 544.236,258.416 544.605,258.647 C544.842,258.795 545.221,258.875 545.499,258.915 C546.082,259 546.894,259.066 547.463,258.915 C547.88,258.804 548.352,258.438 548.713,258.201 C549.049,257.98 549.424,257.574 549.784,257.397 C550.058,257.263 550.468,257.19 550.766,257.129 C551.349,257.01 552.15,256.733 552.73,256.861 C553.166,256.957 553.639,257.378 553.98,257.665 C554.343,257.97 554.7,258.508 555.051,258.826 C555.35,259.095 555.762,259.453 556.123,259.63 C556.397,259.764 556.825,259.776 557.104,259.898 C557.799,260.202 558.699,260.714 559.248,261.237 C559.554,261.529 559.831,262.036 560.051,262.398 C560.32,262.838 560.685,263.43 560.855,263.916 C561,264.328 561.132,264.909 561.124,265.344 C561.116,265.701 560.981,266.17 560.855,266.505 C560.696,266.931 560.074,267.394 560.141,267.844 C560.18,268.107 560.569,268.292 560.766,268.469 C561.022,268.698 561.358,269.02 561.659,269.183 C562.031,269.386 562.601,269.482 562.999,269.63 C563.46,269.801 564.032,270.166 564.517,270.255 C565.466,270.429 566.792,270.385 567.731,270.166 C568.105,270.079 568.508,269.644 568.892,269.63 C569.349,269.613 569.872,270.074 570.321,270.166 C570.898,270.284 571.699,270.186 572.285,270.255 C573.125,270.355 574.208,270.818 575.053,270.791 C575.69,270.77 576.528,270.52 577.107,270.255 C577.581,270.039 578.119,269.583 578.536,269.273 C578.811,269.069 579.147,268.754 579.429,268.559 C579.814,268.292 580.334,267.931 580.769,267.756 C581.1,267.622 581.58,267.561 581.929,267.488 C582.783,267.31 583.914,266.961 584.786,266.952 C585.275,266.947 585.983,266.954 586.393,267.22 C586.879,267.535 587.11,268.368 587.464,268.827 C587.661,269.082 587.992,269.367 588.178,269.631 C588.371,269.905 588.525,270.336 588.714,270.613 C588.972,270.989 589.522,271.352 589.696,271.774 C589.943,272.37 589.858,273.272 589.875,273.917 C589.896,274.748 589.747,275.855 589.785,276.685 C589.815,277.332 589.947,278.189 590.053,278.828 C590.183,279.611 590.421,280.642 590.589,281.417 C590.717,282.007 590.968,282.781 591.035,283.381 C591.107,284.02 591.122,284.887 591.035,285.524 C590.968,286.02 590.728,286.651 590.589,287.131 C590.409,287.749 590.086,288.552 589.964,289.184 C589.847,289.791 589.615,290.643 589.785,291.238 C589.859,291.495 590.154,291.743 590.321,291.952 C590.605,292.308 591.004,292.768 591.302,293.113 C591.514,293.357 591.849,293.641 592.017,293.917 C592.211,294.235 592.373,294.715 592.463,295.078 C592.625,295.732 592.677,296.638 592.731,297.31 C592.785,297.978 593.009,298.899 592.821,299.542 C592.728,299.855 592.464,300.248 592.196,300.435 C591.764,300.736 590.922,300.568 590.5,300.882 C590.171,301.125 590.014,301.703 589.785,302.043 C589.507,302.456 589.28,303.237 588.803,303.382 C588.503,303.473 588.059,303.23 587.822,303.025 C587.522,302.766 587.357,302.226 587.197,301.864 C587.002,301.423 586.788,300.812 586.661,300.346 C586.475,299.662 586.271,298.732 586.215,298.025 C586.145,297.144 586.262,295.962 586.304,295.079 C586.324,294.677 586.468,294.136 586.394,293.74 C586.312,293.304 585.943,292.808 585.769,292.401 C585.566,291.925 585.367,291.261 585.144,290.794 C584.958,290.404 584.562,289.955 584.429,289.544 C584.273,289.057 584.212,288.357 584.251,287.847 C584.291,287.323 584.561,286.659 584.697,286.151 C584.855,285.561 585.081,284.778 585.232,284.187 C585.431,283.413 585.644,282.368 585.857,281.598 C585.977,281.165 586.211,280.609 586.303,280.17 C586.452,279.458 586.568,278.487 586.572,277.759 C586.576,276.951 586.405,275.882 586.303,275.08 C586.192,274.193 586.282,272.921 585.857,272.134 C585.686,271.817 585.31,271.433 584.964,271.33 C584.626,271.229 584.125,271.365 583.803,271.509 C583.265,271.75 582.807,272.484 582.285,272.759 C581.52,273.162 580.275,273.146 579.517,273.562 C578.985,273.855 578.497,274.554 577.999,274.901 C577.674,275.127 577.196,275.359 576.838,275.526 C576.185,275.832 575.283,276.171 574.606,276.419 C573.89,276.681 572.922,276.992 572.196,277.222 C571.396,277.475 570.319,277.78 569.517,278.026 C569.087,278.157 568.517,278.34 568.088,278.472 C567.473,278.662 566.669,278.988 566.034,279.097 C565.453,279.197 564.649,279.296 564.07,279.186 C563.81,279.137 563.517,278.911 563.266,278.829 C562.432,278.556 561.219,278.541 560.409,278.204 C559.909,277.996 559.38,277.457 558.891,277.222 C558.28,276.929 557.408,276.665 556.748,276.508 C555.852,276.295 554.624,276.183 553.712,276.061 C553.043,275.972 552.133,275.963 551.48,275.793 C551.003,275.668 550.383,275.424 549.962,275.168 C549.572,274.931 549.137,274.495 548.801,274.186 C548.578,273.981 548.196,273.755 548.087,273.472 C547.915,273.021 548.024,272.323 548.176,271.865 C548.299,271.498 548.613,271.062 548.891,270.794 C549.185,270.51 549.677,270.245 550.051,270.08 C550.587,269.844 551.352,269.654 551.926,269.544 C552.455,269.443 553.181,269.455 553.712,269.365 C554.282,269.269 555.046,269.123 555.587,268.919 C556.013,268.758 556.712,268.606 556.926,268.205 C557.053,267.968 557.04,267.489 556.837,267.312 C556.252,266.801 555.024,267.388 554.248,267.401 C553.364,267.416 552.185,267.363 551.301,267.401 C550.684,267.428 549.865,267.553 549.248,267.58 C548.525,267.611 547.554,267.676 546.837,267.58 C546.232,267.499 545.48,267.11 544.873,267.044 C543.779,266.924 542.31,267.253 541.212,267.222 C540.7,267.208 540.026,267.071 539.516,267.044 C538.847,267.009 537.911,266.807 537.284,267.044 C536.716,267.259 536.194,267.952 535.766,268.383 C535.392,268.76 534.924,269.297 534.605,269.722 C534.071,270.436 533.507,271.49 532.999,272.222 C532.77,272.552 532.419,272.96 532.195,273.294 C531.759,273.942 531.295,274.88 530.855,275.526 C530.534,276 530.033,276.581 529.695,277.044 C529.253,277.65 528.849,278.625 528.266,279.097 C527.836,279.445 527.078,279.596 526.57,279.811 C526.007,280.05 525.233,280.323 524.695,280.615 C524.27,280.845 523.8,281.32 523.355,281.508 C523.002,281.657 522.485,281.723 522.105,281.776 C521.707,281.832 521.168,281.852 520.766,281.865 C520.231,281.883 519.511,281.939 518.98,281.865 C518.592,281.807 517.862,281.87 517.728,281.504 L517.728,281.504 Z" id="lake_lucerne" sketch:type="MSShapeGroup"></path>
        </g>
    </g>
</svg>