<?xml version="1.0" encoding="UTF-8" standalone="no"?>
<svg width="46px" height="10px" viewBox="0 0 46 10" version="1.1" xmlns="http://www.w3.org/2000/svg" xmlns:xlink="http://www.w3.org/1999/xlink" xmlns:sketch="http://www.bohemiancoding.com/sketch/ns">
    <!-- Generator: Sketch 3.1.1 (8761) - http://www.bohemiancoding.com/sketch -->
    <title>lake_walen</title>
    <desc>Created with Sketch.</desc>
    <defs></defs>
    <g id="Source" stroke="none" stroke-width="1" fill="none" fill-rule="evenodd" sketch:type="MSPage">
        <g id="Artboard-1" sketch:type="MSArtboardGroup" transform="translate(-700.000000, -221.000000)" stroke="#000000" stroke-width="0.2" fill="#D3EBFA" opacity="0.87">
            <path d="M722.906,229.986 C723.658,229.973 724.656,230.109 725.406,230.165 C726.103,230.216 727.032,230.402 727.727,230.343 C728.278,230.297 728.966,229.976 729.513,229.897 C730.123,229.809 730.95,229.796 731.567,229.808 C732.239,229.82 733.136,230.098 733.798,229.987 C734.26,229.909 734.774,229.477 735.227,229.362 C735.54,229.283 735.984,229.201 736.298,229.273 C736.661,229.355 737.005,229.823 737.37,229.898 C737.793,229.985 738.367,229.739 738.798,229.719 C739.628,229.681 740.741,229.91 741.567,229.808 C741.954,229.76 742.441,229.556 742.817,229.451 C743.111,229.369 743.558,229.371 743.798,229.183 C744.016,229.013 744.079,228.6 744.245,228.38 C744.427,228.138 744.853,227.949 744.959,227.666 C745.091,227.313 745.05,226.746 744.87,226.416 C744.678,226.063 744.157,225.793 743.798,225.612 C743.299,225.36 742.565,225.165 742.013,225.076 C741.061,224.923 739.762,224.942 738.798,224.987 C737.909,225.029 736.737,225.434 735.852,225.344 C735.347,225.293 734.737,224.936 734.246,224.808 C733.823,224.699 733.251,224.58 732.817,224.54 C732.31,224.493 731.617,224.429 731.121,224.54 C730.63,224.65 730.092,225.137 729.602,225.254 C728.743,225.46 727.54,225.33 726.656,225.343 C726.361,225.348 725.966,225.384 725.674,225.343 C725.288,225.289 724.798,225.098 724.424,224.986 C723.994,224.858 723.414,224.703 722.996,224.54 C722.416,224.312 721.725,223.798 721.121,223.647 C720.549,223.504 719.729,223.699 719.156,223.558 C718.725,223.453 718.253,223.016 717.817,222.933 C717.395,222.853 716.809,222.937 716.388,223.022 C715.914,223.119 715.351,223.513 714.87,223.558 C714.518,223.591 714.045,223.486 713.709,223.38 C713.424,223.289 713.11,222.989 712.816,222.933 C712.525,222.878 712.128,222.997 711.834,223.022 C711.191,223.078 710.324,223.323 709.691,223.201 C709.456,223.156 709.191,222.951 708.976,222.844 C708.655,222.683 708.237,222.446 707.905,222.308 C707.749,222.243 707.534,222.169 707.37,222.13 C706.843,222.004 706.123,221.914 705.584,221.862 C704.97,221.803 704.145,221.719 703.53,221.773 C703.038,221.816 702.348,221.878 701.923,222.13 C701.679,222.275 701.493,222.636 701.298,222.844 C701.221,222.927 701.097,223.02 701.03,223.112 C700.855,223.355 700.692,223.726 700.584,224.005 C700.514,224.187 700.332,224.449 700.405,224.63 C700.487,224.83 700.841,224.883 701.03,224.987 C701.481,225.236 702.073,225.591 702.548,225.791 C703.041,225.997 703.722,226.222 704.245,226.327 C704.825,226.444 705.621,226.437 706.209,226.506 C706.773,226.572 707.531,226.643 708.084,226.774 C708.579,226.891 709.209,227.149 709.691,227.31 C710.254,227.498 710.987,227.806 711.566,227.935 C712.224,228.083 713.132,228.092 713.797,228.203 C714.176,228.266 714.677,228.372 715.047,228.471 C715.645,228.63 716.426,228.898 717.012,229.096 C717.686,229.325 718.553,229.73 719.244,229.9 C719.821,230.042 720.613,230.159 721.208,230.168 C721.722,230.172 722.395,229.995 722.906,229.986 L722.906,229.986 Z" id="lake_walen" sketch:type="MSShapeGroup"></path>
        </g>
    </g>
</svg>