<?xml version="1.0" encoding="UTF-8" standalone="no"?>
<svg width="8px" height="24px" viewBox="0 0 8 24" version="1.1" xmlns="http://www.w3.org/2000/svg" xmlns:xlink="http://www.w3.org/1999/xlink" xmlns:sketch="http://www.bohemiancoding.com/sketch/ns">
    <!-- Generator: Sketch 3.1.1 (8761) - http://www.bohemiancoding.com/sketch -->
    <title>lake_hallwil</title>
    <desc>Created with Sketch.</desc>
    <defs></defs>
    <g id="Source" stroke="none" stroke-width="1" fill="none" fill-rule="evenodd" sketch:type="MSPage">
        <g id="Artboard-1" sketch:type="MSArtboardGroup" transform="translate(-500.000000, -161.000000)" stroke="#000000" stroke-width="0.2" fill="#D3EBFA" opacity="0.87">
            <path d="M506.318,184.265 C506.819,183.711 507.129,182.711 507.329,181.992 C507.492,181.404 507.564,180.582 507.582,179.972 C507.612,178.871 507.476,177.401 507.329,176.31 C507.201,175.353 506.917,174.094 506.697,173.153 C506.43,172.007 506.025,170.492 505.687,169.365 C505.377,168.332 505.043,166.915 504.55,165.956 C504.315,165.498 503.813,165.004 503.54,164.567 C503.154,163.949 502.892,162.961 502.403,162.421 C502.129,162.117 501.676,161.646 501.266,161.663 C501.024,161.673 500.768,161.965 500.635,162.168 C500.398,162.529 500.286,163.126 500.256,163.557 C500.175,164.738 500.632,166.294 500.761,167.471 C500.853,168.303 500.891,169.421 501.014,170.249 C501.179,171.358 501.632,172.797 501.772,173.911 C501.876,174.739 501.735,175.871 501.898,176.689 C501.985,177.124 502.215,177.676 502.403,178.078 C502.755,178.831 503.467,179.711 503.792,180.477 C504.008,180.985 504.15,181.713 504.298,182.245 C504.454,182.811 504.509,183.629 504.803,184.139 C504.937,184.371 505.169,184.735 505.434,184.771 C505.737,184.811 506.114,184.492 506.318,184.265 L506.318,184.265 Z" id="lake_hallwil" sketch:type="MSShapeGroup"></path>
        </g>
    </g>
</svg>