<?xml version="1.0" encoding="UTF-8" standalone="no"?>
<svg width="94px" height="75px" viewBox="0 0 94 75" version="1.1" xmlns="http://www.w3.org/2000/svg" xmlns:xlink="http://www.w3.org/1999/xlink" xmlns:sketch="http://www.bohemiancoding.com/sketch/ns">
    <!-- Generator: Sketch 3.1.1 (8761) - http://www.bohemiancoding.com/sketch -->
    <title>lake_neuchatel</title>
    <desc>Created with Sketch.</desc>
    <defs></defs>
    <g id="Source" stroke="none" stroke-width="1" fill="none" fill-rule="evenodd" sketch:type="MSPage">
        <g id="Artboard-1" sketch:type="MSArtboardGroup" transform="translate(-148.000000, -263.000000)" stroke="#000000" stroke-width="0.2" fill="#D3EBFA" opacity="0.87">
            <path d="M149.861,336.42 C151.167,337.043 153.243,337.223 154.659,336.924 C155.257,336.799 155.896,336.217 156.427,335.914 C156.958,335.611 157.642,335.164 158.195,334.904 C158.781,334.629 159.644,334.451 160.216,334.146 C160.791,333.839 161.453,333.262 161.984,332.883 C162.515,332.504 163.222,331.999 163.752,331.62 C164.282,331.241 164.925,330.626 165.52,330.357 C166.441,329.942 167.793,329.642 168.803,329.6 C169.338,329.577 170.055,329.707 170.571,329.852 C171.127,330.008 171.797,330.413 172.339,330.61 C173.083,330.88 174.082,331.253 174.864,331.368 C175.689,331.489 176.872,331.686 177.642,331.368 C178.236,331.122 178.733,330.335 179.157,329.852 C179.977,328.918 180.885,327.522 181.682,326.569 C182.405,325.705 183.653,324.772 184.207,323.791 C184.596,323.103 184.512,321.914 184.964,321.266 C185.398,320.645 186.324,320.122 186.985,319.751 C188.052,319.151 189.69,318.806 190.773,318.236 C192.465,317.346 194.598,315.913 196.076,314.7 C197.07,313.885 198.182,312.563 199.107,311.67 C200.225,310.59 201.849,309.284 202.895,308.134 C203.73,307.215 204.6,305.784 205.42,304.851 C205.915,304.288 206.763,303.702 207.188,303.083 C207.61,302.468 207.71,301.375 208.198,300.81 C209.311,299.522 211.583,298.729 212.996,297.78 C214.619,296.689 216.788,295.231 218.3,293.992 C219.585,292.938 221.133,291.345 222.341,290.204 C223.938,288.695 226.072,286.687 227.644,285.153 C228.564,284.255 229.643,282.89 230.674,282.122 C231.571,281.455 232.956,280.854 233.957,280.354 C234.927,279.869 236.369,279.485 237.24,278.839 C237.973,278.296 238.763,277.331 239.261,276.566 C239.76,275.798 240.189,274.64 240.524,273.788 C240.787,273.119 241.167,272.225 241.282,271.515 C241.428,270.618 241.555,269.351 241.282,268.485 C241.004,267.603 240.302,266.443 239.514,265.96 C239.057,265.679 238.282,265.721 237.746,265.708 C236.91,265.687 235.793,265.82 234.968,265.96 C234.352,266.064 233.566,266.557 232.947,266.465 C232.51,266.4 232.041,265.967 231.684,265.708 C231.033,265.233 230.363,264.34 229.663,263.94 C229.247,263.702 228.621,263.512 228.148,263.435 C227.475,263.326 226.532,263.253 225.876,263.435 C225.024,263.671 224.079,264.451 223.351,264.95 C222.638,265.438 221.802,266.246 221.078,266.718 C220.14,267.329 218.643,267.756 217.795,268.486 C217.508,268.733 217.286,269.21 217.038,269.496 C216.827,269.739 216.57,270.115 216.28,270.254 C215.662,270.551 214.685,270.401 214.007,270.506 C213.244,270.625 212.163,270.647 211.482,271.011 C210.821,271.365 210.323,272.34 209.714,272.779 C209.164,273.175 208.353,273.633 207.693,273.789 C207.029,273.946 206.067,273.573 205.42,273.789 C205.061,273.909 204.696,274.298 204.41,274.546 C204.005,274.897 203.46,275.374 203.147,275.809 C202.751,276.359 202.372,277.194 202.137,277.83 C201.92,278.416 201.708,279.23 201.632,279.851 C201.511,280.828 201.632,282.149 201.632,283.134 C201.632,283.589 201.789,284.223 201.632,284.649 C201.389,285.304 200.751,286.125 200.116,286.417 C199.841,286.543 199.409,286.417 199.106,286.417 C198.651,286.417 198.044,286.389 197.59,286.417 C196.981,286.455 196.002,286.237 195.57,286.669 C195.138,287.101 195.355,288.08 195.318,288.689 C195.28,289.294 195.493,290.129 195.318,290.71 C195.238,290.972 195.065,291.363 194.813,291.468 C194.456,291.615 193.937,291.215 193.55,291.215 C193.163,291.215 192.644,291.32 192.287,291.468 C191.782,291.677 191.226,292.175 190.772,292.478 C190.317,292.781 189.78,293.33 189.257,293.488 C188.894,293.598 188.337,293.326 187.994,293.488 C187.021,293.949 186.459,295.482 185.721,296.266 C184.802,297.242 183.336,298.302 182.438,299.297 C181.169,300.703 179.375,302.598 178.65,304.348 C178.445,304.843 178.637,305.637 178.398,306.116 C178.015,306.883 176.879,307.441 176.378,308.137 C175.882,308.824 175.54,309.929 175.115,310.662 C174.703,311.37 174.08,312.271 173.6,312.935 C172.808,314.027 172.035,315.881 170.822,316.47 C170.345,316.702 169.559,316.308 169.054,316.47 C168.433,316.669 167.745,317.27 167.286,317.733 C166.635,318.39 166.136,319.57 165.518,320.258 C164.98,320.858 164.166,321.577 163.498,322.026 C162.794,322.498 161.594,322.713 160.973,323.289 C160.649,323.589 160.473,324.193 160.215,324.552 C159.807,325.118 159.191,325.823 158.7,326.32 C158.134,326.892 157.433,327.804 156.679,328.088 C156.325,328.221 155.786,328.007 155.416,328.088 C154.356,328.321 152.987,328.935 152.133,329.604 C151.751,329.903 151.428,330.489 151.123,330.866 C150.446,331.704 149.212,332.63 148.85,333.644 C148.672,334.143 148.647,334.922 148.85,335.412 C149.015,335.805 149.475,336.234 149.861,336.42 L149.861,336.42 Z" id="lake_neuchatel" sketch:type="MSShapeGroup"></path>
        </g>
    </g>
</svg>