<?xml version="1.0" encoding="UTF-8" standalone="no"?>
<svg width="9px" height="13px" viewBox="0 0 9 13" version="1.1" xmlns="http://www.w3.org/2000/svg" xmlns:xlink="http://www.w3.org/1999/xlink" xmlns:sketch="http://www.bohemiancoding.com/sketch/ns">
    <!-- Generator: Sketch 3.1.1 (8761) - http://www.bohemiancoding.com/sketch -->
    <title>lake_baldegg</title>
    <desc>Created with Sketch.</desc>
    <defs></defs>
    <g id="Source" stroke="none" stroke-width="1" fill="none" fill-rule="evenodd" sketch:type="MSPage">
        <g id="Artboard-1" sketch:type="MSArtboardGroup" transform="translate(-509.000000, -195.000000)" stroke="#000000" stroke-width="0.2" fill="#D3EBFA" opacity="0.87">
            <path d="M516.42,207.246 C516.968,207.093 517.401,206.277 517.557,205.731 C517.671,205.328 517.509,204.753 517.431,204.342 C517.305,203.683 517.033,202.825 516.799,202.196 C516.511,201.417 516.002,200.429 515.663,199.671 C515.358,198.99 514.971,198.073 514.652,197.398 C514.435,196.939 514.266,196.23 513.894,195.883 C513.535,195.547 512.866,195.331 512.379,195.252 C511.855,195.167 511.07,195.111 510.611,195.378 C510.375,195.515 510.206,195.881 510.106,196.135 C509.936,196.564 509.891,197.191 509.853,197.65 C509.825,197.99 509.775,198.455 509.853,198.787 C510.028,199.529 510.656,200.374 510.99,201.06 C511.339,201.776 511.787,202.738 512.126,203.459 C512.394,204.026 512.615,204.866 513.01,205.353 C513.368,205.794 514.031,206.211 514.526,206.489 C515.06,206.788 515.831,207.411 516.42,207.246 L516.42,207.246 Z" id="lake_baldegg" sketch:type="MSShapeGroup"></path>
        </g>
    </g>
</svg>