<?xml version="1.0" encoding="UTF-8" standalone="no"?>
<svg width="36px" height="24px" viewBox="0 0 36 24" version="1.1" xmlns="http://www.w3.org/2000/svg" xmlns:xlink="http://www.w3.org/1999/xlink" xmlns:sketch="http://www.bohemiancoding.com/sketch/ns">
    <!-- Generator: Sketch 3.1.1 (8761) - http://www.bohemiancoding.com/sketch -->
    <title>lake_brienz</title>
    <desc>Created with Sketch.</desc>
    <defs></defs>
    <g id="Source" stroke="none" stroke-width="1" fill="none" fill-rule="evenodd" sketch:type="MSPage">
        <g id="Artboard-1" sketch:type="MSArtboardGroup" transform="translate(-429.000000, -347.000000)" stroke="#000000" stroke-width="0.2" fill="#D3EBFA" opacity="0.87">
            <path d="M429.547,367.607 C429.505,368.121 429.687,368.886 430.053,369.249 C430.333,369.528 430.932,369.532 431.316,369.628 C431.878,369.769 432.631,370.037 433.21,370.007 C433.844,369.974 434.635,369.596 435.231,369.376 C436.043,369.076 437.118,368.646 437.882,368.239 C438.439,367.943 439.154,367.492 439.65,367.102 C440.472,366.456 441.443,365.449 442.175,364.704 C442.608,364.264 443.039,363.513 443.565,363.188 C443.799,363.042 444.183,363.011 444.449,362.935 C444.979,362.784 445.686,362.581 446.217,362.43 C446.748,362.279 447.484,362.157 447.985,361.925 C448.605,361.638 449.302,361.028 449.88,360.662 C450.44,360.308 451.379,360.058 451.774,359.525 C452.053,359.149 451.865,358.379 452.153,358.01 C452.497,357.569 453.277,357.338 453.795,357.126 C454.416,356.87 455.339,356.791 455.941,356.494 C456.403,356.266 456.898,355.765 457.33,355.484 C457.771,355.196 458.387,354.857 458.846,354.6 C459.333,354.326 460.01,354.006 460.488,353.716 C461.232,353.262 462.135,352.517 462.886,352.073 C463.251,351.858 463.85,351.742 464.149,351.442 C464.449,351.143 464.848,350.597 464.781,350.179 C464.72,349.809 464.196,349.521 463.897,349.295 C463.585,349.061 463.118,348.82 462.76,348.664 C462.431,348.519 461.96,348.41 461.623,348.285 C461.162,348.112 460.588,347.765 460.108,347.653 C459.553,347.523 458.783,347.528 458.213,347.527 C457.607,347.525 456.781,347.504 456.193,347.653 C455.585,347.808 454.863,348.264 454.298,348.537 C453.688,348.832 452.877,349.231 452.277,349.547 C451.588,349.911 450.594,350.301 450.005,350.811 C449.392,351.34 448.853,352.311 448.363,352.957 C448.02,353.41 447.591,354.035 447.226,354.472 C446.797,354.988 446.214,355.671 445.711,356.114 C444.874,356.849 443.541,357.553 442.681,358.26 C441.914,358.889 441.132,360.024 440.282,360.533 C439.768,360.841 438.892,360.841 438.387,361.164 C437.688,361.612 437.144,362.668 436.493,363.185 C435.842,363.703 434.816,364.162 434.094,364.574 C433.49,364.919 432.697,365.4 432.073,365.711 C431.481,366.006 430.533,366.139 430.053,366.595 C429.807,366.831 429.575,367.271 429.547,367.607 L429.547,367.607 Z" id="lake_brienz" sketch:type="MSShapeGroup"></path>
        </g>
    </g>
</svg>