<?xml version="1.0" encoding="UTF-8" standalone="no"?>
<svg width="14px" height="12px" viewBox="0 0 14 12" version="1.1" xmlns="http://www.w3.org/2000/svg" xmlns:xlink="http://www.w3.org/1999/xlink" xmlns:sketch="http://www.bohemiancoding.com/sketch/ns">
    <!-- Generator: Sketch 3.1.1 (8761) - http://www.bohemiancoding.com/sketch -->
    <title>lake_aegeri</title>
    <desc>Created with Sketch.</desc>
    <defs></defs>
    <g id="Source" stroke="none" stroke-width="1" fill="none" fill-rule="evenodd" sketch:type="MSPage">
        <g id="Artboard-1" sketch:type="MSArtboardGroup" transform="translate(-586.000000, -222.000000)" stroke="#000000" stroke-width="0.2" fill="#D3EBFA" opacity="0.87">
            <path d="M595.853,232.843 C596.458,232.762 597.338,232.686 597.818,232.307 C598.344,231.891 598.579,230.938 598.889,230.343 C599,230.131 599.276,229.867 599.246,229.629 C599.185,229.139 598.447,228.79 598.174,228.379 C597.976,228.079 597.832,227.61 597.639,227.307 C597.269,226.729 596.703,225.999 596.21,225.521 C595.825,225.148 595.262,224.688 594.781,224.45 C594.083,224.103 592.994,224.053 592.281,223.736 C591.819,223.53 591.277,223.117 590.852,222.843 C590.528,222.634 590.163,222.191 589.781,222.129 C589.178,222.031 588.345,222.358 587.817,222.665 C587.423,222.893 586.9,223.309 586.746,223.736 C586.544,224.292 586.746,224.986 586.924,225.7 C587.103,226.414 588.14,227.298 588.889,227.664 C589.277,227.853 589.915,227.685 590.318,227.842 C590.747,228.01 591.164,228.514 591.568,228.735 C592.074,229.012 592.909,229.081 593.353,229.449 C593.891,229.895 594.408,230.742 594.603,231.413 C594.723,231.825 594.3,232.538 594.603,232.841 C594.868,233.108 595.481,232.893 595.853,232.843 L595.853,232.843 Z" id="lake_aegeri" sketch:type="MSShapeGroup"></path>
        </g>
    </g>
</svg>