<?xml version="1.0" encoding="UTF-8" standalone="no"?>
<svg width="160px" height="110px" viewBox="0 0 160 110" version="1.1" xmlns="http://www.w3.org/2000/svg" xmlns:xlink="http://www.w3.org/1999/xlink" xmlns:sketch="http://www.bohemiancoding.com/sketch/ns">
    <!-- Generator: Sketch 3.1.1 (8761) - http://www.bohemiancoding.com/sketch -->
    <title>lake_constance_main</title>
    <desc>Created with Sketch.</desc>
    <defs></defs>
    <g id="Source" stroke="none" stroke-width="1" fill="none" fill-rule="evenodd" sketch:type="MSPage">
        <g id="Artboard-1" sketch:type="MSArtboardGroup" transform="translate(-685.000000, 0.000000)" stroke="#000000" stroke-width="0.2" fill="#D3EBFA" opacity="0.87">
            <path d="M717.323,51.079 C717.312,51.034 717.311,50.971 717.314,50.925 C717.341,50.54 717.59,50.048 717.567,49.662 C717.545,49.304 717.001,48.832 717.188,48.526 C717.448,48.101 718.347,48.148 718.83,48.274 C719.248,48.382 719.57,48.984 719.966,49.158 C720.389,49.343 721.021,49.402 721.482,49.41 C722.36,49.426 723.685,49.561 724.386,49.032 C724.846,48.683 725.016,47.827 725.144,47.264 C725.345,46.377 725.434,45.129 725.27,44.234 C725.166,43.666 724.829,42.948 724.512,42.466 C723.997,41.682 723.1,40.777 722.366,40.194 C721.954,39.866 721.339,39.508 720.85,39.31 C720.705,39.251 720.442,39.307 720.345,39.184 C720.205,39.005 720.226,38.62 720.345,38.426 C720.479,38.21 720.887,38.181 721.103,38.047 C721.586,37.749 722.546,37.474 722.619,36.911 C722.649,36.67 722.344,36.357 722.113,36.28 C721.817,36.18 721.414,36.498 721.103,36.532 C720.762,36.57 720.301,36.546 719.96,36.506 C719.579,36.461 719.047,36.421 718.71,36.238 C718.511,36.13 718.286,35.9 718.174,35.702 C718.011,35.413 717.928,34.961 717.906,34.631 C717.877,34.173 718.041,33.569 718.085,33.113 C718.154,32.391 718.301,31.426 718.264,30.702 C718.225,29.941 718.17,28.877 717.818,28.202 C717.52,27.631 716.744,27.151 716.299,26.684 C715.777,26.135 715.126,25.359 714.603,24.809 C714.16,24.343 713.548,23.739 713.085,23.291 C712.689,22.909 712.158,22.404 711.746,22.041 C711.589,21.902 711.393,21.694 711.21,21.594 C710.89,21.421 710.408,21.302 710.049,21.237 C709.601,21.156 708.985,21.198 708.531,21.148 C708.208,21.112 707.774,21.056 707.46,20.969 C706.961,20.832 706.278,20.638 705.853,20.344 C705.557,20.139 705.292,19.718 705.049,19.451 C704.756,19.128 704.431,18.62 704.068,18.38 C703.665,18.113 703.002,18.016 702.549,17.844 C701.82,17.567 700.845,17.196 700.139,16.862 C699.478,16.549 698.598,16.117 697.996,15.701 C697.355,15.259 696.648,14.479 696.031,14.005 C695.466,13.57 694.628,13.106 694.067,12.666 C693.5,12.221 692.796,11.564 692.281,11.059 C691.889,10.674 691.427,10.101 691.031,9.72 C690.648,9.351 689.96,9.019 689.692,8.559 C689.554,8.323 689.481,7.937 689.513,7.666 C689.558,7.285 690.143,6.877 690.048,6.505 C689.983,6.245 689.568,6.1 689.334,5.969 C688.957,5.757 688.352,5.679 687.995,5.433 C687.604,5.164 687.252,4.614 686.923,4.272 C686.688,4.026 686.25,3.784 686.12,3.468 C686.027,3.245 686.103,2.905 686.12,2.665 C686.146,2.26 686.151,1.703 686.298,1.326 C686.417,1.021 686.659,0.625 686.923,0.433 C687.218,0.219 687.722,0.114 688.084,0.076 C688.673,0.014 689.474,0.114 690.048,0.255 C690.667,0.406 691.475,0.718 692.013,1.058 C692.687,1.483 693.542,2.177 693.977,2.844 C694.208,3.199 694.29,3.782 694.423,4.183 C694.53,4.505 694.582,4.98 694.78,5.255 C694.937,5.472 695.279,5.631 695.495,5.791 C695.788,6.007 696.175,6.301 696.476,6.505 C696.895,6.788 697.425,7.238 697.905,7.398 C698.517,7.602 699.445,7.347 700.048,7.577 C700.424,7.72 700.885,8.055 701.12,8.381 C701.367,8.724 701.325,9.372 701.566,9.72 C701.879,10.174 702.484,10.671 702.995,10.881 C703.492,11.086 704.272,10.881 704.78,11.059 C705.292,11.239 705.993,11.593 706.298,12.041 C706.528,12.38 706.394,13.009 706.567,13.38 C706.857,14.002 707.416,14.798 707.996,15.166 C708.484,15.476 709.311,15.464 709.871,15.612 C710.517,15.783 711.368,16.059 712.014,16.237 C712.627,16.406 713.487,16.512 714.068,16.773 C714.596,17.01 715.197,17.518 715.674,17.844 C716.214,18.213 716.928,18.714 717.46,19.094 C718.161,19.596 719.095,20.269 719.781,20.791 C720.298,21.183 720.935,21.774 721.477,22.13 C721.808,22.347 722.281,22.586 722.638,22.755 C723.083,22.965 723.693,23.211 724.156,23.38 C724.737,23.591 725.632,23.626 726.121,24.005 C726.519,24.315 726.658,25.074 727.014,25.433 C727.327,25.75 727.894,25.988 728.264,26.237 C728.535,26.419 729.006,26.572 729.157,26.862 C729.294,27.123 729.173,27.55 729.157,27.844 C729.117,28.597 728.964,29.594 728.889,30.344 C728.83,30.933 728.601,31.727 728.71,32.308 C728.755,32.544 728.905,32.846 729.067,33.022 C729.343,33.324 729.889,33.506 730.227,33.736 C730.559,33.962 731.025,34.246 731.298,34.54 C731.668,34.936 731.96,35.62 732.28,36.058 C732.629,36.534 733.065,37.213 733.53,37.576 C733.974,37.922 734.733,38.109 735.226,38.38 C736.197,38.912 737.415,39.752 738.351,40.344 C738.942,40.718 739.747,41.189 740.316,41.594 C741.403,42.368 742.737,43.553 743.797,44.362 C744.484,44.885 745.39,45.597 746.119,46.058 C747.02,46.629 748.287,47.283 749.244,47.755 C749.954,48.105 750.959,48.448 751.654,48.826 C752.384,49.224 753.236,49.963 753.975,50.344 C754.563,50.647 755.373,51.056 756.029,51.148 C756.882,51.268 758.034,50.998 758.886,50.88 C759.48,50.798 760.265,50.649 760.85,50.523 C761.714,50.337 762.853,50.032 763.707,49.809 C764.594,49.578 765.757,49.194 766.653,49.006 C767.183,48.894 767.903,48.559 768.439,48.738 C768.974,48.917 770.266,48.664 770.939,49.006 C771.293,49.186 771.546,49.71 771.832,49.988 C772.39,50.531 773.19,51.196 773.796,51.684 C774.318,52.104 774.983,52.726 775.582,53.023 C776.106,53.283 776.901,53.377 777.457,53.559 C778.19,53.799 779.128,54.235 779.868,54.452 C780.71,54.699 781.852,54.983 782.724,55.077 C783.523,55.163 784.6,55.059 785.403,55.077 C786.02,55.09 786.867,54.987 787.457,55.166 C788.147,55.375 788.923,55.998 789.511,56.416 C789.991,56.758 790.628,57.233 791.029,57.666 C791.473,58.146 791.963,58.88 792.279,59.452 C792.843,60.47 793.238,62.002 793.797,63.023 C794.094,63.564 794.677,64.171 794.958,64.719 C795.388,65.556 795.76,66.765 796.029,67.666 C796.195,68.22 796.228,69.018 796.475,69.541 C796.778,70.18 797.359,70.965 797.904,71.416 C798.319,71.76 799.06,71.924 799.511,72.219 C800.211,72.677 800.984,73.504 801.654,74.005 C802.119,74.352 802.702,74.924 803.261,75.076 C803.727,75.203 804.386,75.013 804.868,74.987 C805.377,74.96 806.06,74.973 806.564,74.898 C807.438,74.767 808.538,74.177 809.42,74.184 C809.836,74.187 810.427,74.293 810.76,74.541 C811.54,75.123 811.954,76.474 812.456,77.309 C812.809,77.895 813.165,78.76 813.617,79.273 C813.818,79.502 814.173,79.719 814.42,79.898 C814.891,80.237 815.479,80.783 816.027,80.969 C816.409,81.099 816.92,80.969 817.367,81.058 C817.813,81.147 818.602,81.675 819.063,82.04 C819.523,82.405 819.934,83.114 820.402,83.468 C821.051,83.96 822.048,84.437 822.813,84.718 C823.484,84.965 824.435,85.107 825.134,85.254 C825.695,85.372 826.466,85.428 827.009,85.611 C827.576,85.803 828.353,86.1 828.794,86.504 C829.283,86.95 829.477,87.922 829.955,88.379 C830.354,88.759 831.022,89.383 831.562,89.272 C831.992,89.183 832.072,88.327 832.455,88.111 C832.878,87.873 833.58,87.989 834.062,87.932 C834.706,87.856 835.574,87.515 836.205,87.664 C836.487,87.73 836.776,88.026 837.009,88.2 C837.344,88.45 837.826,88.76 838.08,89.093 C838.473,89.608 838.854,90.421 838.973,91.057 C839.057,91.506 838.735,92.144 838.884,92.575 C838.989,92.88 839.324,93.208 839.598,93.379 C839.858,93.54 840.286,93.565 840.58,93.647 C841.143,93.804 841.966,93.861 842.455,94.183 C842.773,94.392 843.068,94.835 843.259,95.165 C843.488,95.561 843.669,96.153 843.794,96.593 C843.944,97.118 844.252,97.842 844.151,98.379 C844.088,98.722 843.763,99.105 843.526,99.361 C843.344,99.558 843.061,99.799 842.812,99.897 C842.059,100.19 840.941,100.168 840.133,100.165 C839.379,100.162 838.383,99.973 837.633,99.897 C837.07,99.84 836.319,99.785 835.758,99.718 C835.006,99.629 833.987,99.155 833.258,99.361 C832.654,99.532 832.164,100.339 831.651,100.7 C831.219,101.004 830.453,101.172 830.133,101.593 C829.881,101.924 829.838,102.521 829.776,102.932 C829.672,103.621 830.016,104.64 829.687,105.254 C829.406,105.778 828.641,106.219 828.08,106.415 C827.498,106.617 826.643,106.519 826.026,106.504 C825.139,106.483 823.937,106.464 823.08,106.236 C822.396,106.054 821.353,105.826 820.937,105.254 C820.666,104.883 820.693,104.19 820.758,103.736 C820.846,103.131 821.488,102.468 821.562,101.861 C821.621,101.376 821.666,100.57 821.293,100.254 C821.068,100.064 820.604,100.215 820.312,100.254 C819.9,100.308 819.333,100.403 818.972,100.611 C818.513,100.876 818.075,101.465 817.722,101.861 C817.177,102.473 816.572,103.392 816.026,104.004 C815.522,104.569 814.823,105.305 814.241,105.79 C813.841,106.123 813.305,106.609 812.812,106.772 C812.124,107 811.123,106.922 810.401,106.861 C809.747,106.806 808.862,106.673 808.258,106.415 C807.779,106.21 807.235,105.759 806.829,105.433 C806.371,105.065 805.714,104.591 805.4,104.094 C805.07,103.571 805.114,102.647 804.775,102.13 C804.619,101.892 804.323,101.616 804.061,101.505 C803.764,101.379 803.273,101.261 802.99,101.416 C802.59,101.634 802.478,102.347 802.275,102.755 C802.104,103.098 801.883,103.56 801.74,103.916 C801.558,104.363 801.456,105.022 801.204,105.434 C800.839,106.032 800.164,106.719 799.597,107.131 C799.093,107.497 798.32,107.847 797.722,108.024 C796.738,108.316 795.347,108.336 794.329,108.47 C793.525,108.576 792.455,108.729 791.65,108.827 C791.169,108.886 790.527,109.038 790.043,109.006 C789.162,108.946 788.001,108.633 787.187,108.292 C786.144,107.855 784.909,106.96 783.972,106.328 C783.004,105.675 781.787,104.7 780.847,104.007 C779.645,103.119 778,101.989 776.829,101.06 C776.442,100.753 776.012,100.228 775.579,99.989 C775.186,99.772 774.326,99.956 774.15,99.543 C773.986,99.157 774.652,98.694 774.775,98.293 C774.894,97.905 775.095,97.334 774.954,96.954 C774.729,96.35 773.881,95.887 773.347,95.525 C772.851,95.189 772.076,94.939 771.562,94.632 C770.719,94.13 769.646,93.374 768.883,92.757 C768.058,92.089 767.122,91.009 766.293,90.346 C765.812,89.961 765.061,89.592 764.597,89.185 C764.084,88.735 763.497,88.029 763.079,87.489 C762.783,87.107 762.36,86.6 762.186,86.15 C761.991,85.645 761.895,84.906 761.917,84.364 C761.942,83.786 762.138,83.021 762.364,82.489 C762.538,82.079 762.983,81.645 763.167,81.239 C763.248,81.061 763.356,80.809 763.346,80.614 C763.325,80.182 763.054,79.633 762.811,79.275 C762.417,78.695 761.691,78.066 761.115,77.668 C760.405,77.178 759.298,76.802 758.525,76.418 C757.421,75.868 755.926,75.171 754.865,74.543 C754.002,74.032 752.899,73.269 752.096,72.668 C751.456,72.189 750.697,71.431 750.042,70.971 C749.354,70.488 748.338,69.998 747.632,69.543 C747.358,69.366 746.994,69.123 746.739,68.918 C746.398,68.645 745.991,68.227 745.667,67.936 C745.216,67.53 744.657,66.93 744.149,66.597 C743.778,66.354 743.195,66.192 742.81,65.972 C742.19,65.619 741.463,64.989 740.845,64.633 C740.253,64.292 739.423,63.911 738.791,63.651 C738.267,63.435 737.553,63.178 737.006,63.026 C736.505,62.886 735.794,62.858 735.31,62.669 C734.527,62.364 733.644,61.629 732.899,61.24 C732.325,60.941 731.548,60.554 730.935,60.347 C730.362,60.154 729.495,60.201 728.97,59.901 C728.46,59.609 728.071,58.862 727.631,58.472 C727.258,58.142 726.709,57.763 726.291,57.49 C725.799,57.168 725.119,56.775 724.595,56.508 C724.125,56.268 723.476,55.995 722.989,55.794 C722.3,55.508 721.262,55.351 720.667,54.901 C720.24,54.578 719.989,53.836 719.596,53.472 C719.154,53.064 718.293,52.856 717.9,52.401 C717.624,52.069 717.424,51.5 717.323,51.079 L717.323,51.079 Z" id="lake_constance_main" sketch:type="MSShapeGroup"></path>
        </g>
    </g>
</svg>