<?xml version="1.0" encoding="UTF-8" standalone="no"?>
<svg width="176px" height="101px" viewBox="0 0 176 101" version="1.1" xmlns="http://www.w3.org/2000/svg" xmlns:xlink="http://www.w3.org/1999/xlink" xmlns:sketch="http://www.bohemiancoding.com/sketch/ns">
    <!-- Generator: Sketch 3.1.1 (8761) - http://www.bohemiancoding.com/sketch -->
    <title>lake_geneva</title>
    <desc>Created with Sketch.</desc>
    <defs></defs>
    <g id="Source" stroke="none" stroke-width="1" fill="none" fill-rule="evenodd" sketch:type="MSPage">
        <g id="Artboard-1" sketch:type="MSArtboardGroup" transform="translate(-39.000000, -424.000000)" stroke="#000000" stroke-width="0.2" fill="#D3EBFA" opacity="0.87">
            <path d="M59.2,496.023 C58.81,497.072 57.844,498.266 57.432,499.306 C56.999,500.4 57.14,502.162 56.422,503.094 C56.049,503.577 55.178,503.79 54.654,504.104 C53.427,504.837 51.407,505.441 50.613,506.629 C50.101,507.396 50.314,508.762 50.108,509.659 C49.808,510.968 48.976,512.616 48.845,513.953 C48.763,514.785 49.303,515.92 49.097,516.73 C48.895,517.524 48.111,518.377 47.582,519.003 C46.508,520.271 44.813,521.722 43.541,522.791 C42.875,523.351 42.062,524.766 41.224,524.534 C40.679,524.384 40.4,523.345 40.511,522.791 C40.617,522.266 41.618,522.041 41.774,521.528 C41.886,521.158 41.664,520.624 41.522,520.265 C41.258,519.6 40.445,518.935 40.259,518.244 C39.669,516.048 39.905,512.859 40.511,510.668 C40.719,509.916 41.304,509.018 41.774,508.395 C42.548,507.369 44.141,506.466 44.804,505.365 C45.336,504.482 45.641,503.098 45.814,502.082 C46.133,500.214 45.352,497.524 46.066,495.769 C46.45,494.826 47.73,494.061 48.339,493.244 C49.295,491.963 50.443,490.148 51.117,488.699 C51.824,487.178 52.557,485.04 52.885,483.395 C53.093,482.352 52.97,480.91 53.137,479.86 C53.284,478.934 53.485,477.672 53.895,476.83 C54.273,476.053 55.182,475.274 55.663,474.557 C56.343,473.542 56.879,471.941 57.684,471.022 C58.751,469.801 61.259,469.192 61.977,467.739 C62.178,467.332 61.697,466.582 61.977,466.223 C62.554,465.485 64.11,465.738 65.007,465.466 C66.085,465.139 67.609,464.833 68.543,464.203 C69.299,463.692 70.145,462.74 70.564,461.93 C71.028,461.033 71.085,459.63 71.321,458.647 C71.613,457.432 71.531,455.567 72.331,454.607 C72.917,453.904 74.462,453.992 75.109,453.344 C75.756,452.697 75.85,451.319 76.372,450.566 C77.104,449.509 78.467,448.418 79.403,447.536 C80.73,446.284 82.585,444.708 83.948,443.495 C84.63,442.89 85.368,441.8 86.221,441.475 C87.354,441.044 89.053,441.38 90.262,441.475 C91.715,441.588 93.613,442.063 95.06,442.232 C96.041,442.347 97.367,442.634 98.343,442.485 C99.553,442.299 101.02,441.483 102.131,440.969 C103.608,440.287 105.464,439.15 106.929,438.444 C108.121,437.871 109.849,437.381 110.97,436.676 C112.154,435.934 113.424,434.53 114.506,433.646 C115.175,433.1 116.28,432.583 116.779,431.878 C117.332,431.096 117.245,429.637 117.789,428.848 C118.4,427.961 119.768,427.297 120.567,426.575 C121.123,426.072 121.605,424.98 122.335,424.807 C123.035,424.642 123.982,425.21 124.608,425.565 C125.216,425.909 125.755,426.759 126.376,427.081 C127.209,427.511 128.477,427.724 129.407,427.838 C130.084,427.922 130.999,427.881 131.68,427.838 C132.289,427.8 133.138,427.823 133.7,427.586 C134.147,427.397 134.571,426.862 134.963,426.575 C135.404,426.253 135.976,425.779 136.478,425.565 C137.121,425.291 138.053,425.083 138.751,425.06 C139.747,425.027 141.111,425.189 142.034,425.565 C142.638,425.81 143.236,426.504 143.802,426.828 C144.45,427.198 145.413,427.494 146.075,427.838 C146.859,428.246 147.749,429.117 148.6,429.354 C149.403,429.577 150.547,429.413 151.378,429.354 C152.447,429.278 153.867,429.08 154.914,428.849 C155.686,428.679 156.651,428.023 157.439,428.091 C158.114,428.15 158.83,428.849 159.459,429.101 C160.416,429.485 161.859,429.58 162.742,430.112 C163.476,430.553 164.129,431.554 164.763,432.132 C165.2,432.531 165.826,433.013 166.278,433.396 C166.811,433.846 167.39,434.668 168.046,434.911 C168.614,435.121 169.467,435.001 170.067,434.911 C171.086,434.758 172.334,433.731 173.35,433.901 C174.367,434.07 175.269,435.352 176.128,435.922 C176.865,436.409 177.94,436.916 178.653,437.437 C179.304,437.912 179.938,438.878 180.674,439.205 C181.859,439.731 183.679,439.559 184.967,439.71 C186.255,439.862 187.995,439.934 189.26,440.216 C190.429,440.477 192.014,440.873 193.048,441.479 C194.02,442.048 194.828,443.482 195.826,444.004 C196.722,444.473 198.203,444.312 199.109,444.761 C200.169,445.287 201.113,446.697 202.139,447.286 C202.908,447.728 204.126,447.896 204.917,448.297 C206.136,448.913 207.63,449.98 208.705,450.822 C209.676,451.583 210.943,452.655 211.735,453.599 C212.37,454.356 212.998,455.529 213.503,456.377 C213.902,457.047 214.664,457.877 214.766,458.649 C214.889,459.579 214.375,460.817 214.008,461.68 C213.729,462.337 213.319,463.274 212.745,463.7 C212.052,464.216 210.828,464.379 209.967,464.458 C209.058,464.542 207.843,464.304 206.937,464.206 C205.797,464.082 204.287,463.559 203.149,463.7 C202.339,463.802 201.393,464.439 200.624,464.711 C199.652,465.054 198.37,465.669 197.341,465.721 C196.57,465.76 195.555,464.992 194.816,465.216 C194.201,465.403 193.941,466.668 193.301,466.732 C192.486,466.812 191.744,465.615 191.028,465.216 C190.228,464.772 189.124,464.227 188.25,463.953 C187.441,463.7 186.316,463.524 185.472,463.448 C184.491,463.359 183.132,463.733 182.189,463.448 C180.882,463.052 179.671,461.425 178.401,460.923 C177.115,460.414 175.233,460.279 173.856,460.165 C172.875,460.084 171.553,460.262 170.573,460.165 C169.804,460.089 168.794,459.858 168.048,459.66 C167.585,459.537 167.006,459.231 166.533,459.155 C165.262,458.948 163.523,459.049 162.24,459.155 C161.321,459.23 160.128,459.584 159.209,459.66 C156.793,459.86 153.547,459.81 151.128,459.66 C150.518,459.622 149.711,459.505 149.107,459.407 C148.344,459.283 147.353,458.854 146.582,458.902 C145.865,458.947 145.004,459.475 144.31,459.66 C142.816,460.056 140.781,460.401 139.259,460.67 C138.278,460.844 136.926,460.873 135.976,461.175 C135.492,461.329 134.953,461.805 134.461,461.933 C132.92,462.336 130.748,462.28 129.158,462.186 C128.238,462.131 126.723,462.384 126.127,461.681 C125.931,461.45 126.363,460.86 126.127,460.67 C125.582,460.233 124.55,461.24 123.854,461.175 C123.28,461.121 122.66,460.483 122.086,460.418 C121.244,460.322 120.085,460.584 119.308,460.923 C118.961,461.074 118.637,461.512 118.298,461.681 C117.804,461.926 116.987,461.877 116.53,462.186 C115.814,462.669 115.092,463.661 114.762,464.458 C114.529,465.022 114.581,465.872 114.51,466.479 C114.429,467.161 114.578,468.145 114.258,468.751 C113.931,469.369 113.065,469.87 112.49,470.267 C111.708,470.806 110.548,471.332 109.712,471.783 C108.428,472.472 106.834,473.704 105.419,474.055 C104.537,474.274 103.283,473.893 102.389,474.055 C101.752,474.17 100.931,474.493 100.368,474.813 C99.946,475.052 99.452,475.483 99.105,475.823 C98.683,476.237 98.241,476.901 97.842,477.339 C97.481,477.735 96.994,478.262 96.579,478.602 C96.157,478.948 95.566,479.398 95.064,479.612 C94.421,479.886 93.489,480.127 92.791,480.117 C92.166,480.109 91.335,479.881 90.771,479.612 C89.745,479.124 88.422,478.249 87.74,477.34 C87.352,476.821 87.21,475.926 86.983,475.319 C86.755,474.713 86.596,473.829 86.225,473.298 C85.725,472.583 84.762,471.857 84.015,471.404 C83.579,471.139 82.941,470.848 82.437,470.772 C80.632,470.501 77.52,470.133 76.376,471.277 C75.682,471.971 75.229,472.949 74.608,473.55 C73.868,474.267 72.591,474.875 71.83,475.571 C71.235,476.114 70.552,476.952 70.062,477.591 C69.232,478.676 68.252,480.216 67.537,481.379 C66.489,483.084 65.237,485.444 64.254,487.188 C63.571,488.4 62.727,490.055 61.981,491.229 C61.631,491.779 61.174,492.531 60.718,492.997 C60.453,493.268 59.913,493.436 59.708,493.755 C59.327,494.338 59.444,495.369 59.2,496.023 L59.2,496.023 Z" id="lake_geneva" sketch:type="MSShapeGroup"></path>
        </g>
    </g>
</svg>