<?xml version="1.0" encoding="UTF-8" standalone="no"?>
<svg width="55px" height="42px" viewBox="0 0 55 42" version="1.1" xmlns="http://www.w3.org/2000/svg" xmlns:xlink="http://www.w3.org/1999/xlink" xmlns:sketch="http://www.bohemiancoding.com/sketch/ns">
    <!-- Generator: Sketch 3.1.1 (8761) - http://www.bohemiancoding.com/sketch -->
    <title>lake_lugano</title>
    <desc>Created with Sketch.</desc>
    <defs></defs>
    <g id="Source" stroke="none" stroke-width="1" fill="none" fill-rule="evenodd" sketch:type="MSPage">
        <g id="Artboard-1" sketch:type="MSArtboardGroup" transform="translate(-650.000000, -579.000000)" stroke="#000000" stroke-width="0.2" fill="#D3EBFA" opacity="0.87">
            <path d="M651.491,603.096 C651.668,603.417 652.022,603.791 652.121,604.145 C652.255,604.63 652.1,605.321 652.121,605.824 C652.168,606.928 652.344,608.393 652.435,609.496 C652.5,610.282 652.672,611.329 652.645,612.118 C652.623,612.755 652.211,613.591 652.33,614.217 C652.46,614.896 653.025,615.694 653.484,616.21 C653.693,616.445 654.086,616.633 654.324,616.839 C654.492,616.985 654.762,617.158 654.848,617.364 C655.101,617.974 654.468,619.025 654.848,619.566 C655.059,619.868 655.636,620.035 656.001,619.986 C656.65,619.899 657.29,619.156 657.784,618.727 C658.373,618.216 659.031,617.403 659.568,616.838 C660.289,616.08 661.22,615.039 661.981,614.32 C662.402,613.922 663.126,613.543 663.449,613.061 C663.672,612.731 663.599,612.095 663.869,611.802 C664.194,611.449 664.868,611.269 665.338,611.172 C665.647,611.109 666.094,611.058 666.387,611.172 C666.947,611.392 667.423,612.119 667.856,612.536 C668.529,613.184 669.604,613.923 670.059,614.739 C670.327,615.219 670.404,615.977 670.479,616.522 C670.582,617.271 670.253,618.36 670.583,619.04 C670.71,619.302 671.039,619.589 671.317,619.67 C671.531,619.733 671.864,619.685 672.051,619.565 C672.588,619.222 673.008,618.388 673.205,617.782 C673.381,617.243 673.433,616.448 673.309,615.894 C673.194,615.372 672.76,614.77 672.47,614.32 C672.191,613.886 671.761,613.344 671.421,612.957 C671.01,612.488 670.295,612.008 669.952,611.488 C669.579,610.922 669.309,610.039 669.112,609.389 C668.935,608.804 668.757,608.003 668.693,607.396 C668.605,606.551 668.628,605.411 668.693,604.564 C668.756,603.738 668.861,602.625 669.112,601.836 C669.219,601.5 669.487,601.105 669.637,600.786 C669.901,600.225 670.184,599.445 670.476,598.898 C670.809,598.274 671.302,597.464 671.735,596.905 C672.157,596.359 672.779,595.67 673.308,595.226 C673.884,594.744 674.74,594.207 675.407,593.862 C676.009,593.55 676.872,593.264 677.505,593.023 C678.193,592.76 679.114,592.417 679.814,592.184 C680.532,591.944 681.555,591.797 682.226,591.45 C682.864,591.119 683.577,590.456 684.115,589.981 C684.616,589.539 685.16,588.815 685.689,588.407 C686.035,588.14 686.531,587.804 686.948,587.673 C687.671,587.445 688.708,587.495 689.466,587.463 C690.755,587.41 692.477,587.431 693.767,587.463 C694.397,587.48 695.237,587.609 695.866,587.568 C696.919,587.5 698.362,587.366 699.328,586.938 C699.944,586.666 700.585,585.995 701.111,585.575 C701.687,585.115 702.473,584.517 703,584.001 C703.445,583.563 703.959,582.903 704.363,582.428 C704.522,582.24 704.842,582.04 704.887,581.798 C704.961,581.407 704.724,580.844 704.467,580.539 C704.168,580.184 703.569,579.812 703.104,579.805 C702.612,579.798 702.044,580.265 701.635,580.539 C701.358,580.726 701.062,581.07 700.796,581.273 C700.345,581.619 699.709,582.031 699.222,582.323 C698.763,582.597 698.15,582.973 697.649,583.162 C697.134,583.356 696.406,583.479 695.866,583.582 C695.21,583.706 694.326,583.82 693.663,583.896 C692.941,583.979 691.976,584.116 691.25,584.106 C690.427,584.094 689.346,583.778 688.522,583.792 C687.663,583.806 686.501,583.931 685.69,584.211 C685.21,584.377 684.666,584.806 684.221,585.051 C683.69,585.343 682.964,585.697 682.437,585.995 C682.278,586.085 682.075,586.224 681.913,586.309 C681.453,586.553 680.779,586.764 680.34,587.043 C679.925,587.307 679.452,587.77 679.081,588.092 C678.761,588.369 678.397,588.823 678.032,589.036 C677.687,589.236 677.142,589.308 676.772,589.455 C676.353,589.621 675.844,589.97 675.409,590.085 C675.043,590.182 674.525,590.137 674.15,590.189 C673.832,590.234 673.421,590.368 673.101,590.399 C672.443,590.464 671.547,590.52 670.898,590.399 C670.466,590.319 669.968,589.935 669.534,589.875 C669.19,589.827 668.713,590.08 668.38,589.98 C668.188,589.921 668.055,589.591 667.856,589.56 C667.59,589.518 667.204,589.681 667.017,589.874 C666.671,590.232 666.483,590.95 666.493,591.448 C666.498,591.717 666.703,592.039 666.807,592.287 C667.009,592.767 667.379,593.366 667.541,593.86 C667.741,594.47 667.968,595.317 667.961,595.959 C667.954,596.539 667.684,597.284 667.541,597.847 C667.372,598.514 667.142,599.403 666.911,600.05 C666.671,600.728 666.197,601.572 665.968,602.253 C665.719,602.991 665.621,604.046 665.338,604.771 C665.051,605.506 664.457,606.387 664.079,607.08 C663.701,607.773 663.178,608.685 662.82,609.388 C662.52,609.978 662.279,610.857 661.876,611.381 C661.55,611.806 660.906,612.172 660.513,612.535 C659.989,613.017 659.492,613.941 658.834,614.214 C658.514,614.346 657.992,614.363 657.68,614.214 C657.135,613.952 656.783,613.125 656.421,612.64 C656.124,612.242 655.669,611.736 655.477,611.277 C655.28,610.804 655.165,610.111 655.163,609.598 C655.16,609.055 655.443,608.357 655.477,607.815 C655.519,607.155 655.432,606.271 655.373,605.612 C655.33,605.137 655.258,604.506 655.163,604.039 C655.092,603.686 654.913,603.237 654.849,602.885 C654.729,602.232 654.639,601.346 654.639,600.682 C654.639,600.018 654.711,599.128 654.849,598.479 C654.952,597.992 655.155,597.352 655.373,596.906 C655.622,596.396 656.143,595.826 656.422,595.332 C656.713,594.817 657.132,594.126 657.261,593.549 C657.317,593.303 657.408,592.914 657.261,592.71 C657.029,592.387 656.398,592.339 656.002,592.29 C655.595,592.24 655.018,592.239 654.639,592.394 C654.143,592.598 653.518,593.071 653.275,593.548 C652.876,594.336 653.063,595.602 653.065,596.486 C653.067,596.896 653.303,597.462 653.17,597.849 C653.018,598.292 652.425,598.648 652.121,599.003 C651.859,599.31 651.444,599.684 651.281,600.052 C651.037,600.607 650.874,601.448 650.967,602.046 C651.021,602.395 651.322,602.787 651.491,603.096 L651.491,603.096 Z" id="lake_lugano" sketch:type="MSShapeGroup"></path>
        </g>
    </g>
</svg>