<?xml version="1.0" encoding="UTF-8" standalone="no"?>
<svg width="46px" height="31px" viewBox="0 0 46 31" version="1.1" xmlns="http://www.w3.org/2000/svg" xmlns:xlink="http://www.w3.org/1999/xlink" xmlns:sketch="http://www.bohemiancoding.com/sketch/ns">
    <!-- Generator: Sketch 3.1.1 (8761) - http://www.bohemiancoding.com/sketch -->
    <title>lake_constance_west</title>
    <desc>Created with Sketch.</desc>
    <defs></defs>
    <g id="Source" stroke="none" stroke-width="1" fill="none" fill-rule="evenodd" sketch:type="MSPage">
        <g id="Artboard-1" sketch:type="MSArtboardGroup" transform="translate(-660.000000, -23.000000)" stroke="#000000" stroke-width="0.2" fill="#D3EBFA" opacity="0.87">
            <path d="M660.493,53.324 C660.619,52.042 663.232,52.051 664.281,51.303 C665.46,50.463 666.749,48.997 667.817,48.02 C668.569,47.332 669.485,46.299 670.342,45.747 C671.453,45.03 673.25,44.664 674.382,43.979 C675.628,43.226 677.338,42.142 678.17,40.948 C678.581,40.359 679.034,39.386 678.928,38.675 C678.734,37.386 677.375,36.008 676.403,35.14 C675.239,34.101 673.198,33.412 671.857,32.615 C671.008,32.11 669.983,31.247 669.08,30.847 C668.29,30.498 667.108,30.398 666.302,30.09 C665.669,29.848 664.638,29.656 664.281,29.08 C664.043,28.693 664.127,27.992 664.281,27.565 C664.482,27.008 665.051,26.376 665.544,26.049 C666.204,25.613 667.282,25.371 668.069,25.292 C668.902,25.208 670.043,25.315 670.847,25.544 C671.825,25.822 672.955,26.631 673.877,27.059 C674.924,27.545 676.443,27.948 677.412,28.574 C678.448,29.243 679.284,31.775 680.442,31.352 C680.649,31.277 680.597,30.837 680.538,30.626 C680.464,30.367 680.159,30.122 679.97,29.931 C679.675,29.636 679.201,29.331 678.897,29.047 C678.504,28.682 678.046,28.13 677.666,27.753 C677.39,27.48 676.998,27.139 676.719,26.869 C676.449,26.609 676.081,26.268 675.835,25.985 C675.742,25.878 675.609,25.736 675.551,25.606 C675.492,25.474 675.466,25.277 675.456,25.133 C675.447,24.991 675.437,24.793 675.488,24.659 C675.543,24.513 675.677,24.34 675.803,24.248 C676.193,23.965 676.878,23.513 677.318,23.711 C677.365,23.732 676.971,23.459 677.381,23.869 C677.791,24.279 678.73,25.399 679.402,25.952 C679.777,26.261 680.363,26.556 680.759,26.836 C681.217,27.16 681.801,27.627 682.242,27.972 C682.921,28.504 683.716,29.379 684.483,29.771 C684.833,29.95 685.37,30.005 685.746,30.118 C686.156,30.241 686.709,30.394 687.103,30.56 C687.33,30.655 687.618,30.814 687.83,30.939 C688.153,31.13 688.548,31.443 688.871,31.634 C689.192,31.822 689.624,32.079 689.976,32.202 C690.021,32.218 690.087,32.219 690.133,32.234 C690.36,32.305 690.651,32.437 690.86,32.549 C691.089,32.673 691.382,32.861 691.586,33.023 C691.854,33.236 692.15,33.587 692.407,33.812 C692.771,34.132 693.291,34.519 693.67,34.822 C693.906,35.011 694.207,35.285 694.459,35.453 C694.639,35.573 694.889,35.722 695.09,35.8 C695.599,36 696.322,36.132 696.859,36.242 C697.262,36.325 697.821,36.343 698.215,36.463 C698.605,36.582 699.152,36.751 699.446,37.031 C699.741,37.311 699.86,37.886 700.078,38.23 C700.356,38.67 700.901,39.146 701.119,39.619 C701.192,39.778 701.263,40.014 701.246,40.187 C701.229,40.352 701.167,40.607 701.024,40.692 C700.813,40.819 700.451,40.638 700.204,40.629 C699.788,40.613 699.231,40.614 698.815,40.629 C698.284,40.648 697.55,40.583 697.046,40.755 C696.788,40.843 696.554,41.194 696.289,41.26 C695.919,41.352 695.323,41.371 695.026,41.134 C694.792,40.947 694.868,40.442 694.71,40.187 C694.485,39.822 694.016,39.467 693.7,39.177 C693.463,38.959 693.129,38.687 692.88,38.482 C692.505,38.174 692.017,37.747 691.617,37.472 C691.309,37.26 690.888,36.987 690.543,36.841 C690.218,36.703 689.713,36.703 689.407,36.525 C689.221,36.417 689.062,36.162 688.902,36.02 C688.578,35.734 688.172,34.99 687.765,35.136 C687.601,35.195 687.625,35.53 687.639,35.704 C687.659,35.967 687.918,36.264 687.954,36.525 C688.012,36.94 687.871,37.498 687.828,37.914 C687.794,38.236 687.733,38.664 687.701,38.987 C687.679,39.214 687.554,39.533 687.638,39.744 C687.722,39.956 688.01,40.132 688.205,40.249 C688.534,40.446 689.044,40.561 689.405,40.691 C689.783,40.827 690.285,41.013 690.668,41.133 C691.006,41.239 691.473,41.324 691.805,41.449 C692.336,41.649 692.953,42.154 693.509,42.269 C693.991,42.37 694.665,42.291 695.151,42.206 C695.64,42.12 696.245,41.813 696.729,41.701 C697.233,41.584 697.917,41.469 698.434,41.449 C699.288,41.414 700.501,41.275 701.275,41.638 C701.723,41.848 702.086,42.464 702.412,42.837 C702.65,43.111 702.927,43.513 703.169,43.784 C703.634,44.303 704.459,44.824 704.811,45.425 C705.06,45.85 705.084,46.542 705.253,47.004 C705.409,47.434 705.952,47.941 705.884,48.393 C705.851,48.619 705.576,48.846 705.379,48.961 C705.078,49.138 704.591,49.19 704.243,49.213 C703.559,49.259 702.638,49.171 701.97,49.024 C701.537,48.929 700.994,48.678 700.581,48.519 C700.065,48.32 699.394,48.016 698.876,47.825 C698.539,47.7 698.081,47.558 697.74,47.446 C697.267,47.292 696.649,47.038 696.161,46.941 C695.714,46.852 695.099,46.866 694.646,46.815 C693.733,46.711 692.52,46.532 691.616,46.373 C690.968,46.259 690.122,46.005 689.469,45.931 C688.641,45.837 687.525,45.87 686.692,45.868 C685.499,45.864 683.908,45.955 682.714,45.931 C682.031,45.917 681.105,45.645 680.442,45.805 C680.186,45.867 679.919,46.129 679.684,46.247 C679.426,46.377 679.052,46.5 678.8,46.626 C678.547,46.752 677.161,47.548 676.464,47.952 C676.045,48.195 675.5,48.541 675.074,48.773 C674.405,49.138 673.445,49.501 672.802,49.91 C672.313,50.221 671.807,50.853 671.286,51.109 C671.146,51.178 670.929,51.183 670.781,51.235 C670.406,51.369 669.965,51.693 669.582,51.803 C669.105,51.939 668.427,51.899 667.94,51.992 C667.439,52.088 666.766,52.23 666.298,52.434 C665.807,52.648 665.291,53.21 664.782,53.381 C664.17,53.587 663.275,53.473 662.636,53.57 C662.196,53.637 661.617,53.99 661.184,53.886 C660.926,53.83 660.467,53.592 660.493,53.324 L660.493,53.324 Z" id="lake_constance_west" sketch:type="MSShapeGroup"></path>
        </g>
    </g>
</svg>