<?xml version="1.0" encoding="UTF-8" standalone="no"?>
<svg width="37px" height="32px" viewBox="0 0 37 32" version="1.1" xmlns="http://www.w3.org/2000/svg" xmlns:xlink="http://www.w3.org/1999/xlink" xmlns:sketch="http://www.bohemiancoding.com/sketch/ns">
    <!-- Generator: Sketch 3.1.1 (8761) - http://www.bohemiancoding.com/sketch -->
    <title>lake_biel</title>
    <desc>Created with Sketch.</desc>
    <defs></defs>
    <g id="Source" stroke="none" stroke-width="1" fill="none" fill-rule="evenodd" sketch:type="MSPage">
        <g id="Artboard-1" sketch:type="MSArtboardGroup" transform="translate(-248.000000, -222.000000)" stroke="#000000" stroke-width="0.2" fill="#D3EBFA" opacity="0.87">
            <path d="M253.781,251.693 C253.842,251.403 254.291,251.224 254.538,251.062 C254.822,250.876 255.247,250.713 255.548,250.557 C256.045,250.299 256.729,249.991 257.19,249.673 C257.809,249.246 258.552,248.563 259.084,248.032 C259.616,247.5 260.161,246.635 260.726,246.138 C261.238,245.686 262.109,245.328 262.62,244.875 C262.881,244.643 263.256,244.318 263.377,243.991 C263.601,243.387 263.885,242.241 263.377,241.845 C263.131,241.653 262.578,241.867 262.367,242.097 C262.031,242.466 262.307,243.28 262.114,243.739 C261.968,244.088 261.624,244.481 261.357,244.749 C260.553,245.553 259.235,246.34 258.326,247.022 C257.872,247.363 257.262,247.813 256.811,248.158 C256.276,248.569 255.296,248.916 255.043,249.547 C254.79,250.178 253.447,250.781 252.644,251.062 C251.997,251.289 251.056,251.352 250.371,251.314 C250.022,251.295 249.51,251.276 249.234,251.062 C249.034,250.906 248.994,250.517 248.856,250.304 C248.694,250.056 248.247,249.842 248.224,249.547 C248.207,249.327 248.455,249.08 248.603,248.916 C248.857,248.635 249.294,248.362 249.613,248.158 C250.084,247.857 250.744,247.503 251.255,247.274 C252.064,246.911 253.218,246.614 254.033,246.264 C254.733,245.963 255.74,245.639 256.306,245.128 C256.673,244.797 256.953,244.172 257.19,243.739 C257.45,243.263 257.599,242.513 257.948,242.097 C258.333,241.639 259.06,241.241 259.589,240.961 C260.056,240.714 260.779,240.603 261.231,240.33 C261.965,239.885 262.734,239.004 263.377,238.436 C264.021,237.868 264.772,236.957 265.524,236.542 C266.111,236.217 267.038,236.135 267.67,235.911 C268.134,235.746 268.77,235.545 269.185,235.28 C269.705,234.948 270.255,234.318 270.7,233.891 C271.126,233.484 271.811,233.022 272.089,232.502 C272.271,232.161 272.089,231.532 272.341,231.239 C272.63,230.903 273.37,230.992 273.73,230.734 C274.321,230.31 274.785,229.403 275.245,228.839 C275.619,228.381 276.094,227.747 276.508,227.324 C277.071,226.748 277.922,226.087 278.528,225.556 C279.134,225.026 279.868,224.22 280.549,223.788 C281.108,223.433 281.943,223.118 282.569,222.904 C283.013,222.753 283.725,222.225 284.085,222.526 C284.522,222.891 284.079,223.863 283.959,224.42 C283.891,224.736 283.792,225.186 283.58,225.43 C283.269,225.788 282.546,225.873 282.191,226.188 C281.459,226.836 280.74,227.968 280.297,228.839 C279.971,229.48 279.744,230.423 279.539,231.112 C279.327,231.825 279.251,232.851 278.908,233.511 C278.61,234.083 277.853,234.6 277.519,235.152 C276.947,236.097 276.613,237.569 276.13,238.562 C275.862,239.111 275.448,239.814 275.12,240.33 C274.697,240.995 274.043,241.821 273.605,242.476 C273.132,243.184 272.774,244.369 272.09,244.875 C271.743,245.132 271.099,245.086 270.701,245.253 C270.216,245.457 269.525,245.735 269.186,246.137 C268.769,246.632 268.696,247.568 268.428,248.157 C268.197,248.666 267.953,249.417 267.544,249.799 C267.21,250.112 266.603,250.333 266.155,250.43 C265.599,250.55 264.814,250.3 264.261,250.43 C263.848,250.527 263.348,250.823 262.998,251.061 C262.577,251.348 262.184,251.956 261.735,252.197 C261.08,252.551 260.04,252.587 259.336,252.828 C258.791,253.016 258.123,253.427 257.568,253.586 C257.089,253.723 256.423,253.873 255.926,253.838 C255.531,253.811 254.966,253.714 254.663,253.459 C254.211,253.079 253.659,252.273 253.781,251.693 L253.781,251.693 Z" id="lake_biel" sketch:type="MSShapeGroup"></path>
        </g>
    </g>
</svg>