<?xml version="1.0" encoding="UTF-8" standalone="no"?>
<svg width="46px" height="32px" viewBox="0 0 46 32" version="1.1" xmlns="http://www.w3.org/2000/svg" xmlns:xlink="http://www.w3.org/1999/xlink" xmlns:sketch="http://www.bohemiancoding.com/sketch/ns">
    <!-- Generator: Sketch 3.1.1 (8761) - http://www.bohemiancoding.com/sketch -->
    <title>lake_thun</title>
    <desc>Created with Sketch.</desc>
    <defs></defs>
    <g id="Source" stroke="none" stroke-width="1" fill="none" fill-rule="evenodd" sketch:type="MSPage">
        <g id="Artboard-1" sketch:type="MSArtboardGroup" transform="translate(-371.000000, -349.000000)" stroke="#000000" stroke-width="0.2" fill="#D3EBFA" opacity="0.87">
            <path d="M413.764,372.532 C414.156,373.009 413.837,374.017 414.143,374.553 C414.342,374.903 414.869,375.152 415.153,375.437 C415.438,375.722 415.85,376.09 416.037,376.447 C416.183,376.724 416.411,377.17 416.29,377.458 C416.086,377.942 415.278,378.188 414.774,378.342 C414.193,378.519 413.353,378.569 412.754,378.468 C412.268,378.387 411.726,377.909 411.238,377.837 C410.485,377.725 409.46,377.941 408.713,378.089 C407.937,378.243 406.929,378.572 406.188,378.847 C405.489,379.107 404.641,379.687 403.916,379.857 C403.066,380.057 401.861,380.178 401.012,379.984 C400.466,379.859 399.847,379.392 399.37,379.1 C398.859,378.787 398.226,378.295 397.728,377.963 C397.204,377.613 396.532,377.094 395.96,376.826 C395.385,376.557 394.561,376.325 393.939,376.195 C393.267,376.054 392.324,376.136 391.667,375.942 C391.342,375.846 390.932,375.635 390.656,375.437 C390.352,375.217 390.038,374.818 389.772,374.553 C389.544,374.325 389.149,374.087 389.014,373.795 C388.808,373.347 388.907,372.648 388.888,372.153 C388.875,371.812 389.098,371.286 388.888,371.017 C388.6,370.647 387.792,370.846 387.372,370.638 C386.937,370.422 386.46,369.963 386.109,369.627 C385.818,369.349 385.521,368.891 385.225,368.617 C384.809,368.23 384.164,367.821 383.71,367.48 C383.255,367.139 382.71,366.584 382.194,366.343 C381.736,366.13 381.047,366.071 380.552,365.965 C380.174,365.883 379.63,365.895 379.289,365.712 C378.817,365.459 378.392,364.841 378.026,364.449 C377.514,363.898 376.857,363.14 376.384,362.554 C376.147,362.26 375.815,361.873 375.626,361.544 C375.382,361.116 375.234,360.459 374.995,360.028 C374.837,359.744 374.635,359.326 374.363,359.144 C373.943,358.864 373.189,358.959 372.722,358.765 C372.392,358.628 371.885,358.447 371.711,358.134 C371.454,357.67 371.589,356.882 371.711,356.366 C371.828,355.871 372.396,355.353 372.469,354.85 C372.563,354.204 372.148,353.355 372.09,352.704 C372.034,352.062 371.828,351.146 372.09,350.558 C372.297,350.092 372.844,349.401 373.353,349.422 C374.291,349.459 374.868,351.001 375.499,351.693 C376.349,352.627 377.343,354.003 378.277,354.85 C378.899,355.415 379.798,356.114 380.549,356.492 C381.224,356.831 382.328,356.818 382.948,357.25 C383.657,357.743 384.093,358.925 384.716,359.522 C384.951,359.748 385.428,359.877 385.6,360.154 C385.844,360.545 385.537,361.334 385.853,361.669 C386.199,362.037 387.012,361.898 387.495,362.048 C388.273,362.292 389.263,362.755 390.02,363.059 C390.777,363.362 391.855,363.634 392.545,364.069 C393.634,364.755 394.917,365.954 395.701,366.973 C396.197,367.618 396.699,368.603 396.964,369.372 C397.103,369.772 396.955,370.428 397.217,370.761 C397.678,371.348 398.76,371.616 399.489,371.771 C400.119,371.905 400.994,371.819 401.635,371.771 C402.4,371.714 403.395,371.366 404.16,371.392 C404.858,371.416 405.741,371.801 406.433,371.898 C407.072,371.987 407.937,372.087 408.579,372.024 C409.319,371.95 410.235,371.341 410.977,371.392 C411.468,371.426 412.037,371.837 412.493,372.024 C412.879,372.182 413.505,372.217 413.764,372.532 L413.764,372.532 Z" id="lake_thun" sketch:type="MSShapeGroup"></path>
        </g>
    </g>
</svg>