<?xml version="1.0" encoding="UTF-8" standalone="no"?>
<svg width="92px" height="57px" viewBox="0 0 92 57" version="1.1" xmlns="http://www.w3.org/2000/svg" xmlns:xlink="http://www.w3.org/1999/xlink" xmlns:sketch="http://www.bohemiancoding.com/sketch/ns">
    <!-- Generator: Sketch 3.1.1 (8761) - http://www.bohemiancoding.com/sketch -->
    <title>lake_zurich</title>
    <desc>Created with Sketch.</desc>
    <defs></defs>
    <g id="Source" stroke="none" stroke-width="1" fill="none" fill-rule="evenodd" sketch:type="MSPage">
        <g id="Artboard-1" sketch:type="MSArtboardGroup" transform="translate(-573.000000, -147.000000)" stroke="#000000" stroke-width="0.2" fill="#D3EBFA" opacity="0.87">
            <path d="M662.64,192.978 C663.167,192.965 663.856,193.298 664.282,193.609 C664.478,193.753 664.721,194.007 664.787,194.24 C664.87,194.534 664.796,194.976 664.661,195.25 C664.402,195.779 663.702,196.236 663.272,196.639 C662.684,197.189 661.92,197.958 661.251,198.407 C660.548,198.879 659.526,199.395 658.726,199.67 C657.813,199.983 656.535,200.274 655.569,200.301 C655.034,200.316 654.336,200.097 653.801,200.049 C652.895,199.966 651.68,199.885 650.771,199.923 C649.856,199.961 648.647,200.17 647.741,200.302 C647.285,200.368 646.622,200.319 646.225,200.554 C645.854,200.775 645.585,201.334 645.341,201.691 C645.092,202.055 644.856,202.606 644.584,202.954 C644.386,203.207 644.128,203.601 643.826,203.711 C643.004,204.01 641.787,203.586 640.922,203.459 C640.003,203.324 638.788,203.07 637.892,202.828 C637.198,202.641 636.275,202.364 635.619,202.071 C635.061,201.821 634.363,201.394 633.851,201.061 C633.102,200.573 632.284,199.622 631.452,199.293 C630.849,199.055 629.954,199.036 629.306,199.041 C628.733,199.045 627.975,199.186 627.412,199.293 C627.105,199.352 626.713,199.516 626.401,199.546 C625.684,199.615 624.721,199.474 624.003,199.42 C622.864,199.333 621.312,199.358 620.215,199.041 C619.971,198.97 619.711,198.646 619.457,198.662 C619.048,198.688 618.624,199.144 618.32,199.42 C617.922,199.782 617.69,200.628 617.184,200.809 C616.82,200.939 616.275,200.71 615.92,200.556 C615.322,200.297 614.624,199.743 614.152,199.293 C613.665,198.827 613.211,198.03 612.763,197.525 C611.981,196.643 610.833,195.565 609.985,194.747 C609.464,194.245 608.801,193.533 608.217,193.105 C607.409,192.514 606.099,192.084 605.313,191.463 C604.746,191.015 604.066,190.302 603.671,189.695 C603.357,189.211 603.21,188.422 602.914,187.927 C602.54,187.303 601.893,186.566 601.398,186.033 C600.906,185.503 600.276,184.718 599.63,184.391 C598.907,184.025 597.786,183.944 596.979,183.886 C596.146,183.826 595.03,184.102 594.201,184.012 C593.616,183.949 592.845,183.745 592.307,183.507 C591.606,183.196 590.815,182.517 590.16,182.118 C589.639,181.8 588.863,181.497 588.392,181.108 C587.854,180.663 587.352,179.853 586.877,179.34 C586.33,178.75 585.29,178.188 584.982,177.446 C584.707,176.781 585.119,175.754 584.982,175.047 C584.828,174.246 584.327,173.256 583.972,172.522 C583.574,171.697 582.934,170.653 582.456,169.871 C581.985,169.1 581.264,168.13 580.814,167.346 C580.393,166.611 579.864,165.608 579.551,164.821 C579.26,164.086 579.061,163.04 578.793,162.296 C578.529,161.561 578.017,160.642 577.783,159.897 C577.563,159.195 577.588,158.165 577.278,157.498 C577.096,157.106 576.646,156.712 576.394,156.362 C576.075,155.919 575.634,155.332 575.383,154.847 C575.141,154.378 574.984,153.68 574.752,153.205 C574.558,152.808 574.049,152.381 573.994,151.942 C573.945,151.549 574.227,151.047 574.373,150.679 C574.623,150.049 575.026,149.235 575.383,148.658 C575.582,148.336 575.762,147.648 576.141,147.648 C576.899,147.648 577.168,149.089 577.657,149.669 C578.261,150.386 579.287,151.159 579.803,151.942 C580.326,152.735 580.719,153.962 581.066,154.846 C581.359,155.593 581.769,156.589 581.95,157.371 C582.096,158.002 582.006,158.899 582.203,159.517 C582.347,159.969 582.745,160.482 582.96,160.906 C583.282,161.541 583.66,162.412 583.971,163.052 C584.267,163.662 584.685,164.463 584.981,165.073 C585.292,165.713 585.721,166.561 585.991,167.219 C586.251,167.851 586.424,168.765 586.749,169.365 C587.135,170.078 587.833,170.924 588.391,171.511 C589.076,172.232 590.167,173.004 590.916,173.658 C591.644,174.293 592.604,175.15 593.315,175.804 C594.044,176.475 594.892,177.522 595.714,178.077 C596.542,178.637 597.802,179.13 598.744,179.466 C599.592,179.769 600.777,179.994 601.648,180.224 C602.216,180.374 602.989,180.529 603.542,180.729 C604.053,180.914 604.712,181.218 605.184,181.487 C605.824,181.851 606.632,182.414 607.205,182.876 C607.934,183.466 608.778,184.397 609.477,185.023 C609.958,185.453 610.628,185.992 611.119,186.412 C611.69,186.901 612.383,187.644 613.014,188.054 C613.539,188.395 614.338,188.676 614.908,188.938 C615.324,189.129 615.88,189.382 616.297,189.569 C616.978,189.875 617.858,190.36 618.57,190.579 C618.974,190.704 619.542,190.76 619.959,190.831 C620.904,190.993 622.16,191.26 623.116,191.336 C623.984,191.405 625.149,191.359 626.019,191.336 C626.74,191.317 627.741,191.456 628.418,191.21 C628.774,191.081 629.088,190.619 629.429,190.452 C629.817,190.263 630.444,190.29 630.818,190.074 C631.235,189.832 631.518,189.144 631.955,188.937 C632.299,188.774 632.837,188.806 633.217,188.811 C633.523,188.814 633.931,188.866 634.228,188.937 C634.776,189.067 635.583,189.185 635.996,189.568 C636.479,190.019 636.628,190.977 636.88,191.589 C637.159,192.265 637.349,193.26 637.764,193.862 C638.054,194.281 638.627,194.682 639.027,194.998 C639.497,195.37 640.111,195.916 640.669,196.134 C641.417,196.427 642.518,196.506 643.32,196.513 C643.931,196.518 644.782,196.508 645.341,196.261 C645.66,196.12 645.889,195.599 646.225,195.503 C646.704,195.366 647.386,195.625 647.867,195.756 C648.261,195.863 648.742,196.135 649.13,196.261 C649.725,196.453 650.527,196.813 651.151,196.766 C651.642,196.729 652.192,196.268 652.667,196.135 C653.146,196.001 653.82,195.985 654.309,195.883 C654.884,195.762 655.638,195.542 656.203,195.378 C656.813,195.201 657.625,194.959 658.224,194.747 C658.8,194.542 659.546,194.207 660.118,193.989 C660.533,193.831 661.097,193.65 661.508,193.484 C661.85,193.343 662.267,192.987 662.64,192.978 L662.64,192.978 Z" id="lake_zurich" sketch:type="MSShapeGroup"></path>
        </g>
    </g>
</svg>