<?xml version="1.0" encoding="UTF-8" standalone="no"?>
<svg width="25px" height="18px" viewBox="0 0 25 18" version="1.1" xmlns="http://www.w3.org/2000/svg" xmlns:xlink="http://www.w3.org/1999/xlink" xmlns:sketch="http://www.bohemiancoding.com/sketch/ns">
    <!-- Generator: Sketch 3.1.1 (8761) - http://www.bohemiancoding.com/sketch -->
    <title>lake_murten</title>
    <desc>Created with Sketch.</desc>
    <defs></defs>
    <g id="Source" stroke="none" stroke-width="1" fill="none" fill-rule="evenodd" sketch:type="MSPage">
        <g id="Artboard-1" sketch:type="MSArtboardGroup" transform="translate(-237.000000, -280.000000)" stroke="#000000" stroke-width="0.2" fill="#D3EBFA" opacity="0.87">
            <path d="M237.997,293.488 C237.98,294.065 238.431,294.778 238.755,295.256 C239.115,295.788 239.738,296.411 240.27,296.771 C240.748,297.094 241.478,297.391 242.038,297.528 C242.997,297.764 244.348,297.948 245.321,297.781 C246.056,297.654 247.003,297.226 247.594,296.771 C247.978,296.475 248.322,295.903 248.604,295.508 C248.892,295.106 249.185,294.509 249.488,294.119 C249.998,293.463 250.65,292.491 251.383,292.099 C251.992,291.773 253.013,291.974 253.655,291.72 C254.163,291.519 254.758,291.068 255.17,290.71 C255.858,290.111 256.589,289.123 257.191,288.437 C257.687,287.872 258.227,286.989 258.833,286.543 C259.366,286.151 260.503,286.22 260.853,285.659 C261.335,284.888 260.955,283.51 260.727,282.629 C260.6,282.137 260.356,281.443 259.969,281.114 C259.486,280.702 258.584,280.483 257.949,280.483 C257.314,280.483 256.513,280.867 255.928,281.114 C254.975,281.516 253.839,282.326 252.898,282.755 C252.014,283.158 250.791,283.593 249.867,283.892 C249.456,284.025 248.877,284.104 248.478,284.271 C247.71,284.591 246.75,285.169 246.079,285.66 C245.17,286.325 244.192,287.496 243.301,288.185 C242.37,288.905 240.893,289.545 240.018,290.331 C239.617,290.691 239.174,291.268 238.881,291.72 C238.559,292.218 238.015,292.895 237.997,293.488 L237.997,293.488 Z" id="lake_murten" sketch:type="MSShapeGroup"></path>
        </g>
    </g>
</svg>