<?xml version="1.0" encoding="UTF-8" standalone="no"?>
<svg width="38px" height="33px" viewBox="0 0 38 33" version="1.1" xmlns="http://www.w3.org/2000/svg" xmlns:xlink="http://www.w3.org/1999/xlink" xmlns:sketch="http://www.bohemiancoding.com/sketch/ns">
    <!-- Generator: Sketch 3.1.1 (8761) - http://www.bohemiancoding.com/sketch -->
    <title>lake_maggiore</title>
    <desc>Created with Sketch.</desc>
    <defs></defs>
    <g id="Source" stroke="none" stroke-width="1" fill="none" fill-rule="evenodd" sketch:type="MSPage">
        <g id="Artboard-1" sketch:type="MSArtboardGroup" transform="translate(-608.000000, -533.000000)" stroke="#000000" stroke-width="0.2" fill="#D3EBFA" opacity="0.87">
            <path d="M609.004,565.539 C609.004,565.539 608.915,565.327 608.892,565.231 C608.774,564.736 608.647,564.052 608.69,563.545 C608.736,562.989 609.072,562.301 609.214,561.761 C609.461,560.823 609.738,559.561 609.948,558.615 C610.08,558.018 610.141,557.189 610.368,556.622 C610.791,555.559 611.821,554.379 612.361,553.369 C612.786,552.575 613.25,551.464 613.62,550.641 C613.973,549.858 614.367,548.776 614.773,548.019 C615.021,547.557 615.383,546.954 615.717,546.55 C616.215,545.95 617.021,545.281 617.606,544.767 C618.126,544.308 618.836,543.716 619.389,543.298 C619.786,542.997 620.319,542.596 620.753,542.354 C621.232,542.086 621.905,541.779 622.431,541.62 C622.952,541.463 623.672,541.282 624.215,541.306 C624.702,541.327 625.337,541.537 625.788,541.725 C626.191,541.893 626.659,542.257 627.047,542.459 C627.509,542.701 628.112,543.081 628.62,543.193 C629.081,543.296 629.758,543.374 630.194,543.193 C630.564,543.04 630.859,542.537 631.138,542.249 C631.649,541.722 632.326,541.014 632.816,540.466 C633.173,540.067 633.76,539.595 633.97,539.103 C634.206,538.549 634.021,537.689 634.18,537.11 C634.299,536.675 634.526,536.096 634.809,535.746 C635.106,535.379 635.653,535.026 636.069,534.802 C636.392,534.627 636.879,534.514 637.222,534.383 C637.856,534.141 638.646,533.61 639.321,533.543 C639.831,533.493 640.554,533.604 641,533.857 C641.581,534.189 642.034,535.027 642.468,535.536 C642.787,535.91 643.242,536.388 643.518,536.795 C643.778,537.181 644.068,537.733 644.252,538.159 C644.409,538.524 644.607,539.025 644.671,539.418 C644.712,539.666 644.586,540.021 644.671,540.257 C644.755,540.488 645.081,540.669 645.196,540.887 C645.302,541.089 645.387,541.393 645.405,541.621 C645.425,541.874 645.452,542.257 645.301,542.46 C645.116,542.709 644.635,542.743 644.357,542.88 C643.94,543.085 643.444,543.501 642.994,543.614 C642.597,543.714 642.035,543.557 641.63,543.614 C641.176,543.677 640.602,543.908 640.161,544.034 C639.5,544.222 638.623,544.488 637.958,544.663 C637.051,544.902 635.796,545.069 634.916,545.397 C633.953,545.756 632.666,546.317 631.874,546.971 C631.286,547.455 630.84,548.426 630.3,548.964 C629.649,549.612 628.627,550.306 627.887,550.852 C627.178,551.375 626.175,551.995 625.475,552.531 C624.659,553.155 623.519,553.952 622.852,554.734 C622.614,555.013 622.526,555.577 622.223,555.783 C621.906,555.999 621.33,555.883 620.963,555.993 C620.666,556.082 620.285,556.254 620.02,556.413 C619.576,556.677 619.034,557.11 618.656,557.462 C618.068,558.008 617.348,558.81 616.873,559.455 C616.437,560.046 615.951,560.901 615.614,561.554 C615.218,562.317 614.731,563.361 614.46,564.176 C614.328,564.574 614.146,565.54 614.146,565.54 L609.004,565.54 L609.004,565.539 Z" id="lake_maggiore" sketch:type="MSShapeGroup"></path>
        </g>
    </g>
</svg>