<?xml version="1.0" encoding="UTF-8" standalone="no"?>
<svg width="149px" height="167px" viewBox="0 0 149 167" version="1.1" xmlns="http://www.w3.org/2000/svg" xmlns:xlink="http://www.w3.org/1999/xlink" xmlns:sketch="http://www.bohemiancoding.com/sketch/ns">
    <!-- Generator: Sketch 3.1.1 (8761) - http://www.bohemiancoding.com/sketch -->
    <title>LU</title>
    <desc>Created with Sketch.</desc>
    <defs></defs>
    <g id="Source" stroke="none" stroke-width="1" fill="none" fill-rule="evenodd" sketch:type="MSPage">
        <g id="Artboard-1" sketch:type="MSArtboardGroup" transform="translate(-418.000000, -175.000000)" stroke="#000000" stroke-width="0.5" fill="#71C837">
            <path d="M463.432,337.262 L464.916,334.328 L468.023,331.586 L467.658,329.941 L463.089,322.812 L463.089,320.07 L464.368,317.146 L466.744,315.318 L468.207,312.393 L468.937,310.017 L469.486,302.888 L471.132,301.426 L474.056,298.135 L475.519,296.124 L478.444,297.952 L478.078,300.511 L479.906,301.059 L482.099,296.672 L483.562,293.199 L486.121,290.275 L489.228,287.716 L486.852,282.597 L491.97,278.393 L496.174,278.028 L498.002,279.49 L503.727,277.286 L501.686,269.503 L507.76,266.66 L510.991,267.177 L514.094,265.497 L519.91,267.694 L523.917,267.823 L525.985,267.565 L527.019,268.599 L529.216,267.177 L532.189,268.341 L535.291,265.368 L537.618,264.076 L540.074,263.947 L540.462,268.212 L543.951,268.212 L546.835,267.575 C547.552,267.672 548.523,267.607 549.246,267.576 C549.863,267.549 550.682,267.424 551.299,267.397 C552.183,267.359 553.362,267.412 554.246,267.397 C555.022,267.384 556.25,266.796 556.835,267.308 L558.688,268.646 L560.45,267.769 L563.717,268.204 L564.997,267.792 L566.094,266.695 L565.911,260.023 L564.356,259.246 L562.757,258.287 L561.111,256.459 L558.14,253.809 L556.553,251.797 L554.872,251.344 L553.45,251.667 L550.865,251.796 L547.812,251.157 L543.791,250.243 L541.506,248.689 L541.049,248.049 L542.511,246.495 L543.882,244.941 L544.888,242.473 L544.979,241.742 L548.543,238.451 L552.474,233.516 L554.21,232.236 L556.084,231.002 L555.764,228.032 L555.307,226.478 L554.393,226.752 L552.931,228.123 L550.92,227.483 L549.092,224.741 L546.245,220.115 L541.406,221.639 L536.008,222.961 L533.695,223.292 L532.153,220.758 L530.059,216.571 L528.077,212.385 L525.873,206.546 L525.102,202.029 L523.339,196.741 L521.245,189.91 L520.254,185.283 L520.034,181.978 L519.373,179.885 L518.712,179.444 L514.415,178.232 L513.424,176.47 L510.009,175.699 L507.806,175.809 L503.288,181.648 L500.755,183.08 L499.763,185.724 L498.992,189.69 L498.661,192.114 L497.559,194.317 L495.686,195.859 L493.704,196.19 L491.391,195.529 L489.628,193.987 L489.407,192.665 L489.407,191.123 L491.941,189.911 L491.61,188.479 L489.848,188.92 L484.78,189.471 L479.492,189.911 L476.848,189.36 L476.738,186.496 L475.857,184.293 L475.526,183.742 L473.874,183.411 L471.34,182.86 L468.807,183.631 L467.595,184.512 L467.044,186.715 L466.273,189.028 L463.629,189.799 L461.095,190.019 L458.231,189.799 L456.358,189.799 L456.579,188.587 L456.799,184.841 L456.799,182.087 L456.139,180.104 L454.596,177.24 L452.833,177.901 L449.858,178.782 L448.426,178.782 L446.553,178.782 L445.231,177.57 L443.91,177.35 L443.8,179.443 L443.8,188.146 L443.249,189.248 L442.367,190.239 L441.046,191.01 L437.079,190.79 L435.207,189.909 L431.901,189.469 L427.605,190.02 L425.622,190.571 L423.64,191.893 L419.463,192.249 L419.453,193.325 L419.232,195.749 L420.334,199.936 L422.979,205.444 L424.961,208.088 L426.613,210.511 L426.944,212.274 L426.283,217.342 L426.283,220.647 L428.486,223.952 L429.478,226.486 L428.486,229.02 L426.613,231.113 L425.732,233.647 L426.503,237.393 L426.723,239.486 L426.833,242.35 L426.282,244.773 L425.842,249.29 L424.74,252.044 L426.943,254.137 L429.256,256.891 L430.137,258.874 L430.468,261.849 L431.239,265.044 L434.434,264.603 L437.959,264.823 L440.383,265.594 L441.044,268.568 L442.365,272.314 L442.586,274.627 L441.044,277.822 L438.95,281.237 L438.179,284.652 L437.076,286.745 L434.763,289.168 L431.018,288.728 L429.035,290.601 L426.391,292.033 L423.527,294.346 L425.29,295.668 L426.281,297.761 L426.171,302.828 L424.959,305.362 L421.434,305.252 L421.875,312.413 L423.196,316.049 L424.188,318.142 L430.027,322.328 L435.535,325.523 L441.814,330.812 L445.78,335.548 L449.362,341.219 L452.283,339.857 L458.904,337.909 L463.432,337.262 L463.432,337.262 Z" id="LU" sketch:type="MSShapeGroup"></path>
        </g>
    </g>
</svg>