<?xml version="1.0" encoding="UTF-8" standalone="no"?>
<svg width="150px" height="103px" viewBox="0 0 150 103" version="1.1" xmlns="http://www.w3.org/2000/svg" xmlns:xlink="http://www.w3.org/1999/xlink" xmlns:sketch="http://www.bohemiancoding.com/sketch/ns">
    <!-- Generator: Sketch 3.1.1 (8761) - http://www.bohemiancoding.com/sketch -->
    <title>NE</title>
    <desc>Created with Sketch.</desc>
    <defs></defs>
    <g id="Source" stroke="none" stroke-width="1" fill="none" fill-rule="evenodd" sketch:type="MSPage">
        <g id="Artboard-1" sketch:type="MSArtboardGroup" transform="translate(-104.000000, -213.000000)" stroke="#000000" stroke-width="0.5" fill="#71C837">
            <path d="M249.102,250.442 C249.102,250.442 247.498,250.778 246.795,250.873 C246.101,250.968 245.152,250.932 244.469,251.085 C243.744,251.247 242.815,251.615 242.142,251.931 C241.344,252.305 240.352,252.945 239.604,253.411 C238.828,253.895 237.773,254.523 237.066,255.103 C236.441,255.615 235.625,256.344 235.163,257.006 C234.643,257.751 234.288,258.937 233.894,259.756 C233.525,260.523 232.994,261.527 232.625,262.294 C232.231,263.113 231.356,265.044 231.356,265.021 L236.543,269.858 L218.797,284.123 L211.125,290.68 L203.523,296.964 L179.212,315.249 L176.731,307.353 L174.079,305.409 L173.372,298.161 L170.19,296.217 L171.605,292.151 L169.307,286.671 L166.125,287.908 L160.822,292.858 L154.281,297.101 L150.569,301.874 L142.791,303.996 L137.134,306.647 L127.942,312.658 L111.51,314.99 C112.227,311.898 111.655,308.19 111.655,308.19 L112.29,302.057 L109.752,299.73 L107.003,295.923 L104.465,292.751 L108.272,287.041 L113.982,280.696 L117.154,277.312 L118.846,277.735 L121.595,276.677 L126.248,274.985 L131.958,272.87 L138.091,270.543 L140.84,269.063 L146.55,268.851 L148.453,267.582 L151.414,262.929 L154.374,257.007 L157.758,255.104 L160.296,254.893 L162.834,253.835 L163.045,251.932 L162.41,250.029 L159.872,249.183 L159.872,247.28 L160.718,245.377 L164.102,245.377 L165.16,243.685 L166.006,241.993 L166.429,239.032 L167.487,238.186 L171.294,238.397 L174.678,237.551 L175.524,235.648 L173.621,231.63 L174.57,231.355 C175.175,230.976 176.002,230.477 176.507,229.971 C177.012,229.466 177.366,228.518 177.891,228.034 C178.247,227.705 178.804,227.315 179.275,227.204 C180.328,226.955 181.831,227.775 182.873,227.48 C183.959,227.172 184.991,225.912 185.917,225.266 C187.145,224.411 188.872,223.399 190.068,222.499 C191.197,221.649 192.613,220.399 193.666,219.455 C195.458,217.847 198.529,216.133 199.471,213.978 L204.099,213.899 L206.67,216.674 L208.384,220.403 L208.851,226.323 L207.761,230.53 L205.58,233.334 L206.203,237.073 L209.786,235.515 L213.213,233.957 L217.575,231.776 L222.717,229.283 L231.13,228.192 L237.05,228.036 L238.764,229.127 L245.775,232.866 L252.318,237.228 L253.253,240.5 L252.941,244.239 L252.006,249.069 L249.102,250.442 L249.102,250.442 Z" id="NE" sketch:type="MSShapeGroup"></path>
        </g>
    </g>
</svg>