<?xml version="1.0" encoding="UTF-8" standalone="no"?>
<svg width="84px" height="79px" viewBox="0 0 84 79" version="1.1" xmlns="http://www.w3.org/2000/svg" xmlns:xlink="http://www.w3.org/1999/xlink" xmlns:sketch="http://www.bohemiancoding.com/sketch/ns">
    <!-- Generator: Sketch 3.1.1 (8761) - http://www.bohemiancoding.com/sketch -->
    <title>NW</title>
    <desc>Created with Sketch.</desc>
    <defs></defs>
    <g id="Source" stroke="none" stroke-width="1" fill="none" fill-rule="evenodd" sketch:type="MSPage">
        <g id="Artboard-1" sketch:type="MSArtboardGroup" transform="translate(-501.000000, -263.000000)" stroke="#000000" stroke-width="0.5" fill="#71C837">
            <path d="M557.391,314.592 L557.371,307.915 L558.934,303.852 L558.246,302.664 L557.558,302.852 L557.37,301.352 L555.557,301.477 L557.932,298.039 L560.307,296.851 L564.057,295.476 L567.37,293.476 L569.558,291.663 L570.871,291.1 L573.996,289.037 L576.434,285.974 L580.059,283.349 L581.247,281.849 L580.997,279.036 L581.185,276.598 L582.748,274.66 L584.123,273.222 L583.873,272.097 L583.242,270.092 L576.072,272.788 L568.382,274.025 L559.19,271.196 L558.68,268.627 L556.837,267.302 C556.252,266.791 555.024,267.378 554.248,267.391 C553.364,267.406 552.185,267.353 551.301,267.391 C550.684,267.418 549.865,267.543 549.248,267.57 C548.525,267.601 547.554,267.666 546.837,267.569 L543.953,268.206 L540.464,268.206 L540.076,263.941 L537.62,264.07 L535.293,265.362 L532.191,268.335 L529.218,267.171 L527.021,268.593 L525.987,267.559 L523.919,267.817 L519.912,267.688 L514.096,265.491 L510.993,267.171 L507.762,266.654 L501.688,269.497 L503.73,277.28 L510.8,275.097 L517.929,276.559 L522.133,278.021 L522.316,280.397 L519.756,285.333 L518.477,287.526 L518.843,289.172 L519.756,291.914 L521.768,292.828 L524.875,294.29 L527.616,293.193 L529.809,293.559 L528.712,300.323 L527.982,305.99 L526.885,314.032 L526.885,318.602 L527.25,322.44 L525.787,325.913 L524.508,327.741 L534.356,335.997 L540.08,339.62 L541.465,340.991 L544.6,338.389 L545.246,336.967 L545.246,335.803 L544.083,334.511 L542.531,333.736 L540.076,331.926 L538.654,329.341 L536.973,327.144 L536.069,324.559 L535.293,320.164 L535.035,316.286 L534.776,312.926 L535.681,311.246 L537.361,311.246 L538.783,312.409 L538.912,313.314 L537.49,313.96 L537.62,314.994 L539.43,315.64 L540.981,315.381 L543.178,314.089 L544.988,311.892 L548.219,315.123 L557.391,314.592 L557.391,314.592 Z" id="NW" sketch:type="MSShapeGroup"></path>
        </g>
    </g>
</svg>