<?xml version="1.0" encoding="UTF-8" standalone="no"?>
<svg width="104px" height="75px" viewBox="0 0 104 75" version="1.1" xmlns="http://www.w3.org/2000/svg" xmlns:xlink="http://www.w3.org/1999/xlink" xmlns:sketch="http://www.bohemiancoding.com/sketch/ns">
    <!-- Generator: Sketch 3.1.1 (8761) - http://www.bohemiancoding.com/sketch -->
    <title>OW</title>
    <desc>Created with Sketch.</desc>
    <defs></defs>
    <g id="Source" stroke="none" stroke-width="1" fill="none" fill-rule="evenodd" sketch:type="MSPage">
        <g id="Artboard-1" sketch:type="MSArtboardGroup" transform="translate(-462.000000, -274.000000)" stroke="#000000" stroke-width="0.5" fill="#71C837">
            <path d="M534.357,336.002 L524.506,327.748 L525.785,325.92 L527.248,322.447 L526.883,318.609 L526.883,314.039 L527.98,305.997 L528.71,300.33 L529.807,293.566 L527.614,293.2 L524.873,294.297 L521.766,292.835 L519.754,291.921 L518.841,289.179 L518.475,287.533 L519.754,285.34 L522.314,280.404 L522.131,278.028 L517.927,276.566 L510.798,275.104 L503.733,277.282 L498.003,279.491 L496.175,278.029 L491.971,278.394 L486.853,282.598 L489.229,287.717 L486.122,290.276 L483.563,293.2 L482.1,296.673 L479.907,301.06 L478.079,300.512 L478.445,297.953 L475.52,296.125 L474.057,298.136 L471.133,301.427 L469.487,302.889 L468.938,310.018 L468.208,312.394 L466.745,315.319 L464.369,317.147 L463.09,320.071 L463.09,322.813 L467.659,329.942 L468.024,331.587 L464.917,334.329 L463.427,337.255 L465.451,337.564 L473.241,338.655 L476.045,339.433 L483.057,345.042 L489.288,347.224 L494.741,344.886 L497.701,343.951 L503.31,343.796 L506.737,343.173 L511.412,345.042 L516.241,348.157 L522.629,343.483 L526.057,340.368 L529.679,338.848 L533.653,337.135 L534.357,336.002 L534.357,336.002 Z M557.393,314.599 L561.706,314.587 L562.986,315.135 L565.088,315.775 L565.454,318.334 L561.615,320.345 L559.055,323.087 L557.501,327.566 L558.689,328.663 L559.603,330.125 L559.054,331.679 L557.866,332.136 L556.038,332.044 L555.946,333.142 L560.15,334.147 L559.785,336.066 L561.247,337.346 L562.71,339.722 L562.893,340.636 L559.877,343.47 L558.78,342.738 L556.952,342.281 L555.489,342.099 L552.695,342.39 L547.009,339.667 L542.919,342.899 L541.456,340.993 L544.596,338.397 L545.242,336.975 L545.242,335.811 L544.079,334.519 L542.527,333.744 L540.072,331.934 L538.65,329.349 L536.969,327.152 L536.065,324.567 L535.289,320.172 L535.031,316.294 L534.772,312.934 L535.677,311.254 L537.357,311.254 L538.779,312.417 L538.908,313.322 L537.486,313.968 L537.616,315.002 L539.426,315.648 L540.977,315.389 L543.174,314.097 L544.984,311.9 L548.215,315.131 L557.393,314.599 L557.393,314.599 Z" id="OW" sketch:type="MSShapeGroup"></path>
        </g>
    </g>
</svg>