<?xml version="1.0" encoding="UTF-8" standalone="no"?>
<svg width="199px" height="225px" viewBox="0 0 199 225" version="1.1" xmlns="http://www.w3.org/2000/svg" xmlns:xlink="http://www.w3.org/1999/xlink" xmlns:sketch="http://www.bohemiancoding.com/sketch/ns">
    <!-- Generator: Sketch 3.1.1 (8761) - http://www.bohemiancoding.com/sketch -->
    <title>SG</title>
    <desc>Created with Sketch.</desc>
    <defs></defs>
    <g id="Source" stroke="none" stroke-width="1" fill="none" fill-rule="evenodd" sketch:type="MSPage">
        <g id="Artboard-1" sketch:type="MSArtboardGroup" transform="translate(-628.000000, -81.000000)" stroke="#000000" stroke-width="0.5" fill="#71C837">
            <path d="M782.931,81.306 L771.322,97.438 L769.7,98.756 L766.761,101.493 L763.618,102.811 L762.604,106.257 L761.894,109.501 L760.273,108.893 L757.232,107.98 L756.725,105.446 L754.089,101.797 L751.758,101.391 L748.919,98.857 L749.224,98.553 L750.136,96.627 L748.412,96.222 L749.629,93.789 L746.892,92.268 L745.777,93.383 L743.142,93.687 L740.202,94.194 L737.973,94.599 L736.756,96.728 L734.628,97.843 L733.513,98.35 L733.31,99.566 L736.149,100.174 L737.77,99.363 L740.406,99.16 L742.94,102.099 L743.852,106.458 L744.257,108.587 L741.419,109.803 L737.263,110.31 L733.108,111.932 L730.269,113.148 L726.924,112.844 L723.173,110.208 L721.146,108.992 L716.788,109.398 L715.369,107.877 L714.659,106.052 L713.138,105.95 L710.909,105.342 L707.158,102.199 L706.043,105.443 L702.395,108.89 L699.658,109.802 L694.286,110.309 L691.347,108.586 L689.42,106.559 L684.96,104.43 L682.021,103.923 L679.183,105.241 L675.33,106.153 L673.607,107.978 L673.505,110.411 L675.431,113.756 L677.256,115.074 L681.108,118.115 L682.629,119.129 L682.122,123.184 L680.804,125.414 L676.851,125.414 L671.682,126.022 L670.567,127.542 L669.655,132.509 L667.628,134.232 L666.513,137.476 L665.891,139.571 L664.673,140.073 L663.311,141.865 L661.383,142.933 L662.43,145.335 L664.993,150.815 L668.087,155.676 L668.883,161.51 L667.999,165.399 L663.845,166.106 L660.928,168.846 L658.895,171.144 L659.514,173.177 L660.928,172.735 L661.369,173.884 L659.69,177.596 L659.778,180.601 L654.033,182.103 L649.376,183.724 L647.188,185.349 L645.625,186.287 L643.375,186.287 L639.375,185.724 L637.125,184.474 L634.562,183.911 L632.187,184.661 L630.249,186.661 L628.999,188.724 L629.499,190.412 L629.593,194.943 L637.874,198.349 L650.274,198.367 L658.096,196.997 L663.62,195.008 L665.389,196.82 L667.024,197.792 L667.245,205.747 L667.908,208.089 L670.428,207.647 L673.334,208.377 C673.864,210.338 676.294,212.09 677.805,213.451 C680.817,216.165 685.514,218.934 688.783,221.332 C689.464,221.832 690.316,222.577 691.035,223.021 C691.999,223.617 693.302,224.489 694.413,224.71 C695.575,224.941 697.052,223.896 698.195,223.583 C699.105,223.333 701.432,222.704 701.432,222.704 L714.154,226.574 L714.154,229.615 L714.357,233.061 L714.762,240.765 L714.965,243.502 L711.822,247.557 L709.288,248.469 L705.74,249.584 L704.726,250.192 L704.422,252.118 L705.131,254.145 L706.449,255.869 L709.084,256.68 L714.355,256.984 L716.584,255.97 L718.713,254.855 L721.045,254.145 L723.071,254.855 L725.808,256.781 L726.822,261.748 L728.139,268.945 L728.545,279.284 L726.315,281.919 L725.504,282.831 L727.632,284.656 L729.457,286.785 L731.079,290.434 L730.356,293.767 L734.22,297.834 L735.335,297.226 L737.16,295.909 L739.186,295.605 L741.721,295.706 L744.559,296.72 L748.309,297.633 L753.986,298.342 L760.473,298.747 L764.731,299.761 L767.874,300.977 L772.739,303.613 L776.185,305.336 L776.895,304.728 L777.807,303.207 L778.009,301.281 L777.3,298.848 L780.848,298.746 L780.746,296.516 L779.732,294.489 L780.036,291.448 L781.76,287.191 L785.51,283.035 L789.464,276.142 L790.68,273.405 L792.809,272.391 L796.219,270.547 C795.612,269.633 794.467,268.664 793.832,267.764 C793.277,266.977 792.649,265.849 792.24,264.977 C791.373,263.13 790.738,260.446 789.851,258.608 C788.943,256.727 787.1,254.553 786.268,252.637 C785.922,251.84 785.954,250.574 785.479,249.848 C784.951,249.143 783.743,248.977 783.482,248.258 C783.256,247.638 783.542,246.645 783.918,246.102 C784.372,245.447 785.605,245.256 786.17,244.694 C786.951,243.919 787.495,242.49 788.141,241.598 C788.844,240.626 790.111,239.561 790.674,238.502 C791.088,237.724 791.296,236.54 791.519,235.687 C791.715,234.934 791.997,233.928 792.082,233.154 C792.184,232.231 792.24,230.973 792.082,230.058 C791.868,228.821 791.119,227.291 790.675,226.117 C790.353,225.266 789.87,224.153 789.549,223.302 C789.105,222.128 788.616,220.524 788.142,219.362 C787.685,218.242 786.795,216.862 786.453,215.703 C786.284,215.13 786.287,214.318 786.172,213.732 C785.971,212.707 785.557,211.374 785.327,210.355 C785.139,209.515 784.92,208.387 784.764,207.54 C784.578,206.529 784.325,205.182 784.201,204.162 C784.068,203.069 783.809,201.599 783.92,200.503 C783.983,199.891 784.201,199.079 784.483,198.533 C784.979,197.572 786.087,196.584 786.734,195.718 C787.352,194.893 788.11,193.745 788.705,192.903 C789.544,191.717 790.752,190.195 791.52,188.962 C792.179,187.904 793.119,186.493 793.49,185.303 C793.718,184.573 793.695,183.531 793.771,182.77 C793.865,181.842 793.71,180.541 794.053,179.674 C794.407,178.778 795.261,177.729 796.023,177.141 C796.533,176.748 797.461,176.657 797.994,176.296 C798.686,175.827 799.533,175.042 799.965,174.326 C800.557,173.342 800.764,171.768 801.091,170.667 C801.266,170.078 801.366,169.24 801.654,168.696 C801.963,168.113 802.516,167.379 803.061,167.008 C803.502,166.707 804.302,166.736 804.75,166.445 C805.903,165.697 807.122,164.236 807.846,163.067 C808.465,162.067 808.744,160.468 809.254,159.408 C809.761,158.35 810.696,157.078 811.224,156.03 C811.803,154.881 812.287,153.213 812.913,152.089 C813.414,151.189 814.331,150.145 814.883,149.275 C815.247,148.7 815.688,147.905 816.009,147.304 C816.365,146.638 816.456,145.384 817.135,145.053 C817.522,144.864 818.114,145.292 818.542,145.334 C819.551,145.434 820.909,145.406 821.92,145.334 C822.516,145.292 823.33,145.257 823.891,145.053 C824.639,144.78 825.807,144.368 826.143,143.645 C826.395,143.103 826.039,142.245 825.862,141.675 C825.749,141.315 825.5,140.868 825.299,140.549 C824.785,139.735 824.034,138.671 823.328,138.016 C823.105,137.808 822.628,137.722 822.484,137.453 C822.205,136.932 822.42,136.07 822.484,135.482 C822.569,134.709 822.986,133.725 823.047,132.949 C823.152,131.599 823.025,129.774 822.766,128.446 C822.46,126.873 820.993,124.979 821.077,123.379 C821.131,122.36 822.543,121.301 822.485,120.283 C822.457,119.791 821.922,119.28 821.64,118.875 C821.331,118.431 820.976,117.749 820.514,117.468 C819.779,117.02 818.486,117.257 817.7,116.905 C816.929,116.56 816.115,115.734 815.448,115.216 C815.02,114.885 814.573,114.185 814.041,114.09 C813.777,114.043 813.447,114.28 813.196,114.372 C812.769,114.528 812.235,114.849 811.789,114.935 C811.706,114.951 811.592,114.935 811.507,114.935 C811.085,114.935 810.476,115.128 810.1,114.935 C809.454,114.602 809.106,113.562 808.693,112.964 C808.52,112.714 808.288,112.381 808.13,112.12 C807.582,111.215 807.074,109.871 806.441,109.024 C805.94,108.355 805.039,107.667 804.47,107.054 C803.942,106.483 803.151,105.769 802.782,105.083 C802.491,104.541 802.219,103.113 802.241,103.197 L794.374,88.177 L782.931,81.306 L782.931,81.306 Z M747.82,184.747 L753.996,188.559 L756.912,189.708 L760.359,189.796 L761.862,188.912 L766.281,186.349 L769.11,184.228 L775.385,178.129 L779.009,173.268 L781.13,167.611 L782.456,160.275 L782.544,155.414 L781.661,151.089 L781.245,148.791 L779.995,146.291 L779.995,144.041 L781.62,139.916 L782.807,136.75 L783.87,136.057 L786.61,136.145 L789.173,136.41 L791.912,136.783 L793.495,135.79 L795.245,133.915 L799.245,133.04 L801.815,131.011 L805.436,129.692 L807.252,128.161 L811.119,123.79 L808.994,122.54 L803.994,119.79 L799.494,118.29 L795.369,116.04 L792.119,113.665 L788.619,113.54 L785.869,116.165 L782.619,119.79 L777.619,122.04 L772.869,123.415 L768.494,124.29 L767.119,128.915 L764.744,128.915 L760.994,130.665 L755.994,131.54 L754.369,131.54 L749.869,131.415 L745.369,132.165 L741.869,134.665 L736.494,136.04 L731.119,136.415 L726.869,137.165 L724.119,139.915 L721.119,141.915 L720.869,143.79 L720.244,146.79 L717.619,149.54 L714.994,150.915 L715.119,152.54 L717.369,154.915 L717.369,157.415 L718.119,158.04 L720.494,156.29 L723.494,158.79 L721.994,160.29 L718.744,162.915 L718.369,165.54 L719.494,170.915 L721.369,171.79 L718.619,177.665 L721.744,179.54 L724.744,181.04 L728.119,181.54 L731.119,181.04 L733.494,179.54 L735.994,181.54 L740.994,184.79 L745.119,186.915 L747.82,184.747 L747.82,184.747 Z M781.153,99.972 L780.748,101.594 L779.227,104.737 L776.49,106.866 L773.956,106.359 L771.828,104.534 L771.93,101.594 L773.653,98.452 L775.883,96.83 L778.316,97.743 L781.153,99.972 L781.153,99.972 Z" id="SG" sketch:type="MSShapeGroup"></path>
        </g>
    </g>
</svg>