<?xml version="1.0" encoding="UTF-8" standalone="no"?>
<svg width="104px" height="83px" viewBox="0 0 104 83" version="1.1" xmlns="http://www.w3.org/2000/svg" xmlns:xlink="http://www.w3.org/1999/xlink" xmlns:sketch="http://www.bohemiancoding.com/sketch/ns">
    <!-- Generator: Sketch 3.1.1 (8761) - http://www.bohemiancoding.com/sketch -->
    <title>SH</title>
    <desc>Created with Sketch.</desc>
    <defs></defs>
    <g id="Source" stroke="none" stroke-width="1" fill="none" fill-rule="evenodd" sketch:type="MSPage">
        <g id="Artboard-1" sketch:type="MSArtboardGroup" transform="translate(-547.000000, -3.000000)" stroke="#000000" stroke-width="0.5" fill="#71C837">
            <path d="M585.885,71.668 C585.08,72.558 584.072,73.627 583.505,74.685 C582.963,75.697 583.097,77.448 582.379,78.344 C581.954,78.876 580.718,78.863 580.409,79.47 C580.062,80.152 580.754,81.241 580.69,82.003 C580.638,82.616 580.409,83.427 580.127,83.974 C579.879,84.454 579.457,85.089 579.002,85.381 C578.708,85.569 578.184,85.824 577.876,85.662 C577.236,85.327 577.284,84.086 577.031,83.411 C576.777,82.735 576.577,81.765 576.186,81.159 C575.734,80.456 574.908,79.658 574.216,79.189 C573.683,78.828 572.842,78.584 572.245,78.344 C571.575,78.075 570.673,77.74 569.993,77.5 C569.238,77.232 568.251,76.784 567.46,76.655 C566.793,76.547 565.882,76.703 565.208,76.655 C564.612,76.613 563.793,76.154 563.261,76.37 L563.816,74.069 L561.067,74.492 L558.106,73.646 L557.048,72.377 L557.683,70.051 L558.106,68.148 L559.164,65.821 L561.49,64.341 L563.393,63.284 L566.143,61.804 L569.527,60.112 L572.276,59.901 L573.756,61.17 L575.871,62.65 L577.774,63.285 L579.888,64.342 L580.946,66.034 L581.581,67.726 L580.735,69.206 L581.581,70.475 L583.484,71.321 L584.964,71.532 L585.885,71.668 L585.885,71.668 Z M603.008,41.851 C602.522,41.407 602.031,41.043 601.52,40.626 C601.102,40.284 600.541,39.831 600.113,39.5 C599.78,39.241 599.373,38.828 598.987,38.655 C598.594,38.479 598.01,38.389 597.58,38.374 C596.899,38.349 596.002,38.557 595.328,38.655 C594.82,38.729 593.972,38.545 593.64,38.937 C593.476,39.13 593.656,39.528 593.64,39.781 C593.598,40.461 593.456,41.359 593.359,42.033 C593.285,42.541 593.287,43.253 593.077,43.722 C592.857,44.216 592.162,44.631 591.951,45.129 C591.686,45.756 591.638,46.701 591.67,47.381 C591.707,48.159 591.781,49.336 592.191,49.995 L590.783,48.479 L589.937,47.633 L588.351,46.681 L586.871,46.152 L585.813,46.469 L584.333,47.209 L581.584,47.103 L578.094,46.998 L576.508,47.421 L576.085,48.267 L574.691,48.996 L573.794,50.043 L572.149,50.641 L571.55,52.735 L572.149,53.632 L571.849,54.081 L565.419,53.931 L562.129,54.679 L561.381,55.726 L560.933,56.474 L559.886,56.175 L559.586,55.128 L559.886,53.633 L559.586,51.539 L558.539,50.941 L555.997,50.941 L552.856,50.941 L551.211,49.445 L549.267,47.949 L547.473,47.501 L547.772,45.108 L549.118,42.416 L549.417,40.622 L548.52,37.781 L549.716,35.388 L551.96,33.294 L554.053,31.35 L555.848,29.555 L557.044,27.462 L557.643,25.219 L558.69,22.826 L559.586,20.583 L561.232,18.789 L562.877,17.293 L564.821,15.798 L567.214,14.601 L569.906,14.003 L571.849,14.003 L573.495,13.555 L575.289,12.358 L577.084,11.461 L579.775,12.059 L581.719,11.91 L583.066,10.564 L582.766,8.62 L582.168,6.975 L581.121,6.078 L581.42,4.134 L583.066,3.685 L585.907,3.685 L589.346,4.582 L590.992,5.33 L594.282,6.676 L593.833,8.321 L593.684,9.817 L593.833,11.911 L594.282,13.855 L595.178,16.248 L596.674,17.594 L598.768,18.043 L599.664,16.996 L601.011,14.454 L599.814,10.267 L599.515,8.173 L599.814,6.677 L601.908,8.472 L603.852,10.266 L605.498,11.761 L606.694,12.958 L607.142,14.154 L607.142,15.948 L606.843,18.939 L607.142,20.135 L609.086,19.986 L609.833,18.939 L611.777,18.042 L613.721,17.892 L616.263,19.089 L617.16,21.78 L616.263,22.528 L614.618,24.921 L613.721,27.164 L614.169,29.407 L616.113,31.052 L617.459,32.996 L617.16,35.089 L615.515,35.388 L614.019,35.089 L612.823,33.594 L611.776,32.846 L608.935,32.547 L606.841,32.696 L604.897,32.995 L604,33.893 L602.953,35.389 L603.253,37.034 L602.804,38.978 L602.505,40.623 L603.008,41.851 L603.008,41.851 Z M650.501,52.445 C649.699,52.078 648.523,51.869 647.683,51.603 C646.919,51.361 645.85,51.148 645.15,50.759 C644.574,50.438 643.965,49.777 643.462,49.351 C642.867,48.849 642.091,48.159 641.491,47.662 C641.075,47.317 640.512,46.868 640.084,46.537 C639.75,46.278 639.339,45.874 638.958,45.692 C638.329,45.393 637.401,45.171 636.706,45.129 C636.026,45.088 635.134,45.368 634.454,45.411 C633.611,45.463 632.476,45.523 631.646,45.411 L632.564,43.615 L633.163,41.97 L634.209,40.026 L634.658,38.531 L633.611,37.334 L632.116,36.437 L630.321,36.138 L628.826,35.54 L627.929,34.344 L628.377,33.148 L628.228,31.652 L629.574,30.605 L631.07,29.409 L632.266,28.661 L633.313,28.362 L634.808,28.661 L634.957,29.409 L635.705,31.054 L636.752,31.503 L638.546,32.4 L641.089,33.297 L642.285,33.596 L644.678,34.344 L646.772,35.989 L648.417,36.886 L648.866,38.382 L648.118,38.98 L646.922,39.279 L645.576,38.98 L644.38,40.176 L644.38,41.971 L646.323,44.214 L647.519,46.905 L648.118,47.802 L649.464,49.298 L650.361,50.794 L650.501,52.445 L650.501,52.445 Z" id="SH" sketch:type="MSShapeGroup"></path>
        </g>
    </g>
</svg>