<?xml version="1.0" encoding="UTF-8" standalone="no"?>
<svg width="14px" height="25px" viewBox="0 0 14 25" version="1.1" xmlns="http://www.w3.org/2000/svg" xmlns:xlink="http://www.w3.org/1999/xlink" xmlns:sketch="http://www.bohemiancoding.com/sketch/ns">
    <!-- Generator: Sketch 3.1.1 (8761) - http://www.bohemiancoding.com/sketch -->
    <title>sihlsee</title>
    <desc>Created with Sketch.</desc>
    <defs></defs>
    <g id="Source" stroke="none" stroke-width="1" fill="none" fill-rule="evenodd" sketch:type="MSPage">
        <g id="Artboard-1" sketch:type="MSArtboardGroup" transform="translate(-624.000000, -216.000000)" stroke="#000000" stroke-width="0.2" fill="#D3EBFA" opacity="0.87">
            <path d="M635.492,239.95 C635.967,240.149 636.779,240.026 637.192,239.718 C637.452,239.525 637.603,239.058 637.638,238.736 C637.695,238.219 637.431,237.537 637.281,237.04 C637.156,236.625 637.035,236.022 636.746,235.701 C636.401,235.318 635.642,235.203 635.227,234.897 C634.892,234.649 634.546,234.203 634.246,233.915 C633.957,233.64 633.473,233.361 633.264,233.022 C633.001,232.596 632.938,231.9 632.818,231.415 C632.606,230.563 632.334,229.424 632.193,228.558 C632.072,227.813 631.987,226.81 631.924,226.058 C631.848,225.122 631.759,223.872 631.746,222.933 C631.733,222.022 631.896,220.807 631.835,219.897 C631.802,219.409 631.778,218.731 631.567,218.29 C631.427,217.999 631.093,217.701 630.852,217.486 C630.608,217.269 630.269,216.967 629.959,216.861 C629.452,216.687 628.694,216.645 628.173,216.772 C627.812,216.86 627.421,217.205 627.102,217.397 C626.886,217.528 626.598,217.704 626.388,217.843 C625.924,218.152 625.159,218.438 624.87,218.915 C624.66,219.262 624.691,219.849 624.691,220.254 C624.69,220.875 624.751,221.722 624.959,222.307 C625.181,222.931 625.794,223.607 626.12,224.182 C626.551,224.943 627.141,225.957 627.459,226.771 C627.792,227.625 627.95,228.856 628.263,229.717 C628.504,230.382 628.912,231.236 629.245,231.86 C629.511,232.359 629.896,233.009 630.226,233.467 C630.616,234.007 631.224,234.656 631.655,235.164 C632.134,235.728 632.793,236.466 633.262,237.039 C633.565,237.408 633.953,237.911 634.244,238.289 C634.625,238.783 634.917,239.71 635.492,239.95 L635.492,239.95 Z" id="sihlsee" sketch:type="MSShapeGroup"></path>
        </g>
    </g>
</svg>