<?xml version="1.0" encoding="UTF-8" standalone="no"?>
<svg width="154px" height="137px" viewBox="0 0 154 137" version="1.1" xmlns="http://www.w3.org/2000/svg" xmlns:xlink="http://www.w3.org/1999/xlink" xmlns:sketch="http://www.bohemiancoding.com/sketch/ns">
    <!-- Generator: Sketch 3.1.1 (8761) - http://www.bohemiancoding.com/sketch -->
    <title>SO</title>
    <desc>Created with Sketch.</desc>
    <defs></defs>
    <g id="Source" stroke="none" stroke-width="1" fill="none" fill-rule="evenodd" sketch:type="MSPage">
        <g id="Artboard-1" sketch:type="MSArtboardGroup" transform="translate(-309.000000, -104.000000)" stroke="#000000" stroke-width="0.5" fill="#71C837">
            <path d="M358.65,163.536 L356.39,167.041 L354.365,168.833 L352.886,171.014 L350.549,172.572 L344.473,174.286 L341.59,175.376 L339.098,177.48 L338.397,180.362 L337.774,181.452 L336.372,181.92 L332.087,182.855 L328.426,183.322 L328.349,186.438 L324.843,189.398 L320.87,191.813 L314.872,194.54 L309.497,196.721 L310.353,203.576 L311.989,205.524 L315.339,206.537 L316.663,207.16 L317.832,211.912 L318.738,213.632 C319.169,213.274 319.96,213.138 320.412,212.813 C320.793,212.538 321.132,211.972 321.519,211.706 C322.193,211.243 323.354,211.087 324.009,210.599 C324.623,210.141 325.319,209.342 325.669,208.661 C325.983,208.053 325.886,207.043 326.223,206.447 C326.454,206.038 326.887,205.496 327.33,205.34 C328.039,205.091 329.074,205.71 329.82,205.617 C330.524,205.529 331.421,205.143 332.034,204.787 C332.595,204.461 333.16,203.77 333.694,203.403 C334.399,202.92 335.388,202.328 336.185,202.019 C336.861,201.757 337.961,201.907 338.488,201.428 L338.786,205.602 L339.098,209.653 L342.136,214.327 L340.266,217.989 L338.63,218.456 L335.748,218.3 L331.697,218.066 L329.672,220.715 L328.192,222.896 L328.192,225.778 L327.491,227.882 L322.895,228.194 L320.635,228.428 L319.234,227.26 L316.351,226.792 L315.26,227.571 L315.105,229.83 L316.118,232.245 L317.442,235.127 L319.701,238.944 L320.247,239.645 L321.103,239.022 L324.141,236.841 L326.556,235.517 L328.971,234.816 L328.893,237.153 L328.66,238.945 L329.984,240.737 L332.788,240.581 L335.671,239.49 L337.385,238.166 L337.775,236.062 L336.684,234.504 L335.671,232.634 L336.138,231.543 L339.877,229.751 L342.993,227.959 L346.031,225.934 L348.135,221.961 L349.226,217.599 L349.771,214.249 L352.809,213.314 L354.913,212.535 L357.483,213.08 L360.054,214.716 L362.235,216.819 L367.61,217.832 L372.985,218.144 L376.023,217.209 L379.684,214.093 L382.021,210.977 L382.099,208.718 L381.709,205.836 L379.372,203.577 L376.88,202.33 L375.01,200.383 L373.374,197.968 L370.804,192.905 L370.959,191.659 L370.414,189.634 L368.31,188.466 L366.908,187.375 L365.039,187.453 L363.169,187.063 L363.169,184.336 L362.313,181.688 L362.703,179.351 L362.625,177.715 L362.392,175.846 L364.806,176.079 L372.363,176.858 L374.388,176.546 L377.426,175.299 L380.464,174.286 L382.489,173.118 L385.917,173.508 L387.008,174.832 L389.812,178.727 L391.604,183.167 L395.032,183.634 L398.537,183.245 L402.121,181.531 L403.445,180.674 L405.277,183.49 C405.863,182.993 406.554,182.176 407.173,181.679 C407.649,181.296 408.393,180.927 408.846,180.517 C409.247,180.154 409.571,179.449 410.02,179.147 C410.329,178.94 410.826,178.796 411.195,178.756 C412.309,178.634 413.792,179.129 414.913,179.147 C415.736,179.161 416.829,178.981 417.652,178.951 C418.415,178.924 419.491,179.243 420.196,178.951 C421.04,178.602 421.787,177.518 422.348,176.799 C423.191,175.72 424.037,174.086 424.697,172.885 C425.076,172.195 425.411,171.176 425.871,170.536 C426.405,169.795 427.507,169.137 428.023,168.384 C428.351,167.907 428.458,167.084 428.806,166.623 C429.359,165.892 430.574,165.376 431.155,164.666 C431.703,163.995 432.405,162.98 432.524,162.122 C432.672,161.05 431.609,159.674 431.742,158.6 C431.822,157.949 432.435,157.235 432.63,156.588 L434.494,157.91 L436.423,159.452 L438.791,160.389 L441.82,161.05 L447.659,161.546 L451.46,161.821 L453.112,161.546 L454.38,161.05 L455.592,159.287 L456.583,155.817 L458.511,150.363 L460.384,146.563 L462.312,142.046 L461.872,139.898 L459.117,137.254 L456.749,136.868 L454.932,136.042 L452.894,134.83 L449.644,133.067 L447.771,131.249 L450.195,129.817 L450.085,127.228 L449.369,124.199 L447.771,123.758 L447.055,121.389 L446.999,119.626 L444.852,119.406 L443.736,119.186 L443.02,121.469 L442.007,123.728 L441.695,126.766 L443.175,128.636 C443.175,128.636 444.11,130.739 444.499,130.739 L444.187,133.388 L440.058,136.426 L436.63,138.062 L432.112,137.517 L429.307,138.14 L426.659,141.334 L422.998,144.996 L419.96,147.021 L416.454,148.501 L411.702,150.293 L408.587,152.63 L408.197,155.045 L408.197,157.304 L405.86,157.537 L403.289,157.147 L400.797,156.057 L399.005,154.577 L396.823,152.552 L395.032,150.137 L393.941,147.878 L391.682,146.476 L385.606,147.333 L380.075,147.645 L376.336,147.645 L375.401,143.516 L374.778,139.855 L374.545,134.792 L379.608,134.48 L381.555,133.623 L383.814,132.455 L384.827,129.962 L385.06,125.911 L385.606,122.795 L388.098,120.302 L389.89,117.965 L392.072,113.68 L392.539,112.434 L389.657,111.11 L386.385,111.422 L382.101,110.721 L380.076,107.761 L378.83,107.293 L376.648,109.786 L374,109.942 L369.17,110.098 L369.015,113.681 L371.04,116.33 L371.663,118.978 L370.417,122.717 L368.703,125.599 L368.47,128.559 L361.225,129.104 L360.134,132.999 L352.5,134.089 L351.254,137.517 L350.708,139.309 L347.125,140.4 L344.32,142.659 L340.97,140.4 L340.503,138.219 L336.919,138.141 L333.726,138.297 L332.167,139.31 L331.311,141.335 L331.039,142.893 L333.96,147.801 L340.191,149.203 L345.644,147.801 L350.006,148.268 L350.006,152.708 L350.396,155.746 L351.876,159.329 L352.577,160.887 L359.354,160.809 L358.925,163.574 L358.65,163.536 Z M325.051,121.233 L326.166,121.937 L327.88,121.236 L328.971,122.404 L331.775,124.507 L334.424,127.155 L335.592,129.492 L335.437,131.907 L334.658,133.777 L333.723,134.712 L331.386,134.945 L328.581,133.543 L324.764,132.608 L317.928,131.654 L317.324,126.532 L317.302,126.508 L321.028,124.613 L325.051,121.233 L325.051,121.233 Z M382.137,216.507 L383.461,215.378 L385.058,214.443 L386.344,214.638 L387.863,216.157 L387.785,217.248 L386.889,219.118 C386.889,219.118 385.604,220.442 385.448,220.481 C385.293,220.52 383.267,221.377 383.267,221.377 L381.904,221.26 L381.203,220.286 L381.203,218.182 L382.137,216.507 L382.137,216.507 Z M343.598,106.208 L345.563,106.357 L347.667,107.681 L347.823,109.317 L347.978,110.719 L346.499,113.056 L345.72,114.692 L344.552,116.016 L343.383,115.861 L341.201,115.783 L339.332,115.549 L336.372,116.796 L334.268,117.108 L332.243,116.407 L330.841,115.862 L330.048,114.465 L330.546,113.83 L332.237,112.138 L329.699,109.811 L327.373,108.331 L325.47,107.697 L327.796,104.947 L329.699,104.736 L331.602,105.794 L334.14,108.332 C334.14,108.332 334.775,110.024 336.255,110.235 C337.735,110.447 341.33,108.966 341.33,108.966 L343.598,106.208 L343.598,106.208 Z" id="SO" sketch:type="MSShapeGroup"></path>
        </g>
    </g>
</svg>