<?xml version="1.0" encoding="UTF-8" standalone="no"?>
<svg width="134px" height="112px" viewBox="0 0 134 112" version="1.1" xmlns="http://www.w3.org/2000/svg" xmlns:xlink="http://www.w3.org/1999/xlink" xmlns:sketch="http://www.bohemiancoding.com/sketch/ns">
    <!-- Generator: Sketch 3.1.1 (8761) - http://www.bohemiancoding.com/sketch -->
    <title>SZ</title>
    <desc>Created with Sketch.</desc>
    <defs></defs>
    <g id="Source" stroke="none" stroke-width="1" fill="none" fill-rule="evenodd" sketch:type="MSPage">
        <g id="Artboard-1" sketch:type="MSArtboardGroup" transform="translate(-540.000000, -194.000000)" stroke="#000000" stroke-width="0.5" fill="#71C837">
            <path d="M659.942,293.568 L650.757,298.691 L644.924,300.459 L643.421,301.608 L642.36,303.553 L640.769,304.79 L640.062,296.481 L637.233,298.249 L636.261,296.04 L637.145,292.769 L637.499,289.676 L636.262,287.643 L633.079,286.671 L630.604,287.025 L629.455,287.909 L627.511,289.411 L626.097,289.588 L624.064,287.643 L622.916,287.201 L619.292,288.262 L616.729,289.677 L613.458,292.859 L611.425,293.654 L608.95,294.892 L607.447,292.24 L607.801,289.854 L606.917,282.783 L601.084,284.285 L598.256,284.727 L596.684,284.542 L593.496,283.354 L588.621,283.729 L588.121,277.916 L587.746,272.541 L585.621,269.291 L583.249,270.091 L576.07,272.794 L568.38,274.031 L559.188,271.202 L558.679,268.647 L560.45,267.769 L563.717,268.204 L564.997,267.792 L566.094,266.695 L565.911,260.023 L564.356,259.246 L562.757,258.287 L561.111,256.459 L558.14,253.809 L556.553,251.797 L554.872,251.344 L553.45,251.667 L550.865,251.796 L547.812,251.157 L543.791,250.243 L541.506,248.689 L541.049,248.049 L542.511,246.495 L543.882,244.941 L544.888,242.473 L544.979,241.742 L548.543,238.451 L552.474,233.516 L554.21,232.236 L556.122,230.961 L558.685,229.691 L561.529,228.14 L563.209,227.752 L564.631,232.664 L565.536,234.861 L567.216,235.507 L571.224,237.058 L573.679,236.024 L576.652,235.765 L580.271,235.636 L581.047,238.997 L583.761,239.126 L586.346,237.834 L588.414,236.283 L590.74,235.508 L592.162,234.603 L595.652,235.508 L598.496,236.025 L599.659,235.249 L599.788,233.957 L600.047,231.243 L601.34,229.563 L603.278,228.141 L604.571,225.944 L605.346,221.808 L607.284,217.026 L607.025,215.734 L606.241,213.03 L605.775,211.384 L604.619,208.946 L604.807,207.04 L606.87,205.54 L608.995,202.915 L610.433,200.227 L611.183,198.664 L613.433,198.414 L622.915,195.275 L629.628,194.921 L637.87,198.351 L650.27,198.369 L658.092,196.999 L663.616,195.01 L665.385,196.822 L667.02,197.794 L667.241,205.749 L667.904,208.091 L670.424,207.649 L673.365,208.372 L672.501,210.123 L665.43,225.503 L667.551,227.712 L668.347,230.629 L667.728,232.22 L666.137,233.015 L664.016,234.871 L663.662,236.373 L665.076,237.61 L666.932,237.964 L668.434,238.406 L666.224,244.417 L663.432,249.537 L659.119,253.475 L656.494,253.287 L654.556,252.912 L652.681,253.1 L652.994,257.975 L651.556,259.1 L652.806,260.788 L654.244,262.163 L655.682,264.726 L656.307,265.914 L657.245,265.601 L657.683,266.914 L659.871,269.477 L661.184,270.727 L659.934,272.352 L660.872,273.852 L663.31,277.04 L666.435,279.79 L668.172,280.925 L666.227,282.516 L665.079,284.372 L664.902,285.963 L665.167,287.289 L665.786,288.88 L666.493,289.588 L664.018,290.649 L663.222,291.975 L659.942,293.568 L659.942,293.568 Z" id="SZ" sketch:type="MSShapeGroup"></path>
        </g>
    </g>
</svg>