<?xml version="1.0" encoding="UTF-8" standalone="no"?>
<svg width="183px" height="105px" viewBox="0 0 183 105" version="1.1" xmlns="http://www.w3.org/2000/svg" xmlns:xlink="http://www.w3.org/1999/xlink" xmlns:sketch="http://www.bohemiancoding.com/sketch/ns">
    <!-- Generator: Sketch 3.1.1 (8761) - http://www.bohemiancoding.com/sketch -->
    <title>TG</title>
    <desc>Created with Sketch.</desc>
    <defs></defs>
    <g id="Source" stroke="none" stroke-width="1" fill="none" fill-rule="evenodd" sketch:type="MSPage">
        <g id="Artboard-1" sketch:type="MSArtboardGroup" transform="translate(-601.000000, -39.000000)" stroke="#000000" stroke-width="0.5" fill="#71C837">
            <path d="M660.719,53.723 C660.719,53.723 659.263,54.484 658.379,54.7 C657.555,54.902 656.41,55.057 655.565,54.982 C654.953,54.927 654.155,54.671 653.594,54.419 C652.59,53.967 651.499,52.907 650.498,52.448 C649.696,52.081 648.523,51.87 647.683,51.604 C646.919,51.362 645.85,51.149 645.15,50.76 C644.574,50.439 643.965,49.778 643.462,49.352 C642.867,48.85 642.091,48.16 641.491,47.663 C641.075,47.318 640.512,46.869 640.084,46.538 C639.75,46.279 639.339,45.875 638.958,45.693 C638.329,45.394 637.401,45.172 636.706,45.13 C636.026,45.089 635.134,45.369 634.454,45.412 C633.611,45.464 632.476,45.524 631.64,45.412 C630.686,45.284 629.451,44.891 628.543,44.567 C627.76,44.288 626.716,43.88 626.01,43.441 C625.45,43.093 624.924,42.302 624.322,42.034 C623.776,41.791 622.935,41.877 622.351,41.752 C621.749,41.624 620.96,41.395 620.38,41.189 C619.775,40.973 619.011,40.573 618.41,40.344 C618.16,40.249 617.83,40.095 617.565,40.063 C616.472,39.928 615.001,40.224 613.906,40.344 C613.312,40.409 612.521,40.744 611.935,40.626 C611.453,40.528 610.992,39.946 610.528,39.781 C609.965,39.581 609.132,39.333 608.557,39.5 C607.81,39.717 607.253,40.786 606.587,41.189 C606.197,41.424 605.587,41.55 605.18,41.752 C604.739,41.971 604.261,42.657 603.754,42.569 L601.702,45.37 L601.261,47.226 L602.763,50.584 L604.621,53.477 L606.434,54.477 L608.434,55.602 L612.809,56.477 L616.997,56.602 L619.935,54.727 L621.498,53.102 L622.498,52.352 L623.498,50.852 L624.061,49.789 L624.624,49.977 L628.499,50.415 L628.499,51.353 L630.999,52.603 L634.062,53.728 L636.875,54.541 L637.563,55.416 L633.313,63.166 L629.375,68.604 L627.406,67.354 L627.531,66.541 L622.843,65.791 L620.249,65.947 L619.093,66.947 L618.874,68.791 L619.251,70.208 L620.101,72.716 C620.9,72.773 621.857,72.065 622.634,71.871 C623.133,71.747 623.81,71.569 624.323,71.59 C625.715,71.646 627.537,72.191 628.807,72.709 L629.105,77.014 L632.022,78.959 L635.8,80.121 L638.623,82.666 L639.873,84.291 L639.623,85.291 L635.998,85.416 L636.498,88.041 L637.498,90.291 L639.123,91.291 L641.748,91.166 L643.748,90.541 L646.123,91.791 L650.498,93.791 L651.123,97.291 L649.998,103.666 L648.248,107.666 L647.623,111.916 L650.229,116.789 L650.052,119.706 L651.113,122.623 L652.881,124.214 L654.296,125.363 L651.556,126.335 L650.319,129.606 L648.54,132.425 C650.145,132.667 652.231,133.356 653.715,134.017 C654.351,134.301 655.072,134.92 655.705,135.211 C656.734,135.685 658.274,135.899 659.288,136.405 C660.132,136.827 661.382,140.197 661.367,142.938 L663.309,141.868 L664.671,140.076 L665.889,139.574 L666.511,137.479 L667.626,134.235 L669.653,132.512 L670.565,127.545 L671.68,126.025 L676.849,125.417 L680.802,125.417 L682.12,123.187 L682.627,119.132 L681.106,118.118 L677.254,115.077 L675.429,113.759 L673.503,110.414 L673.605,107.981 L675.328,106.156 L679.181,105.244 L682.019,103.926 L684.958,104.433 L689.418,106.562 L691.345,108.589 L694.284,110.312 L699.656,109.805 L702.393,108.893 L706.041,105.446 L707.156,102.202 L710.907,105.345 L713.136,105.953 L714.657,106.055 L715.367,107.88 L716.786,109.401 L721.144,108.995 L723.171,110.211 L726.922,112.847 L730.267,113.151 L733.106,111.935 L737.261,110.313 L741.417,109.806 L744.255,108.59 L743.85,106.461 L742.938,102.102 L740.404,99.163 L737.768,99.366 L736.147,100.177 L733.308,99.569 L733.511,98.353 L734.626,97.846 L736.754,96.731 L737.971,94.602 L740.2,94.197 L743.14,93.69 L745.775,93.386 L746.89,92.271 L749.627,93.792 L748.41,96.225 L750.134,96.63 L749.222,98.556 L748.917,98.86 L751.756,101.394 L754.087,101.8 L756.723,105.449 L757.23,107.983 L760.271,108.896 L761.892,109.504 L762.602,106.26 L763.616,102.814 L766.759,101.496 L769.698,98.759 L771.32,97.441 L782.929,81.309 L733.205,53.188 L718.836,52.907 L714.362,53.039 L710.923,52.142 L708.082,51.245 L707.483,49.6 L705.389,48.852 L698.361,45.562 L682.211,43.319 L676.378,45.413 L660.719,53.723 L660.719,53.723 Z M781.153,99.972 L780.748,101.594 L779.227,104.737 L776.49,106.866 L773.956,106.359 L771.828,104.534 L771.93,101.594 L773.653,98.452 L775.883,96.83 L778.316,97.743 L781.153,99.972 L781.153,99.972 Z" id="TG" sketch:type="MSShapeGroup"></path>
        </g>
    </g>
</svg>