<?xml version="1.0" encoding="UTF-8" standalone="no"?>
<svg width="174px" height="264px" viewBox="0 0 174 264" version="1.1" xmlns="http://www.w3.org/2000/svg" xmlns:xlink="http://www.w3.org/1999/xlink" xmlns:sketch="http://www.bohemiancoding.com/sketch/ns">
    <!-- Generator: Sketch 3.1.1 (8761) - http://www.bohemiancoding.com/sketch -->
    <title>TI</title>
    <desc>Created with Sketch.</desc>
    <defs></defs>
    <g id="Source" stroke="none" stroke-width="1" fill="none" fill-rule="evenodd" sketch:type="MSPage">
        <g id="Artboard-1" sketch:type="MSArtboardGroup" transform="translate(-539.000000, -384.000000)" stroke="#000000" stroke-width="0.5" fill="#71C837">
            <path d="M604.664,403.174 L603.153,405.807 L600.143,408.346 L595.816,408.628 L594.687,406.936 L592.053,405.807 L584.621,405.054 L582.552,403.549 L578.225,402.514 L572.957,403.549 L569.665,406.747 L568.254,410.134 L568.912,414.366 L568.63,416.906 L567.407,418.411 L562.389,420.058 L558.644,420.284 L557.058,423.641 L553.397,426.991 L552.462,429.639 L551.215,431.898 L549.657,432.366 L546.619,432.054 L542.724,432.054 L540.699,431.508 L540.932,435.793 L540.854,438.675 L539.269,445.012 L545.415,442.059 L550.491,441.213 L554.72,442.693 L558.104,449.038 L558.527,451.787 L558.104,457.286 L558.104,463.208 L558.104,469.764 L558.739,476.954 L557.893,482.453 L555.143,487.74 L552.182,491.336 L551.336,496.2 L554.932,501.064 L556.201,504.871 L555.778,506.985 L556.624,509.946 L561.277,513.965 L567.198,517.349 L573.12,520.522 L576.504,525.597 L582.215,534.057 L585.599,537.229 L586.022,541.036 L590.241,545.487 L592.185,549.525 L594.578,549.824 L597.569,550.423 L599.662,552.217 L602.504,553.863 L606.392,554.311 L608.635,555.956 L610.346,556.77 L613.272,558.049 L618.955,553.114 L622.425,555.502 L625.535,557.152 L628.525,559.694 L630.171,558.797 L632.414,556.853 L633.461,555.657 L634.956,556.106 L640.041,561.339 L643.63,565.676 L645.724,568.667 L646.023,571.808 L644.079,573.902 L642.434,575.098 L641.645,575.298 L641.434,576.884 L640.905,580.48 L639.319,581.854 L635.3,584.392 L632.762,586.613 L631.811,589.257 L633.08,592.007 L634.455,592.007 L637.204,592.43 L640.905,593.804 L643.338,596.448 L646.404,599.092 L648.836,601.737 L651.004,602.239 L653.277,603.534 L653.7,606.389 L654.124,611.782 L656.873,615.695 L658.556,617.91 L659.834,619.502 L659.834,621.617 L661.525,626.057 L664.486,630.921 L664.063,633.671 L661.314,636.209 L658.776,640.227 L658.776,642.342 L660.256,642.553 L662.794,640.016 L666.178,640.227 L668.715,642.765 L671.676,643.4 L674.849,643.188 L676.752,644.034 L677.175,647.207 L679.924,648.053 L683.732,646.15 L684.578,641.074 L685.212,638.114 L686.904,634.518 L687.962,630.289 L691.134,628.174 L693.249,625.848 L694.095,622.887 L693.249,622.252 C693.249,622.252 690.923,619.291 690.077,618.234 C689.23,617.176 686.692,615.696 686.692,615.696 L682.252,615.696 L680.136,614 L679.501,611.674 L679.924,608.502 L678.444,605.964 L676.753,603.849 L675.483,600.254 L675.06,598.562 L676.54,596.659 L678.443,594.756 L680.77,594.121 L680.823,591.953 L680.558,586.719 L679.5,585.45 L678.231,582.912 L678.442,578.683 L680.134,574.242 L682.46,572.762 L686.479,571.282 L690.708,569.802 L692.611,568.533 L694.091,566.207 L694.937,563.034 L694.726,559.65 L693.034,556.055 L692.4,553.517 L693.88,549.921 L700.013,547.383 L704.242,543.365 L706.78,540.827 L708.683,539.981 L710.798,536.385 L712.949,535.373 L709.07,531.67 L704.93,525.838 L701.356,522.451 L696.464,518.877 L695.711,515.114 L696.464,510.034 L694.583,504.954 L691.572,499.875 L690.256,496.301 L691.948,493.29 L693.641,488.398 L693.453,483.13 L694.582,480.12 L696.839,478.238 L698.908,474.851 L697.78,469.019 L697.968,464.692 L699.473,460.742 L700.037,457.731 L697.216,454.344 L696.463,450.958 L698.345,447.195 L698.815,441.927 L695.523,438.258 L692.043,437.129 L689.879,436.941 L686.587,433.649 L684.141,429.98 L681.413,423.772 L681.037,418.786 L681.884,411.543 L684.047,409.944 L687.058,406.746 L686.494,404.677 L685.459,404.113 L681.603,403.172 L678.499,399.127 L676.617,397.246 L672.102,398.563 L668.339,398.186 L667.775,395.834 L667.399,392.636 L666.928,387.933 L666.364,384.735 L665.706,385.487 L664.013,386.711 L658.086,387.181 L654.794,389.815 L653.665,392.261 L655.641,396.306 L656.488,397.999 L656.393,400.633 L653.854,403.078 L651.125,404.96 L648.397,406.183 L644.54,406.841 L640.684,407.876 L638.708,407.876 L637.203,407.029 L633.44,409.851 L630.053,409.287 L626.761,407.405 L624.503,406.182 L619.894,405.335 L616.32,406.088 L612.706,405.924 L608.582,404.061 L604.664,403.174 L604.664,403.174 Z M670.83,596.976 L671.888,598.034 L672.946,597.822 L673.792,596.764 L674.638,595.495 L674.427,593.909 L673.58,593.592 L671.889,595.283 L670.83,596.976 L670.83,596.976 Z" id="TI" sketch:type="MSShapeGroup"></path>
        </g>
    </g>
</svg>