<?xml version="1.0" encoding="UTF-8" standalone="no"?>
<svg width="126px" height="152px" viewBox="0 0 126 152" version="1.1" xmlns="http://www.w3.org/2000/svg" xmlns:xlink="http://www.w3.org/1999/xlink" xmlns:sketch="http://www.bohemiancoding.com/sketch/ns">
    <!-- Generator: Sketch 3.1.1 (8761) - http://www.bohemiancoding.com/sketch -->
    <title>UR</title>
    <desc>Created with Sketch.</desc>
    <defs></defs>
    <g id="Source" stroke="none" stroke-width="1" fill="none" fill-rule="evenodd" sketch:type="MSPage">
        <g id="Artboard-1" sketch:type="MSArtboardGroup" transform="translate(-540.000000, -269.000000)" stroke="#000000" stroke-width="0.5" fill="#71C837">
            <path d="M648.636,327.707 L644.543,331.87 L641.722,332.246 L638.9,333.563 L636.831,335.256 L638.147,340.147 L636.642,344.475 L633.444,347.672 L632.504,352 L629.682,354.634 L626.108,354.446 L624.226,351.248 L620.839,351.624 L620.275,354.258 L618.77,359.338 L614.631,361.596 L611.244,365.17 L606.165,365.358 L603.343,367.051 L601.65,370.625 L602.026,372.883 L604.096,377.398 L602.214,378.527 L599.769,381.914 L599.769,388.122 L602.59,391.885 L605.977,396.965 L604.664,403.167 L603.155,405.808 L600.145,408.347 L595.818,408.629 L594.689,406.937 L592.055,405.808 L584.623,405.055 L582.554,403.55 L578.227,402.515 L572.959,403.55 L569.667,406.748 L568.256,410.135 L568.914,414.367 L568.632,416.907 L567.409,418.412 L562.391,420.059 L558.648,420.292 L555.892,419.824 L553.632,418.578 L551.373,417.254 L550.049,415.306 L548.88,412.58 L547.945,410.398 L545.453,406.347 L544.517,404.322 L546.231,399.337 L548.413,393.65 L548.958,382.977 L548.646,380.64 L546.38,379.184 L544.595,378.707 L542.648,375.499 L541.713,373.084 L541.089,369.578 L540.856,367.631 L542.96,367.864 L546.076,368.41 L548.646,369.345 L551.216,369.657 L553.086,368.488 L553.942,366.852 L553.942,363.814 L553.787,360.776 L552.618,356.96 L550.827,353.609 L550.359,348.312 L550.592,346.365 L552.697,342.381 L555.488,342.098 L556.951,342.28 L558.779,342.737 L559.876,343.469 L562.892,340.635 L562.709,339.721 L561.246,337.345 L559.784,336.065 L560.149,334.146 L555.945,333.141 L556.037,332.043 L557.865,332.135 L559.053,331.678 L559.602,330.124 L558.688,328.662 L557.5,327.565 L559.054,323.086 L561.614,320.344 L565.453,318.333 L565.087,315.774 L562.985,315.134 L561.705,314.586 L557.389,314.577 L557.371,307.913 L558.934,303.85 L558.246,302.662 L557.558,302.85 L557.37,301.35 L555.557,301.475 L557.932,298.037 L560.307,296.849 L564.057,295.474 L567.37,293.474 L569.558,291.661 L570.871,291.098 L573.996,289.035 L576.434,285.972 L580.059,283.347 L581.247,281.847 L580.997,279.034 L581.185,276.596 L582.748,274.658 L584.123,273.22 L583.873,272.095 L583.239,270.082 L585.623,269.282 L587.748,272.532 L588.123,277.907 L588.623,283.72 L593.498,283.345 L596.686,284.533 L598.258,284.718 L601.086,284.276 L606.919,282.774 L607.803,289.845 L607.449,292.231 L608.952,294.883 L611.427,293.645 L613.46,292.85 L616.731,289.668 L619.294,288.253 L622.918,287.192 L624.066,287.634 L626.099,289.579 L627.513,289.402 L629.457,287.9 L630.606,287.016 L633.081,286.662 L636.264,287.634 L637.501,289.667 L637.147,292.76 L636.263,296.031 L637.235,298.24 L640.064,296.472 L640.771,304.781 L642.362,303.544 L643.423,301.599 L644.926,300.45 L650.759,298.682 L659.945,293.555 L662,296.232 L664.66,300.622 L665.325,304.214 L665.192,307.074 L662.93,309.867 L659.006,312.528 L653.95,314.656 L649.627,316.053 L645.901,317.117 L645.868,318.448 L646.267,319.945 L647.764,324.069 L648.628,327.76" id="UR" sketch:type="MSShapeGroup"></path>
        </g>
    </g>
</svg>