<?xml version="1.0" encoding="UTF-8" standalone="no"?>
<svg width="266px" height="264px" viewBox="0 0 266 264" version="1.1" xmlns="http://www.w3.org/2000/svg" xmlns:xlink="http://www.w3.org/1999/xlink" xmlns:sketch="http://www.bohemiancoding.com/sketch/ns">
    <!-- Generator: Sketch 3.1.1 (8761) - http://www.bohemiancoding.com/sketch -->
    <title>VD</title>
    <desc>Created with Sketch.</desc>
    <defs></defs>
    <g id="Source" stroke="none" stroke-width="1" fill="none" fill-rule="evenodd" sketch:type="MSPage">
        <g id="Artboard-1" sketch:type="MSArtboardGroup" transform="translate(-22.000000, -269.000000)" stroke="#000000" stroke-width="0.5" fill="#71C837">
            <path d="M236.579,269.89 L241.785,272.527 L245.674,273.764 L246.438,274.181 L245.497,278.006 L245.497,283.486 L246.734,285.077 L251.153,292.855 L253.982,298.689 L250.977,301.34 L247.265,304.169 L246.735,309.472 L245.144,312.831 L242.139,315.659 L240.371,317.781 L238.426,316.543 L240.017,312.478 L239.84,307.528 L237.365,305.76 L235.067,303.285 L231.001,299.926 L229.41,295.683 L228.173,290.91 L224.991,289.319 L224.814,289.142 L218.767,284.153 L218.767,284.145 L236.579,269.89 L236.579,269.89 Z M179.736,347.657 L177.792,350.84 L178.322,353.668 L180.62,355.436 L182.388,353.845 L183.272,350.309 L183.095,347.304 L179.736,347.657 L179.736,347.657 Z M191.757,349.426 L195.646,344.476 L197.767,340.764 L197.06,339.172 L198.651,338.288 L200.949,341.293 L204.131,344.476 L205.192,346.067 L202.363,351.37 L200.419,354.376 L198.297,354.022 L196,351.723 L191.757,349.426 L191.757,349.426 Z M188.575,350.309 L191.227,350.663 L193.525,352.255 L191.581,355.083 L189.283,356.144 L188.222,354.553 L188.575,350.309 L188.575,350.309 Z M52.996,480.594 L58.878,483.981 L52.649,496.202 L51.961,495.855 L47.508,493.145 L42.381,490.14 L38.201,487.363 L36.998,487.319 L39.747,482.667 L42.285,478.648 L42.496,474.629 L41.016,471.245 L34.46,464.477 L27.692,459.613 L22.828,456.441 L24.943,452.845 L25.789,448.616 L25.366,441.214 L27.904,436.773 L31.499,431.274 L34.46,426.833 L37.21,423.873 L41.017,420.7 L39.748,414.778 L37.633,412.029 L31.923,405.684 L34.461,402.088 L39.325,397.648 L49.476,388.342 L62.165,376.71 L66.395,372.269 L70.836,368.25 L75.912,366.135 L86.063,359.367 L93.465,352.599 L94.1,349.85 L96.003,348.792 L100.867,347.735 L104.462,345.62 L107.423,342.447 L110.384,338.218 L109.115,335.046 L105.731,333.354 L104.251,331.662 L103.405,329.548 L105.52,328.068 L105.943,322.992 L106.154,320.665 L108.269,318.762 L111.508,314.988 L127.94,312.656 L137.132,306.645 L142.789,303.994 L150.567,301.872 L154.279,297.099 L160.82,292.856 L166.123,287.906 L169.305,286.669 L171.603,292.149 L170.188,296.215 L173.37,298.159 L174.077,305.407 L176.729,307.351 L179.23,315.168 L179.729,326.298 L181.679,327.857 L185.745,330.862 L184.154,331.923 L188.75,335.282 L193.7,337.403 L195.822,337.757 L198.12,336.52 L200.418,334.044 L203.247,335.813 L207.136,337.404 L210.141,337.404 L212.263,335.283 L213.324,331.394 L213.324,327.504 L214.208,325.206 L212.971,324.499 L211.203,324.676 L210.673,326.444 L208.198,326.267 L209.966,321.494 L210.143,319.55 L212.441,314.07 L215.092,311.772 L211.733,306.646 L208.375,308.061 L208.198,307 L213.324,304.172 L210.849,301.52 L208.728,301.697 L203.513,296.971 L211.165,290.674 L216.506,298.162 L221.279,303.466 L225.344,306.824 L227.466,307.708 L227.466,313.011 L229.057,316.546 L228.88,322.734 L224.814,325.739 L223.93,329.982 L222.339,335.639 L219.864,338.467 L215.445,343.416 L214.561,346.068 L217.213,348.366 L216.682,352.078 L208.374,362.332 L202.186,369.049 L201.832,373.646 L200.418,376.297 L197.059,376.474 L195.468,375.06 L193.346,374.883 L190.695,376.827 L187.159,380.186 L185.568,380.716 L185.568,386.903 L186.452,392.56 L186.452,401.399 L187.159,403.52 L190.341,402.106 L192.109,401.399 L193.523,403.874 L196.882,402.106 L199.711,401.576 L202.893,404.404 L206.075,405.818 L209.08,406.526 L210.542,407.634 L209.61,409.177 L206.605,411.828 L204.837,414.303 L203.6,415.895 L202.009,416.072 L201.125,417.84 L201.302,420.491 L197.766,419.43 L194.584,416.425 L190.695,416.248 L189.811,418.546 L189.28,421.551 L192.285,423.495 L193.169,425.44 L194.76,428.798 L198.295,429.328 L202.184,427.207 L204.129,424.201 L208.018,420.843 L209.432,421.373 L211.907,423.848 L216.326,427.738 L220.392,429.682 L224.988,430.919 L225.342,434.632 L226.933,441.526 L228.17,446.653 L227.463,448.774 L231.706,447.36 L234.888,444.709 C234.888,444.709 238.07,440.996 237.893,440.112 C237.716,439.228 241.075,435.693 241.075,435.693 L244.434,432.51 L248.146,431.626 L254.334,430.919 L258.046,428.621 L262.111,424.201 L264.763,419.959 L268.122,418.191 L270.95,416.6 L274.309,413.771 L278.021,415.716 L284.619,412.265 L285.8,416.423 L286.507,422.61 L286.861,428.267 L284.563,431.625 L281.381,435.691 C281.381,435.691 282.088,439.933 281.911,440.994 C281.734,442.055 281.911,445.414 281.911,445.414 C281.911,445.414 280.143,447.358 279.436,447.889 C278.729,448.42 275.724,448.419 275.724,448.419 L274.487,450.01 L274.664,453.546 L276.786,456.551 L276.963,459.909 L275.195,463.092 L275.195,470.517 L278.554,473.522 L278.377,476.35 L279.791,482.714 L278.715,485.59 L274.487,488.548 L271.658,491.199 L273.78,495.795 L272.012,498.978 L270.067,502.69 L266.178,508.347 L261.405,512.766 L255.395,518.6 L249.915,523.019 L242.742,527.355 L236.95,531.504 L236.28,532.169 C235.577,530.128 234.052,527.617 233.512,525.527 C233.324,524.799 233.335,523.782 233.235,523.037 C233.022,521.454 233.006,519.259 232.405,517.779 C231.755,516.177 230.09,514.478 229.084,513.074 C228.426,512.156 227.685,510.812 226.87,510.03 C226.438,509.615 225.606,509.372 225.21,508.923 C224.473,508.088 223.99,506.626 223.549,505.603 C223.165,504.71 222.611,503.515 222.442,502.558 C222.269,501.578 222.442,500.234 222.442,499.238 C222.442,498.491 222.55,497.486 222.442,496.747 C222.316,495.89 221.919,494.791 221.612,493.98 C221.191,492.868 220.466,491.454 219.951,490.382 C219.549,489.545 219.081,488.388 218.568,487.614 C218.144,486.976 217.321,486.321 216.907,485.676 C216.265,484.676 215.882,483.083 215.246,482.078 C214.554,480.982 213.443,479.624 212.479,478.758 C211.811,478.157 210.562,477.787 209.988,477.097 C209.584,476.612 209.404,475.743 209.157,475.16 C208.737,474.166 208.113,472.863 207.774,471.839 C207.559,471.19 207.558,470.221 207.22,469.625 C206.815,468.91 205.845,468.288 205.283,467.687 C204.68,467.042 203.893,466.166 203.345,465.473 C203.008,465.046 202.291,463.997 202.219,463.877 L198.874,455.811 L185.45,454.76 L151.832,447.344 L117.571,449.036 L80.349,462.359 L62.593,476.959 L55.453,473.856 L50.156,470.868 L45.383,469.453 L44.322,473.519 L46.797,474.58 L50.686,476.348 L50.332,479.531 L52.984,480.592 L52.996,480.594 Z" id="VD" sketch:type="MSShapeGroup"></path>
        </g>
    </g>
</svg>