<?xml version="1.0" encoding="UTF-8" standalone="no"?>
<svg width="380px" height="258px" viewBox="0 0 380 258" version="1.1" xmlns="http://www.w3.org/2000/svg" xmlns:xlink="http://www.w3.org/1999/xlink" xmlns:sketch="http://www.bohemiancoding.com/sketch/ns">
    <!-- Generator: Sketch 3.1.1 (8761) - http://www.bohemiancoding.com/sketch -->
    <title>VS</title>
    <desc>Created with Sketch.</desc>
    <defs></defs>
    <g id="Source" stroke="none" stroke-width="1" fill="none" fill-rule="evenodd" sketch:type="MSPage">
        <g id="Artboard-1" sketch:type="MSArtboardGroup" transform="translate(-179.000000, -378.000000)" stroke="#000000" stroke-width="0.5" fill="#71C837">
            <path d="M539.271,445.013 L540.856,438.676 L540.934,435.794 L540.701,431.509 L542.726,432.055 L546.621,432.055 L549.659,432.367 L551.217,431.899 L552.464,429.64 L553.399,426.992 L557.06,423.642 L558.694,420.285 L555.892,419.825 L553.632,418.579 L551.373,417.255 L550.049,415.307 L548.88,412.581 L547.945,410.399 L545.453,406.348 L544.517,404.323 L546.231,399.338 L548.413,393.651 L548.958,382.978 L548.646,380.641 L546.38,379.185 L544.59,378.699 L540.7,383.056 L538.207,386.484 L535.87,390.535 L534.624,396.143 L534.624,401.441 L533.845,404.556 L530.262,407.828 L527.146,410.009 L523.562,411.879 L522.161,414.216 L514.682,418.89 L509.852,420.604 L499.57,423.252 L494.272,424.187 L490.689,420.759 L484.301,419.513 L478.38,415.618 L473.862,413.904 L469.966,414.216 L464.981,411.879 L461.242,409.854 L458.127,410.009 L455.322,411.879 L451.426,413.904 L447.064,415.618 L446.286,425.589 L439.275,429.017 L437.093,431.977 L431.796,436.339 L426.031,437.274 L416.527,437.742 L403.595,448.96 L388.794,461.112 L384.276,454.257 L376.486,448.649 L370.877,447.558 L368.229,450.206 L366.048,454.257 L363.087,457.996 L358.102,457.84 L353.584,457.84 L351.247,459.087 L349.377,460.956 L353.896,463.916 L352.805,465.63 L350.157,468.435 L345.95,470.46 L341.588,471.862 L333.486,469.214 L328.657,468.123 C328.657,468.123 320.711,470.148 320.088,470.46 C319.465,470.772 313.389,475.445 313.389,475.445 L308.87,478.561 L304.352,481.366 L301.547,480.275 L300.145,478.093 L300.145,471.705 L296.094,470.926 L292.199,473.419 L289.55,475.444 L288.771,479.806 L287.524,483.702 L284.564,485.727 L278.71,485.599 L274.484,488.548 L271.655,491.199 L273.777,495.795 L272.009,498.978 L270.064,502.69 L266.175,508.347 L261.402,512.766 L255.392,518.6 L249.912,523.019 L242.739,527.355 L236.947,531.504 L236.277,532.169 C235.574,530.128 234.049,527.617 233.509,525.527 C233.321,524.799 233.332,523.782 233.232,523.037 C233.019,521.454 233.003,519.259 232.402,517.779 C231.752,516.177 230.087,514.478 229.081,513.074 C228.423,512.156 227.682,510.812 226.867,510.03 C226.435,509.615 225.603,509.372 225.207,508.923 C224.47,508.088 223.987,506.626 223.546,505.603 C223.162,504.71 222.608,503.515 222.439,502.558 C222.266,501.578 222.439,500.234 222.439,499.238 C222.439,498.491 222.547,497.486 222.439,496.747 C222.313,495.89 221.916,494.791 221.609,493.98 C221.188,492.868 220.463,491.454 219.948,490.382 C219.546,489.545 219.078,488.388 218.565,487.614 C218.141,486.976 217.318,486.321 216.904,485.676 C216.262,484.676 215.879,483.083 215.243,482.078 C214.551,480.982 213.44,479.624 212.476,478.758 C211.808,478.157 210.559,477.787 209.985,477.097 C209.581,476.612 209.401,475.743 209.154,475.16 C208.734,474.166 208.11,472.863 207.771,471.839 C207.556,471.19 207.555,470.221 207.217,469.625 C206.812,468.91 205.842,468.288 205.28,467.687 C204.677,467.042 203.89,466.166 203.342,465.473 C203.005,465.046 202.288,463.997 202.216,463.877 L198.871,455.811 L185.401,454.796 L186.302,463.417 L187.148,468.916 L185.668,471.454 L183.341,473.78 L179.323,475.049 L180.169,477.164 L182.707,480.336 L184.399,483.932 L185.668,485.835 L187.36,486.258 L190.955,488.796 L192.435,490.911 L193.915,492.814 L196.876,493.66 L198.779,496.409 L198.779,501.485 L197.933,506.137 L195.183,510.79 L190.954,516.5 L187.993,522.422 L188.627,527.709 L189.05,533.419 L185.455,535.534 L182.494,539.763 L181.648,542.089 L183.763,543.781 L186.089,546.53 L191.799,546.319 L194.76,545.895 L197.721,545.472 L201.951,547.164 L207.027,548.433 L208.719,551.394 L207.239,553.932 L207.873,560.065 L207.45,563.238 L205.335,564.929 L204.7,569.582 L204.911,572.543 L207.449,572.119 L208.929,570.428 L210.409,567.467 L211.043,565.987 L214.638,565.776 L216.542,566.41 L218.445,570.217 L220.348,570.852 L223.098,574.871 L226.693,580.793 L231.346,586.503 L234.73,592.636 L235.787,597.077 L234.307,601.096 L237.691,601.942 L241.075,602.788 L241.498,607.652 L241.498,612.305 L244.247,615.266 C244.247,615.266 247.631,620.13 248.688,621.399 C249.745,622.668 251.015,625.418 251.015,625.418 L253.341,629.225 L254.821,633.454 L255.667,635.357 L257.359,635.146 L259.474,631.127 L262.012,628.378 L266.876,627.955 L271.106,631.338 L273.432,634.299 L275.335,634.723 L275.335,630.282 L275.547,627.532 L278.085,625.206 L280.835,625.206 L284.642,624.783 L286.955,624.444 L289.946,623.846 L291.741,622.051 L294.134,618.462 L295.33,615.77 L299.838,616.419 L304.901,617.565 L308.913,617.353 L313.275,619.06 L317.164,620.855 L318.958,619.36 L320.753,618.463 L323.444,617.864 L324.94,614.873 L328.828,613.079 L333.613,610.387 L335.707,609.491 L335.109,608.594 L336.604,604.108 L338.698,603.809 L340.792,602.313 L342.886,601.416 L346.475,600.818 L349.166,600.818 L351.858,599.023 L351.259,596.63 L353.054,593.041 L354.645,592.638 L356.548,591.792 L359.721,593.272 L363.105,597.079 L366.912,597.714 L373.045,596.656 L378.121,597.291 L381.082,599.194 L382.561,601.097 L385.522,603.211 L388.906,605.326 L390.176,610.613 L391.867,611.459 L392.925,611.036 L397.789,608.71 L400.962,608.499 L405.191,609.768 L409.843,614.209 L413.862,611.459 L418.303,612.306 L422.11,612.517 L424.859,611.037 L424.859,609.98 L424.225,602.366 L425.494,597.714 L429.513,593.273 L433.742,590.524 L451.084,589.466 L453.834,586.928 L456.372,581.641 L458.486,576.988 L461.447,574.451 L459.544,570.855 L459.756,562.819 L461.025,560.704 L464.832,557.108 L470.542,554.147 L474.983,553.724 L478.79,553.724 L479.425,550.763 L481.54,547.168 L484.712,544.418 L487.673,543.572 L487.885,541.881 L487.038,537.228 L490.211,534.267 L489.576,530.249 L487.25,527.922 L485.77,522.847 L485.347,519.04 L482.174,514.599 L478.156,511.215 L472.657,508.465 L473.08,504.87 L476.041,502.121 L479.637,496.622 L483.021,493.238 L486.193,491.968 L490,492.392 L493.808,493.872 L497.826,492.814 L502.479,486.892 L504.382,483.719 L504.382,481.816 L506.285,480.336 L510.092,479.067 L512.418,475.26 L515.802,473.145 L523.416,469.973 L525.107,466.589 L524.049,463.628 L520.665,462.781 L518.127,460.455 L519.185,456.226 L521.088,453.688 L525.529,452.63 L530.393,449.246 L539.271,445.013 L539.271,445.013 Z" id="VS" sketch:type="MSShapeGroup"></path>
        </g>
    </g>
</svg>