<?xml version="1.0" encoding="UTF-8" standalone="no"?>
<svg width="66px" height="54px" viewBox="0 0 66 54" version="1.1" xmlns="http://www.w3.org/2000/svg" xmlns:xlink="http://www.w3.org/1999/xlink" xmlns:sketch="http://www.bohemiancoding.com/sketch/ns">
    <!-- Generator: Sketch 3.1.1 (8761) - http://www.bohemiancoding.com/sketch -->
    <title>ZG</title>
    <desc>Created with Sketch.</desc>
    <defs></defs>
    <g id="Source" stroke="none" stroke-width="1" fill="none" fill-rule="evenodd" sketch:type="MSPage">
        <g id="Artboard-1" sketch:type="MSArtboardGroup" transform="translate(-542.000000, -186.000000)" stroke="#000000" stroke-width="0.5" fill="#71C837">
            <path d="M606.242,213.023 L603.279,214.829 L600.176,214.57 L599.401,213.665 L598.626,210.822 L597.722,210.693 L594.103,210.305 L592.81,209.788 L592.035,208.366 L591.906,206.169 L591.26,204.101 L590.742,201.775 L590.613,199.707 L589.32,199.19 L587.899,199.448 L586.865,196.992 L584.409,197.38 L583.116,195.699 L582.082,194.665 L577.946,194.924 L574.715,194.665 L572.647,195.441 L570.45,197.38 L567.348,198.543 L562.695,198.801 L559.592,199.06 L555.715,197.896 L554.293,196.733 L550,196.857 C549.352,195.833 548.886,194.257 548.321,193.188 C547.86,192.317 547.069,191.255 546.632,190.373 C546.228,189.558 545.786,188.423 545.506,187.558 C545.4,187.227 545.229,186.713 545.227,186.713 C545.045,187.564 544.191,188.462 543.818,189.247 C543.427,190.068 542.669,191.153 542.692,192.062 C542.723,193.27 543.915,194.605 544.38,195.721 C544.658,196.387 545.068,197.268 545.225,197.973 C545.463,199.048 545.464,200.532 545.506,201.632 C545.552,202.813 545.335,204.403 545.506,205.572 C545.634,206.445 546.138,207.531 546.351,208.387 C546.559,209.222 546.634,210.387 546.914,211.202 C547.16,211.916 548.023,212.699 548.04,213.454 C548.06,214.286 547.141,215.187 546.914,215.987 C546.567,217.217 546.738,218.991 546.345,220.227 L549.095,224.742 L550.923,227.484 L552.934,228.124 L554.396,226.753 L555.31,226.479 L555.767,228.033 L556.092,231.042 L558.689,229.692 L561.533,228.141 L563.213,227.753 L564.635,232.665 L565.54,234.862 L567.22,235.508 L571.228,237.059 L573.683,236.025 L576.656,235.766 L580.275,235.637 L581.051,238.998 L583.765,239.127 L586.35,237.835 L588.418,236.284 L590.744,235.509 L592.166,234.604 L595.656,235.509 L598.5,236.026 L599.663,235.25 L599.792,233.958 L600.051,231.244 L601.344,229.564 L603.282,228.142 L604.575,225.945 L605.35,221.809 L607.288,217.027 L607.029,215.735 L606.242,213.023 L606.242,213.023 Z" id="ZG" sketch:type="MSShapeGroup"></path>
        </g>
    </g>
</svg>