<?xml version="1.0" encoding="UTF-8" standalone="no"?>
<svg width="140px" height="178px" viewBox="0 0 140 178" version="1.1" xmlns="http://www.w3.org/2000/svg" xmlns:xlink="http://www.w3.org/1999/xlink" xmlns:sketch="http://www.bohemiancoding.com/sketch/ns">
    <!-- Generator: Sketch 3.1.1 (8761) - http://www.bohemiancoding.com/sketch -->
    <title>ZH</title>
    <desc>Created with Sketch.</desc>
    <defs></defs>
    <g id="Source" stroke="none" stroke-width="1" fill="none" fill-rule="evenodd" sketch:type="MSPage">
        <g id="Artboard-1" sketch:type="MSArtboardGroup" transform="translate(-530.000000, -38.000000)" stroke="#000000" stroke-width="0.5" fill="#71C837">
            <path d="M606.244,213.018 L603.279,214.829 L600.176,214.57 L599.401,213.665 L598.626,210.822 L597.722,210.693 L594.103,210.305 L592.81,209.788 L592.035,208.366 L591.906,206.169 L591.26,204.101 L590.742,201.775 L590.613,199.707 L589.32,199.19 L587.899,199.448 L586.865,196.992 L584.409,197.38 L583.116,195.699 L582.082,194.665 L577.946,194.924 L574.715,194.665 L572.647,195.441 L570.45,197.38 L567.348,198.543 L562.695,198.801 L559.592,199.06 L555.715,197.896 L554.293,196.733 L550,196.857 C549.352,195.833 548.886,194.257 548.321,193.188 C547.86,192.317 547.069,191.255 546.632,190.373 C546.228,189.558 545.786,188.423 545.506,187.558 C545.4,187.227 545.174,186.694 545.199,186.704 C545.417,185.802 545.146,184.528 544.943,183.618 C544.727,182.653 544.122,181.462 543.817,180.521 C543.628,179.937 543.444,179.136 543.254,178.551 C542.949,177.611 542.562,176.343 542.128,175.455 C541.779,174.739 540.913,173.737 540.507,173.031 L543.793,172.373 L546.169,171.276 L548.545,168.626 L550.307,165.44 L552.068,162.422 L551.112,161.976 L549.136,164.773 L546.414,164.273 L545.044,163.152 L543.334,161.073 L542.861,153.304 L543.435,150.719 L536.584,147.1 L536.196,144.903 L542.271,137.665 L543.046,135.855 L542.4,132.753 L538.781,130.685 L536.584,129.651 L536.325,128.746 L535.421,123.705 L534.903,120.862 L534.515,119.181 L532.964,117.889 L531.154,112.46 L533.222,105.998 L535.032,102.637 L535.032,98.5 L538.392,95.656 L542.528,91.52 L544.855,85.574 L545.114,81.697 L544.468,80.953 L545.773,78.896 C546.303,79.138 546.932,79.59 547.475,79.75 C548.208,79.967 549.244,80.015 550.008,80.032 C551.278,80.06 552.976,79.948 554.231,79.75 C555.262,79.588 556.595,79.159 557.609,78.906 C558.96,78.568 560.94,78.532 562.112,77.78 C562.567,77.488 562.735,76.572 563.261,76.369 C563.793,76.153 564.613,76.612 565.208,76.654 C565.882,76.702 566.793,76.546 567.46,76.654 C568.251,76.782 569.238,77.231 569.993,77.499 C570.673,77.74 571.575,78.075 572.245,78.343 C572.842,78.583 573.683,78.827 574.216,79.188 C574.907,79.657 575.734,80.456 576.186,81.158 C576.577,81.764 576.777,82.734 577.031,83.41 C577.284,84.085 577.236,85.327 577.876,85.661 C578.184,85.823 578.708,85.568 579.002,85.38 C579.457,85.088 579.879,84.453 580.127,83.973 C580.409,83.427 580.639,82.615 580.69,82.002 C580.753,81.24 580.062,80.15 580.409,79.469 C580.718,78.862 581.954,78.875 582.379,78.343 C583.097,77.447 582.963,75.696 583.505,74.684 C584.072,73.626 585.234,72.477 585.957,71.623 C586.6,70.967 587.502,70.281 588.009,69.617 C588.422,69.075 588.928,68.295 589.135,67.646 C589.394,66.838 589.421,65.68 589.416,64.831 C589.412,64.066 589.32,63.039 589.135,62.298 C589.025,61.857 588.683,61.332 588.572,60.891 C588.385,60.149 588.278,59.122 588.29,58.357 C588.3,57.76 588.424,56.965 588.572,56.387 C588.751,55.688 588.695,54.122 589.416,54.135 C589.95,54.145 589.842,55.308 589.979,55.824 C590.089,56.24 589.975,56.909 590.26,57.232 C590.437,57.432 590.848,57.439 591.105,57.513 C591.439,57.61 591.888,57.86 592.231,57.795 C592.944,57.659 593.836,57.016 594.201,56.387 C594.627,55.653 594.545,54.419 594.483,53.572 C594.432,52.878 594.29,51.91 593.92,51.321 C593.569,50.762 592.574,50.477 592.197,49.994 C591.795,49.334 591.705,48.158 591.668,47.38 C591.636,46.7 591.685,45.755 591.949,45.128 C592.16,44.63 592.855,44.214 593.075,43.721 C593.285,43.252 593.283,42.54 593.357,42.032 C593.455,41.358 593.596,40.46 593.638,39.78 C593.654,39.527 593.474,39.129 593.638,38.936 C593.97,38.544 594.819,38.728 595.326,38.654 C596,38.556 596.897,38.348 597.578,38.373 C598.009,38.389 598.593,38.478 598.985,38.654 C599.371,38.826 599.778,39.24 600.111,39.499 C600.539,39.83 601.1,40.283 601.518,40.625 C602.03,41.042 602.72,41.587 603.207,42.032 C603.383,42.193 603.533,42.566 603.771,42.595 L601.7,45.368 L601.259,47.224 L602.761,50.582 L604.619,53.475 L606.432,54.475 L608.432,55.6 L612.807,56.475 L616.995,56.6 L619.933,54.725 L621.496,53.1 L622.496,52.35 L623.496,50.85 L624.059,49.787 L624.622,49.975 L628.497,50.413 L628.497,51.351 L630.997,52.601 L634.06,53.726 L636.873,54.539 L637.561,55.414 L633.311,63.164 L629.373,68.602 L627.404,67.352 L627.529,66.539 L622.841,65.789 L620.247,65.945 L619.091,66.945 L618.872,68.789 L619.249,70.206 L620.099,72.714 C620.898,72.771 621.855,72.063 622.632,71.869 C623.131,71.745 623.808,71.567 624.321,71.588 C625.713,71.644 627.535,72.189 628.805,72.707 L629.103,77.012 L632.02,78.957 L635.798,80.119 L638.621,82.664 L639.871,84.289 L639.621,85.289 L635.996,85.414 L636.496,88.039 L637.496,90.289 L639.121,91.289 L641.746,91.164 L643.746,90.539 L646.121,91.789 L650.496,93.789 L651.121,97.289 L649.996,103.664 L648.246,107.664 L647.621,111.914 L650.227,116.787 L650.05,119.704 L651.111,122.621 L652.879,124.212 L654.294,125.361 L651.554,126.333 L650.317,129.604 L648.538,132.423 C650.143,132.665 652.229,133.354 653.713,134.015 C654.349,134.299 655.07,134.918 655.703,135.209 C656.732,135.683 658.272,135.897 659.286,136.403 C660.13,136.825 661.38,140.195 661.373,142.929 L662.427,145.336 L664.99,150.816 L668.084,155.677 L668.88,161.511 L667.996,165.4 L663.842,166.107 L660.925,168.847 L658.892,171.145 L659.511,173.178 L660.925,172.736 L661.366,173.885 L659.687,177.597 L659.775,180.602 L654.03,182.104 L649.373,183.725 L647.185,185.35 L645.622,186.288 L643.372,186.288 L639.372,185.725 L637.122,184.475 L634.559,183.912 L632.184,184.662 L630.246,186.662 L628.996,188.725 L629.496,190.413 L629.559,194.976 M606.246,212.883 L605.777,211.383 L604.621,208.945 L604.809,207.039 L606.872,205.539 L608.997,202.914 L610.435,200.226 L611.185,198.663 L613.435,198.413 L622.917,195.274 L629.638,194.928" id="ZH" sketch:type="MSShapeGroup"></path>
        </g>
    </g>
</svg>